SplineFontDB: 3.0
FontName: CMUBright-Bold
FullName: CMU Bright Bold Extended
FamilyName: CMU Bright
Weight: Bold
Copyright: Converted by Andrey V. Panov from TeX fonts
UComments: "2009-6-18: Created." 
Version: 0.7.0
ItalicAngle: 0
UnderlinePosition: -100
UnderlineWidth: 50
Ascent: 800
Descent: 200
LayerCount: 2
Layer: 0 0 "+BBcEMAQ0BD0EOAQ5 +BD8EOwQwBD0A"  1
Layer: 1 0 "+BB8ENQRABDUENAQ9BDgEOQAA +BD8EOwQwBD0A"  0
NeedsXUIDChange: 1
XUID: [1067 7849261]
FSType: 0
OS2Version: 0
OS2_WeightWidthSlopeOnly: 0
OS2_UseTypoMetrics: 1
CreationTime: 1245317634
ModificationTime: 1245317998
PfmFamily: 17
TTFWeight: 700
TTFWidth: 5
LineGap: 200
VLineGap: 90
OS2TypoAscent: 0
OS2TypoAOffset: 1
OS2TypoDescent: 0
OS2TypoDOffset: 1
OS2TypoLinegap: 200
OS2WinAscent: 934
OS2WinAOffset: 0
OS2WinDescent: 339
OS2WinDOffset: 0
HheadAscent: 934
HheadAOffset: 0
HheadDescent: -339
HheadDOffset: 0
Lookup: 1 0 0 "Case substitutions"  {"Case substitutions subtable"  } ['case' ('cyrl' <'dflt' > 'grek' <'dflt' > 'latn' <'dflt' > ) ]
Lookup: 3 0 0 "Greek alternatives"  {"Greek alternatives subtable"  } ['salt' ('grek' <'dflt' > ) ]
Lookup: 1 0 0 "Greek substitutions"  {"Greek substitutions subtable"  } ['locl' ('grek' <'dflt' > ) ]
Lookup: 4 0 1 "Latin Dutch ligatures"  {"Latin Dutch ligatures subtable"  } ['liga' ('latn' <'NLD ' > ) ]
Lookup: 4 0 1 "Latin ligatures excepting Turkic"  {"Latin ligatures excepting Turkic subtable"  } ['liga' ('latn' <'dflt' 'NLD ' 'VIT ' > ) ]
Lookup: 4 0 1 "Latin ligatures"  {"Latin ligatures subtable"  } ['liga' ('latn' <'dflt' 'NLD ' 'VIT ' 'TRK ' 'AZE ' > ) ]
Lookup: 4 0 1 "Cyrillic ligatures"  {"Cyrillic ligatures subtable"  } ['liga' ('cyrl' <'dflt' 'MKD ' 'SRB ' > ) ]
Lookup: 3 0 0 "Latin alternatives"  {"Latin alternatives subtable"  } ['salt' ('latn' <'dflt' > ) ]
Lookup: 3 0 0 "Stilistic set 01"  {"Stilistic set 01 subtable"  } ['ss01' ('latn' <'dflt' > 'grek' <'dflt' > 'cyrl' <'dflt' > ) ]

StartChar: .notdef
Encoding: 0 0 0
Width: 760
Flags: HW
HStem: 10 60<105 655> 705 60<105 655>
VStem: 10 60<112 663> 690 60<112 663>
DStem2: 105 705 70 663 0.702289 -0.711892<5.31938 389.612 448.699 832.991> 70 112 105 70 0.702289 0.711892<0 384.292 443.379 827.672>
LayerCount: 2
Fore
SplineSet
10 10 m 1
 10 765 l 1
 750 765 l 1
 750 10 l 1
 10 10 l 1
70 112 m 1
 346 388 l 1
 70 663 l 1
 70 112 l 1
105 70 m 1
 655 70 l 1
 380 346 l 1
 105 70 l 1
105 705 m 1
 380 429 l 1
 655 705 l 1
 105 705 l 1
414 388 m 1
 690 112 l 1
 690 663 l 1
 414 388 l 1
EndSplineSet
EndChar

StartChar: uni262D
Encoding: 9773 9773 1
Width: 700
Flags: HW
TeX: 117 0
HStem: -1 21G<56 93 593.5 601> 39 76<321.786 462.78> 102 51<140.549 177.987> 466 20G<232 347>
VStem: 129 54<101.776 137.734> 556 82<197.341 366.709>
DStem2: 123 357 178 301 0.707107 0.707107<0 86.9741 130.108 182.434>
LayerCount: 2
Fore
SplineSet
40 18 m 0
 40 64 129 102 129 128 c 0
 129 148 134 153 148 153 c 0xbc
 162 153 164 157 182 180 c 1
 229 156 307 115 390 115 c 0
 438 115 463 128 463 129 c 0
 463 135 406 186 240 363 c 1
 178 301 l 1
 123 357 l 1
 252 486 l 1
 347 470 l 1
 271 393 l 1
 484 190 l 1
 513 165 l 1
 519 165 556 218 556 295 c 0
 556 473 346 588 346 593 c 1
 394 593 638 478 638 267 c 0
 638 167 592 118 580 100 c 1
 636 44 637 42 637 38 c 0xdc
 637 17 605 -1 597 -1 c 2
 596 -1 l 2
 591 -1 590 1 529 62 c 1
 500 51 474 39 428 39 c 0xdc
 297 39 201 138 188 138 c 0
 183 138 182 134 182 130 c 0
 182 126 183 123 183 118 c 0
 183 108 178 102 168 102 c 0
 131 102 122 0 64 -0 c 0
 48 0 40 7 40 18 c 0
EndSplineSet
EndChar

StartChar: florin
Encoding: 402 402 2
Width: 630
Flags: HW
TeX: 102 0
HStem: -178 85<28.952 172.142> 400 72<235 275 421 504> 633 73<465.364 594.401>
DStem2: 179 -53 318 -28 0.206856 0.978371<-39.8523 463.06 563.704 703.819>
LayerCount: 2
Fore
SplineSet
-3 -148 m 1
 39 -76 l 1
 61 -87 77 -93 107 -93 c 0
 165 -93 175 -75 179 -53 c 2
 275 400 l 1
 219 400 l 1
 235 472 l 1
 290 472 l 1
 310 563 317 706 544 706 c 0
 581 706 601 702 633 695 c 1
 612 594 l 1
 599 608 581 633 527 633 c 0
 441 633 445 582 421 472 c 1
 520 472 l 1
 504 400 l 1
 410 400 l 1
 318 -28 l 2
 304 -94 284 -178 140 -178 c 0
 83 -178 42 -168 -3 -148 c 1
EndSplineSet
EndChar

StartChar: longs
Encoding: 383 383 3
Width: 336
Flags: HW
TeX: 108 0
HStem: 0 21G<86 219> 633 73<231.943 360.279>
VStem: 86 133<0 620.229>
AnchorPoint: "above" 284 695 basechar 0
AnchorPoint: "below" 152 0 basechar 0
LayerCount: 2
Fore
SplineSet
86 0 m 1
 86 527 l 2
 86 585 87 706 284 706 c 0
 313 706 346 703 381 695 c 1
 381 594 l 1
 355 618 333 633 288 633 c 0
 219 633 219 591 219 553 c 2
 219 0 l 1
 86 0 l 1
EndSplineSet
EndChar

StartChar: uni03F5
Encoding: 1013 1013 4
Width: 474
Flags: HW
HStem: -11 116<266.062 412> 191 91<178 350> 368 116<266.062 412>
VStem: 45 305<196.452 277.523>
CounterMasks: 1 e0
LayerCount: 2
Fore
SplineSet
45 237 m 0
 45 386 202 484 412 484 c 1
 412 368 l 1
 244 368 198 316 178 282 c 1
 350 282 l 1
 350 191 l 1
 178 191 l 1
 198 157 244 105 412 105 c 1
 412 -11 l 1
 202 -11 45 88 45 237 c 0
EndSplineSet
EndChar

StartChar: circumflex.cap
Encoding: 65536 -1 5
Width: 550
Flags: HW
HStem: 729 185<216 220>
AnchorPoint: "above" 276 717 mark 0
LayerCount: 2
Fore
SplineSet
102 729 m 1
 220 914 l 1
 380 914 l 1
 449 729 l 1
 376 729 l 1
 274 840 l 1
 174 729 l 1
 102 729 l 1
EndSplineSet
EndChar

StartChar: caron.cap
Encoding: 65539 -1 8
Width: 550
Flags: HW
HStem: 729 174
AnchorPoint: "above" 275 717 mark 0
LayerCount: 2
Fore
SplineSet
95 903 m 1
 168 903 l 1
 275 800 l 1
 382 903 l 1
 455 903 l 1
 334 729 l 1
 216 729 l 1
 95 903 l 1
EndSplineSet
EndChar

StartChar: ring.cap
Encoding: 65540 -1 9
Width: 550
Flags: HW
HStem: 657 72<219.965 328.335> 830 73<218.449 329.842>
VStem: 152 62<734.817 824.432> 336 61<735.133 824.894>
AnchorPoint: "above" 274 717 mark 0
LayerCount: 2
Fore
SplineSet
152 781 m 0
 152 843 178 903 276 903 c 0
 346 903 397 870 397 779 c 0
 397 716 372 657 274 657 c 0
 204 657 152 689 152 781 c 0
214 780 m 0
 214 732 240 729 272 729 c 2
 274 729 l 1
 306 730 336 728 336 779 c 0
 336 828 312 830 278 830 c 2
 276 830 l 2
 232 830 214 824 214 780 c 0
EndSplineSet
EndChar

StartChar: breve.cap
Encoding: 65541 -1 10
Width: 550
Flags: HW
HStem: 730 94<192.838 355.759>
VStem: 86 72<856.82 903> 390 73<854.984 903>
AnchorPoint: "above" 274 717 mark 0
LayerCount: 2
Fore
SplineSet
86 903 m 1
 158 903 l 1
 164 832 246 824 276 824 c 0
 304 824 384 832 390 903 c 1
 463 903 l 1
 460 793 368 730 274 730 c 0
 180 730 90 795 86 903 c 1
EndSplineSet
EndChar

StartChar: uni026A
Encoding: 618 618 11
Width: 288
Flags: HW
HStem: 0 21G<67 221> 452 20G<67 221>
VStem: 67 154<0 72 400 472>
AnchorPoint: "affricate-below" 288 -167 basechar 0
AnchorPoint: "affricate-above" 288 695 basechar 0
AnchorPoint: "below" 144 0 basechar 0
AnchorPoint: "above" 144 489 basechar 0
LayerCount: 2
Back
SplineSet
76 0 m 1
 76 472 l 1
 213 472 l 1
 213 0 l 1
 76 0 l 1
EndSplineSet
Fore
SplineSet
67 0 m 1
 67 72 l 1
 77 72 l 1
 77 400 l 1
 67 400 l 1
 67 472 l 1
 221 472 l 1
 221 400 l 1
 211 400 l 1
 211 72 l 1
 221 72 l 1
 221 0 l 1
 67 0 l 1
EndSplineSet
EndChar

StartChar: grave
Encoding: 96 96 12
Width: 550
Flags: HW
TeX: 679 0
HStem: 542 139
VStem: 106 235
LayerCount: 2
Fore
SplineSet
106 681 m 1
 243 681 l 1
 341 542 l 1
 268 542 l 1
 106 681 l 1
EndSplineSet
EndChar

StartChar: acute
Encoding: 180 180 13
Width: 550
Flags: HW
TeX: 679 0
HStem: 542 139
VStem: 207 235
LayerCount: 2
Fore
SplineSet
207 542 m 1
 306 681 l 1
 442 681 l 1
 280 542 l 1
 207 542 l 1
EndSplineSet
EndChar

StartChar: circumflex
Encoding: 710 710 14
Width: 550
Flags: HW
TeX: 679 0
HStem: 541 151
LayerCount: 2
Fore
SplineSet
101 541 m 1
 220 692 l 1
 329 692 l 1
 449 541 l 1
 376 541 l 1
 275 631 l 1
 174 541 l 1
 101 541 l 1
EndSplineSet
EndChar

StartChar: tilde
Encoding: 732 732 15
Width: 550
Flags: HW
TeX: 679 0
HStem: 521 73<293.409 377.275> 573 73<170.917 254.55>
VStem: 91 73<521 567.269> 385 72<599.03 646>
LayerCount: 2
Fore
SplineSet
91 521 m 1xb0
 94 606 151 646 202 646 c 0x70
 275 646 303 594 346 594 c 0xb0
 362 594 382 605 385 646 c 1
 457 646 l 1x70
 455 567 403 521 345 521 c 0xb0
 274 521 244 573 203 573 c 0x70
 187 573 167 564 164 521 c 1
 91 521 l 1xb0
EndSplineSet
EndChar

StartChar: ring
Encoding: 730 730 18
Width: 733
Flags: HW
TeX: 679 0
HStem: 506 35<314.183 415.103> 645 35<313.213 416.463>
VStem: 243 62<547.045 638.636> 426 62<547.292 638.589>
LayerCount: 2
Fore
SplineSet
243 593 m 0
 243 628 259 676 351 680 c 1
 372 680 l 1
 472 679 488 629 488 594 c 0
 488 559 472 511 381 507 c 2
 359 506 l 1
 258 508 243 558 243 593 c 0
305 594 m 0
 305 551 325 541 363 541 c 1
 391 542 426 540 426 593 c 0
 426 635 407 645 368 645 c 1
 340 644 305 647 305 594 c 0
EndSplineSet
EndChar

StartChar: caron
Encoding: 711 711 19
Width: 550
Flags: HW
TeX: 679 0
HStem: 541 139
LayerCount: 2
Fore
SplineSet
89 680 m 1
 162 680 l 1
 275 594 l 1
 387 680 l 1
 460 680 l 1
 329 541 l 1
 220 541 l 1
 89 680 l 1
EndSplineSet
EndChar

StartChar: breve
Encoding: 728 728 20
Width: 550
Flags: HW
TeX: 679 0
HStem: 517 94<185.983 362.396>
VStem: 85 73<638.8 680> 390 73<638.834 680>
LayerCount: 2
Fore
SplineSet
85 680 m 1
 158 680 l 1
 164 616 246 611 275 611 c 0
 303 611 384 616 390 680 c 1
 463 680 l 1
 460 576 367 517 274 517 c 0
 182 517 88 575 85 680 c 1
EndSplineSet
EndChar

StartChar: macron
Encoding: 175 175 21
Width: 550
Flags: HW
TeX: 679 0
HStem: 615 85<76 473>
LayerCount: 2
Fore
SplineSet
76 615 m 1
 76 700 l 1
 473 700 l 1
 473 615 l 1
 76 615 l 1
EndSplineSet
EndChar

StartChar: dotaccent
Encoding: 729 729 22
Width: 306
Flags: HW
TeX: 694 0
HStem: 547 148<94 242>
VStem: 94 148<547 695>
LayerCount: 2
Fore
SplineSet
94 547 m 1
 94 695 l 1
 242 695 l 1
 242 547 l 1
 94 547 l 1
EndSplineSet
EndChar

StartChar: cedilla
Encoding: 184 184 23
Width: 489
Flags: HW
TeX: 0 145
HStem: -168 145<207 219>
VStem: 115 165
LayerCount: 2
Fore
SplineSet
115 -168 m 1
 207 -23 l 1
 280 -23 l 1
 219 -168 l 1
 115 -168 l 1
EndSplineSet
EndChar

StartChar: ogonek
Encoding: 731 731 24
Width: 306
Flags: HW
TeX: 0 166
HStem: -223 104<35.5 144.495>
VStem: -59 141<-118.982 -64.382>
LayerCount: 2
Fore
SplineSet
-59 -122 m 0
 -59 -23 81 -7 150 57 c 1
 183 -0 l 1
 140 -38 83 -63 82 -103 c 1
 85 -113 93 -119 105 -119 c 0
 122 -119 146 -106 167 -74 c 1
 227 -115 l 1
 200 -162 148 -222 67 -223 c 0
 4 -223 -59 -181 -59 -122 c 0
EndSplineSet
EndChar

StartChar: guilsinglleft
Encoding: 8249 8249 26
Width: 428
Flags: HW
TeX: 500 0
VStem: 121 183
LayerCount: 2
Fore
SplineSet
121 250 m 1
 232 427 l 1
 304 427 l 1
 268 292 259 262 259 247 c 0
 259 242 289 131 304 73 c 1
 232 73 l 1
 121 250 l 1
EndSplineSet
EndChar

StartChar: guilsinglright
Encoding: 8250 8250 27
Width: 428
Flags: HW
TeX: 500 0
VStem: 121 183
LayerCount: 2
Fore
SplineSet
121 73 m 1
 159 217 166 239 166 251 c 0
 166 257 164 263 121 427 c 1
 194 427 l 1
 304 250 l 1
 194 73 l 1
 121 73 l 1
EndSplineSet
EndChar

StartChar: guillemotleft.lat
Encoding: 61696 61696 31
Width: 550
Flags: HW
TeX: 500 0
LayerCount: 2
Fore
SplineSet
73 250 m 1
 208 427 l 1
 281 427 l 1
 218 270 212 260 212 249 c 0
 212 239 215 238 281 73 c 1
 208 73 l 1
 73 250 l 1
305 250 m 1
 440 427 l 1
 513 427 l 1
 444 255 444 257 444 250 c 0
 444 243 443 247 513 73 c 1
 440 73 l 1
 305 250 l 1
EndSplineSet
EndChar

StartChar: guillemotright.lat
Encoding: 61697 61697 32
Width: 550
Flags: HW
TeX: 500 0
LayerCount: 2
Fore
SplineSet
36 73 m 1
 105 245 105 243 105 250 c 0
 105 257 86 302 36 427 c 1
 109 427 l 1
 244 250 l 1
 109 73 l 1
 36 73 l 1
268 73 m 1
 337 245 337 243 337 250 c 0
 337 257 318 302 268 427 c 1
 341 427 l 1
 476 250 l 1
 341 73 l 1
 268 73 l 1
EndSplineSet
EndChar

StartChar: endash
Encoding: 8211 8211 33
Width: 550
Flags: HW
TeX: 472 0
ItalicCorrection: 30
HStem: 256 72<0 550>
LayerCount: 2
Fore
SplineSet
0 256 m 1
 0 328 l 1
 550 328 l 1
 550 256 l 1
 0 256 l 1
EndSplineSet
EndChar

StartChar: emdash
Encoding: 8212 8212 34
Width: 1100
Flags: HW
TeX: 472 0
ItalicCorrection: 30
HStem: 256 72<0 1100>
LayerCount: 2
Fore
SplineSet
0 256 m 1
 0 328 l 1
 1100 328 l 1
 1100 256 l 1
 0 256 l 1
EndSplineSet
Substitution2: "Cyrillic substitutions subtable" emdash.cyr
AlternateSubs2: "Cyrillic alternatives subtable" emdash.cyr
EndChar

StartChar: dotlessi
Encoding: 305 305 36
Width: 256
Flags: HW
TeX: 472 0
HStem: 0 21G<60 194> 452 20G<60 194>
VStem: 60 134<0 472>
AnchorPoint: "below" 127 0 basechar 0
AnchorPoint: "above" 127 489 basechar 0
LayerCount: 2
Fore
SplineSet
60 0 m 1
 60 472 l 1
 194 472 l 1
 194 0 l 1
 60 0 l 1
EndSplineSet
EndChar

StartChar: dotlessj
Encoding: 567 567 37
Width: 286
Flags: HW
TeX: 472 166
HStem: -178 85<-44.9636 87.7526> 452 20G<92 226>
VStem: 92 134<-87.3386 472>
AnchorPoint: "below" 113 -167 basechar 0
AnchorPoint: "above" 159 489 basechar 0
LayerCount: 2
Fore
SplineSet
-70 -148 m 1
 -43 -76 l 1
 -17 -89 1 -93 29 -93 c 0
 85 -93 92 -76 92 -55 c 2
 92 472 l 1
 226 472 l 1
 226 -34 l 1
 225 -79 233 -178 79 -178 c 0
 20 -178 -29 -165 -70 -148 c 1
EndSplineSet
EndChar

StartChar: ff
Encoding: 64256 64256 38
Width: 642
Flags: HW
TeX: 694 0
ItalicCorrection: 76
HStem: 0 21G<86 219 391 525> 400 72<30 86 219 315 525 620> 633 73<228.86 359.448 534.086 665.307>
VStem: 86 133<0 400 472 621.554> 391 134<0 400 472 621.625>
LayerCount: 2
Fore
SplineSet
391 0 m 1
 391 539 l 2
 391 673 478 706 598 706 c 0
 622 706 648 704 687 695 c 1
 687 594 l 1
 660 618 637 633 593 633 c 0
 525 633 522 591 522 567 c 2
 522 472 l 1
 620 472 l 1
 620 400 l 1
 525 400 l 1
 525 0 l 1
 391 0 l 1
EndSplineSet
Refer: 113 102 S 1 0 0 1 0 0 2
Ligature2: "Latin ligatures subtable" f f
EndChar

StartChar: fi
Encoding: 64257 64257 39
Width: 586
Flags: HW
TeX: 694 0
HStem: 0 21G<86 219 391 525> 400 72<30 86 219 324> 452 20<391 525> 561 134<391 525> 633 73<223.217 307.629>
VStem: 86 133<0 400 472 629.208> 391 134<0 472 561 695>
LayerCount: 2
Fore
SplineSet
30 400 m 1
 30 472 l 1
 86 472 l 1
 86 530 l 1
 87 579 79 706 255 706 c 0xce
 281 706 297 703 324 695 c 1x96
 324 630 l 1
 323 588 l 1
 314 606 296 633 257 633 c 0x8e
 222 633 216 602 216 574 c 2
 216 472 l 1xae
 324 472 l 1
 324 400 l 1
 219 400 l 1
 219 0 l 1
 86 0 l 1
 86 400 l 1
 30 400 l 1
391 561 m 1x96
 391 695 l 1
 525 695 l 1
 525 561 l 1
 391 561 l 1x96
EndSplineSet
Refer: 36 305 S 1 0 0 1 331 0 2
Ligature2: "Latin ligatures excepting Turkic subtable" f i
EndChar

StartChar: fl
Encoding: 64258 64258 40
Width: 586
Flags: HW
TeX: 694 0
HStem: 0 21G<86 219 391 525> 400 72<30 86 219 324> 633 73<223.428 308.967> 675 20<391 525>
VStem: 86 133<0 400 472 628.811> 391 134<0 695>
LayerCount: 2
Fore
SplineSet
30 400 m 1
 30 472 l 1
 86 472 l 1
 86 530 l 1
 87 578 79 706 255 706 c 0xec
 281 706 297 703 324 695 c 1xdc
 324 634 l 1
 323 594 l 1
 315 605 297 633 258 633 c 0xec
 226 633 216 607 216 573 c 2
 216 472 l 1
 324 472 l 1
 324 400 l 1
 219 400 l 1
 219 0 l 1
 86 0 l 1
 86 400 l 1
 30 400 l 1
EndSplineSet
Refer: 119 108 S 1 0 0 1 331 0 2
Ligature2: "Latin ligatures subtable" f l
EndChar

StartChar: ffi
Encoding: 64259 64259 41
Width: 892
Flags: HW
TeX: 694 0
HStem: 0 21G<86 219 391 525 696 830> 400 72<30 86 219 324 525 629> 452 20<696 830> 561 134<696 830> 633 73<227.759 333.892 529.971 613.687>
VStem: 86 133<0 400 472 622.73> 391 134<0 400 472 629.369> 696 134<0 472 561 695>
LayerCount: 2
Fore
SplineSet
30 400 m 1
 30 472 l 1
 86 472 l 1xc7
 86 529 l 1
 87 590 86 706 270 706 c 0
 308 706 327 701 351 695 c 1x97
 351 594 l 1
 343 603 320 633 273 633 c 0
 228 633 216 606 216 570 c 2
 216 472 l 1xaf
 324 472 l 1
 324 400 l 1
 219 400 l 1
 219 0 l 1
 86 0 l 1
 86 400 l 1
 30 400 l 1
391 0 m 1
 391 539 l 2
 391 625 419 705 557 706 c 0
 586 706 601 704 629 698 c 1
 629 591 l 1
 621 605 602 633 563 633 c 0
 530 633 522 608 522 574 c 2
 522 472 l 1xaf
 629 472 l 1
 629 400 l 1
 525 400 l 1xc7
 525 0 l 1
 391 0 l 1
696 561 m 1x97
 696 695 l 1
 830 695 l 1
 830 561 l 1
 696 561 l 1x97
EndSplineSet
Refer: 36 305 S 1 0 0 1 636 0 2
Ligature2: "Latin ligatures excepting Turkic subtable" ff i
Ligature2: "Latin ligatures excepting Turkic subtable" f f i
EndChar

StartChar: ffl
Encoding: 64260 64260 42
Width: 892
Flags: HW
TeX: 694 0
HStem: 0 21G<86 219 391 525 696 830> 400 72<30 86 219 324 525 629> 633 73<227.062 334.217 528.725 614.859> 675 20<696 830>
VStem: 86 133<0 400 472 625.012> 391 134<0 400 472 628.352> 696 134<0 695>
LayerCount: 2
Fore
SplineSet
30 400 m 1
 30 472 l 1
 86 472 l 1
 86 529 l 1
 87 578 79 706 270 706 c 0xee
 300 706 319 704 351 695 c 1xde
 351 594 l 1
 343 603 320 633 273 633 c 0xee
 228 633 216 606 216 570 c 2
 216 472 l 1
 324 472 l 1
 324 400 l 1
 219 400 l 1
 219 0 l 1
 86 0 l 1
 86 400 l 1
 30 400 l 1
391 0 m 1
 391 519 l 1
 392 581 384 706 560 706 c 0xee
 586 706 602 703 629 695 c 1xde
 629 594 l 1
 621 605 602 633 563 633 c 0
 531 633 522 607 522 573 c 2
 522 472 l 1
 629 472 l 1
 629 400 l 1
 525 400 l 1
 525 0 l 1
 391 0 l 1
EndSplineSet
Refer: 119 108 S 1 0 0 1 636 0 2
Ligature2: "Latin ligatures subtable" ff l
Ligature2: "Latin ligatures subtable" f f l
EndChar

StartChar: uni2423
Encoding: 9251 9251 43
Width: 550
Flags: HW
TeX: 472 83
HStem: -109 51<96 452>
VStem: 45 51<-58 274.526> 452 51<-58 274.627>
LayerCount: 2
Fore
SplineSet
45 -75 m 2
 45 242 l 2
 45 271 63 275 71 275 c 0
 98 275 96 248 96 236 c 2
 96 -58 l 1
 452 -58 l 1
 452 241 l 2
 452 254 453 275 477 275 c 0
 485 275 503 271 503 242 c 2
 503 -71 l 2
 503 -87 503 -109 469 -109 c 2
 82 -109 l 2
 63 -109 45 -106 45 -75 c 2
EndSplineSet
EndChar

StartChar: exclam
Encoding: 33 33 44
Width: 367
Flags: HW
TeX: 694 0
HStem: 0 131<117 248> 675 20G<117 248>
VStem: 117 131<0 131 437.615 695> 130 105<217 474.385>
LayerCount: 2
Fore
SplineSet
117 695 m 1xe0
 248 695 l 1xe0
 235 217 l 1
 130 217 l 1xd0
 117 695 l 1xe0
EndSplineSet
Refer: 57 46 S 1 0 0 1 31 -0 2
EndChar

StartChar: numbersign
Encoding: 35 35 46
Width: 917
Flags: HW
TeX: 694 166
HStem: -168 21 109 72<96 275 329 514 567 802> 346 73<112 347 400 585 639 805> 694 -21
LayerCount: 2
Fore
SplineSet
61 145 m 0
 61 181 91 181 115 181 c 2
 275 181 l 1
 324 346 l 1
 112 346 l 2
 80 346 61 353 61 382 c 0
 61 418 91 419 115 419 c 2
 347 419 l 1
 425 679 421 694 457 694 c 0
 477 694 493 676 493 659 c 0
 493 644 451 513 423 419 c 1
 585 419 l 1
 664 679 659 694 696 694 c 0
 716 694 731 676 731 659 c 0
 731 644 689 513 661 419 c 1
 805 419 l 2
 828 419 854 414 854 382 c 0
 854 346 817 346 805 346 c 2
 639 346 l 1
 590 181 l 1
 802 181 l 2
 833 181 854 175 854 145 c 0
 854 109 820 109 800 109 c 2
 567 109 l 1
 490 -147 494 -166 457 -166 c 0
 435 -166 421 -148 421 -130 c 0
 421 -122 426 -108 491 109 c 1
 329 109 l 1
 252 -147 255 -166 219 -166 c 0
 196 -166 183 -148 183 -130 c 0
 183 -122 188 -108 253 109 c 1
 112 109 l 2
 80 109 61 116 61 145 c 0
351 181 m 1
 514 181 l 1
 563 346 l 1
 400 346 l 1
 351 181 l 1
EndSplineSet
EndChar

StartChar: dollar
Encoding: 36 36 47
Width: 550
Flags: HW
TeX: 750 55
HStem: -10 101<157.519 238> 602 102<198.573 238 310 392.627>
VStem: 60 118<471.49 581.205> 238 72<-56 -7.56302 94 276 446 602 702.193 750> 371 117<116.982 245.126>
LayerCount: 2
Fore
SplineSet
48 58 m 1
 67 168 l 1
 132 118 167 103 238 91 c 1
 238 294 l 1
 103 325 60 422 60 502 c 0
 60 664 166 696 238 704 c 1
 238 750 l 1
 310 750 l 1
 310 704 l 1
 372 700 418 681 469 650 c 1
 451 545 l 1
 419 567 380 597 310 603 c 1
 310 429 l 1
 440 399 488 294 488 206 c 0
 488 92 440 4 310 -9 c 1
 310 -56 l 1
 238 -56 l 1
 238 -10 l 1
 235 -7 153 -11 48 58 c 1
178 525 m 0
 178 478 211 459 238 446 c 1
 238 602 l 1
 237 602 l 1
 226 599 178 587 178 525 c 0
310 94 m 1
 316 96 371 106 371 183 c 0
 371 238 334 266 311 276 c 1
 310 246 l 1
 310 94 l 1
EndSplineSet
EndChar

StartChar: percent
Encoding: 37 37 48
Width: 1029
Flags: HW
TeX: 750 55
HStem: -56 73<741.902 825.946> 274 73<742.658 826.863> 347 73<196.902 281.038> 677 73<197.67 281.911>
VStem: 60 120<437.898 655.389> 307 115<446.255 652.146> 605 120<34.7795 252.389> 852 114<42.9095 249.146>
DStem2: 746 723 281 -32 0.601621 0.798782<-916.023 36.8657>
LayerCount: 2
Fore
SplineSet
60 549 m 0
 60 653 97 750 243 750 c 0
 386 750 422 652 422 565 c 2
 422 552 l 2
 422 488 415 347 241 347 c 0
 132 347 60 404 60 549 c 0
180 541 m 1
 181 495 175 420 241 420 c 0
 264 420 286 434 298 471 c 0
 306 496 307 523 307 549 c 0
 307 573 309 677 241 677 c 0
 222 677 205 668 196 656 c 0
 186 643 181 628 180 565 c 1
 180 541 l 1
201 -14 m 0
 201 1 209 11 216 21 c 2
 746 723 l 2
 749 727 762 750 787 750 c 0
 812 750 828 729 828 708 c 0
 828 695 823 688 815 677 c 2
 281 -32 l 2
 265 -53 256 -54 241 -55 c 1
 219 -54 201 -36 201 -14 c 0
605 147 m 0
 605 293 678 347 788 347 c 0
 931 347 963 249 966 162 c 1
 966 128 l 1
 962 41 930 -56 786 -56 c 0
 677 -56 605 0 605 147 c 0
725 138 m 1
 726 92 720 17 786 17 c 0
 809 17 831 31 843 68 c 0
 851 93 852 120 852 146 c 0
 852 170 854 274 786 274 c 0
 767 274 750 265 741 253 c 0
 731 240 726 225 725 162 c 1
 725 138 l 1
EndSplineSet
EndChar

StartChar: ampersand
Encoding: 38 38 49
Width: 831
Flags: HW
TeX: 694 0
HStem: -22 100<203.63 362.337 552.743 764.43> 644 73<290.507 376.439>
VStem: 45 137<100.559 225.229> 161 104<421.419 600.912> 396 115<486.847 624.374> 632 100<380.533 418.89>
LayerCount: 2
Fore
SplineSet
45 148 m 0
 45 245 129 288 193 332 c 1
 176 377 161 426 161 489 c 0xdc
 161 611 232 717 338 717 c 0
 431 717 511 643 511 553 c 0
 511 473 416 400 325 336 c 1
 347 298 373 259 465 163 c 1
 466 163 l 1
 489 184 582 262 632 444 c 1
 732 417 l 1
 703 311 648 200 547 102 c 1
 575 88 604 78 643 78 c 0
 693 78 732 89 768 101 c 1
 768 -5 l 1
 728 -16 686 -23 644 -23 c 0
 554 -23 500 8 452 33 c 1
 382 -9 298 -22 247 -22 c 0
 129 -22 45 55 45 148 c 0
182 174 m 0xec
 182 134 195 78 249 78 c 0
 292 78 337 90 363 100 c 1
 317 145 269 194 226 267 c 1
 206 253 182 233 182 174 c 0xec
265 546 m 0
 265 491 281 436 293 403 c 1
 328 430 396 476 396 552 c 0
 396 600 375 644 336 644 c 0xdc
 308 644 265 619 265 546 c 0
EndSplineSet
EndChar

StartChar: parenleft
Encoding: 40 40 51
Width: 428
Flags: HW
TeX: 750 222
VStem: 85 137<77.6561 445.297>
LayerCount: 2
Fore
SplineSet
85 263 m 0
 85 458 147 632 293 750 c 1
 365 750 l 1
 319 692 222 580 222 264 c 0
 222 -48 314 -159 365 -223 c 1
 293 -223 l 1
 148 -106 85 69 85 263 c 0
EndSplineSet
EndChar

StartChar: parenright
Encoding: 41 41 52
Width: 428
Flags: HW
TeX: 750 222
VStem: 204 136<78.0213 449.182>
LayerCount: 2
Fore
SplineSet
60 -223 m 1
 113 -156 204 -46 204 264 c 0
 204 575 112 684 60 750 c 1
 133 750 l 1
 279 632 340 458 340 263 c 0
 340 98 294 -93 133 -223 c 1
 60 -223 l 1
EndSplineSet
EndChar

StartChar: asterisk
Encoding: 42 42 53
Width: 550
Flags: HW
TeX: 750 0
VStem: 222 104<287.123 426.35 601.183 741.04>
LayerCount: 2
Fore
SplineSet
67 426 m 0
 67 465 84 464 234 514 c 1
 88 563 67 562 67 602 c 0
 67 630 90 660 120 660 c 0
 141 660 146 651 254 550 c 1
 233 650 223 688 223 708 c 0
 223 735 252 750 274 750 c 0
 298 750 326 734 326 706 c 0
 326 699 320 674 294 550 c 1
 408 656 408 660 428 660 c 0
 458 660 481 630 481 602 c 0
 481 563 464 564 314 514 c 1
 459 465 481 467 481 426 c 0
 481 398 459 369 428 369 c 0
 407 369 402 377 294 478 c 1
 324 338 326 329 326 322 c 0
 326 294 298 278 274 278 c 0
 241 278 222 304 222 321 c 0
 222 332 228 358 254 478 c 1
 141 372 141 369 121 369 c 0
 91 369 67 398 67 426 c 0
EndSplineSet
EndChar

StartChar: plus
Encoding: 43 43 54
Width: 672
Flags: HW
TeX: 538 11
HStem: -11 21G<327 343> 227 73<63.6151 299 371 605.385>
VStem: 299 72<-7.99097 227 300 535.694>
LayerCount: 2
Fore
SplineSet
60 264 m 0
 60 280 71 293 86 298 c 0
 94 301 103 300 112 300 c 2
 299 300 l 1
 299 486 l 2
 299 495 298 504 300 512 c 0
 304 527 319 539 335 539 c 0
 351 539 364 528 369 513 c 0
 372 505 371 496 371 487 c 2
 371 300 l 1
 557 300 l 1
 557 300 575 300 583 298 c 0
 598 294 609 280 609 264 c 0
 609 248 598 234 583 229 c 0
 575 226 567 227 558 227 c 2
 371 227 l 1
 371 41 l 2
 371 32 371 23 369 15 c 0
 365 0 351 -11 335 -11 c 0
 319 -11 305 0 300 15 c 0
 297 23 299 31 299 40 c 2
 299 227 l 1
 113 227 l 2
 104 227 95 227 87 229 c 0
 72 233 60 248 60 264 c 0
EndSplineSet
EndChar

StartChar: comma
Encoding: 44 44 55
Width: 306
Flags: HW
TeX: 130 111
HStem: -111 242<-5 33.0679>
VStem: 86 131<0.278431 131>
LayerCount: 2
Fore
SplineSet
86 0 m 1
 86 131 l 1
 217 131 l 1
 217 19 l 1
 214 -16 221 11 152 -111 c 1
 86 -111 l 1
 126 0 l 1
 86 0 l 1
EndSplineSet
EndChar

StartChar: hyphen
Encoding: 45 45 56
Width: 367
Flags: HW
TeX: 472 0
HStem: 200 73<12 305>
VStem: 12 293<200 273>
LayerCount: 2
Fore
SplineSet
12 200 m 1
 12 273 l 1
 305 273 l 1
 305 200 l 1
 12 200 l 1
EndSplineSet
EndChar

StartChar: period
Encoding: 46 46 57
Width: 306
Flags: HW
TeX: 130 0
HStem: 0 131<86 217>
VStem: 86 131<0 131>
LayerCount: 2
Fore
SplineSet
86 0 m 1
 86 131 l 1
 217 131 l 1
 217 0 l 1
 86 0 l 1
EndSplineSet
EndChar

StartChar: slash
Encoding: 47 47 58
Width: 550
Flags: HW
TeX: 750 222
DStem2: 408 704 480 687 0.366723 0.93033<-954.766 37.838>
LayerCount: 2
Fore
SplineSet
61 -186 m 0
 61 -175 66 -165 69 -156 c 2
 408 704 l 2
 414 718 422 750 451 750 c 0
 469 750 487 735 487 714 c 0
 487 704 483 695 480 687 c 2
 141 -173 l 2
 134 -190 126 -222 97 -222 c 0
 80 -222 61 -208 61 -186 c 0
EndSplineSet
EndChar

StartChar: zero
Encoding: 48 48 59
Width: 550
Flags: HW
TeX: 694 0
HStem: -22 73<222.069 323.801> 644 73<223.754 323.264>
VStem: 42 137<133.375 555.295> 369 137<135.886 557.035>
LayerCount: 2
Fore
SplineSet
42 321 m 2
 42 355 l 2
 42 517 59 717 274 717 c 0
 483 717 506 534 506 362 c 2
 506 331 l 2
 506 190 498 -22 273 -22 c 0
 173 -22 124 25 107 46 c 0
 45 122 42 248 42 321 c 2
179 352 m 0
 179 233 181 154 197 111 c 0
 212 71 243 51 274 51 c 0
 279 51 306 52 329 76 c 0
 369 118 369 194 369 341 c 2
 369 357 l 2
 369 485 368 555 348 595 c 0
 334 623 306 644 274 644 c 0
 250 644 231 635 215 617 c 0
 179 578 179 509 179 352 c 0
EndSplineSet
Substitution2: "LGC old numerals subtable" zerooldstyle
EndChar

StartChar: one
Encoding: 49 49 60
Width: 550
Flags: HW
TeX: 694 0
HStem: 0 73<91 217 355 473> 575 73<76 214.843> 697 20G<291.5 355>
VStem: 217 138<73 591>
LayerCount: 2
Fore
SplineSet
76 575 m 1
 76 648 l 1
 192 648 263 670 320 717 c 1
 355 717 l 1
 355 73 l 1
 473 73 l 1
 473 0 l 1
 91 0 l 1
 91 73 l 1
 217 73 l 1
 217 591 l 1
 171 579 124 575 76 575 c 1
EndSplineSet
Substitution2: "LGC old numerals subtable" oneoldstyle
EndChar

StartChar: two
Encoding: 50 50 61
Width: 550
Flags: HW
TeX: 694 0
HStem: 0 107<149 494> 486 21G<98.3182 122.5> 617 100<175.274 305.343>
VStem: 353 141<402.605 566.445>
LayerCount: 2
Fore
SplineSet
45 574 m 1
 73 643 130 717 258 717 c 0
 412 717 494 603 494 487 c 0
 494 384 423 338 287 229 c 1
 149 106 l 1
 208 106 l 1
 233 107 l 1
 425 107 l 1
 448 108 l 1
 494 108 l 1
 494 0 l 1
 54 0 l 1
 54 100 l 1
 207 254 l 1
 276 320 353 388 353 485 c 0
 353 551 315 617 242 617 c 0
 163 617 131 551 114 486 c 1
 45 574 l 1
EndSplineSet
Substitution2: "LGC old numerals subtable" twooldstyle
EndChar

StartChar: three
Encoding: 51 51 62
Width: 550
Flags: HW
TeX: 694 0
HStem: -22 95<150.646 322.354> 339 72<183 278.5> 628 89<179.51 317.656>
VStem: 332 140<465.034 612.567> 355 148<106.409 295.774>
LayerCount: 2
Fore
SplineSet
45 58 m 1
 62 151 l 1
 105 115 165 73 257 73 c 0
 347 73 355 140 355 197 c 2
 355 216 l 1xe8
 354 345 286 338 243 339 c 1
 183 339 l 1
 183 411 l 1
 220 414 232 415 244 417 c 0
 288 426 332 470 332 547 c 0
 332 587 325 628 261 628 c 0xf0
 167 628 123 557 113 543 c 1
 60 619 l 1
 106 675 170 717 264 717 c 0
 444 717 472 613 472 544 c 0xf0
 472 444 395 397 361 378 c 1
 394 370 503 343 503 203 c 0
 503 92 455 -22 263 -22 c 0
 176 -22 106 7 45 58 c 1
EndSplineSet
Substitution2: "LGC old numerals subtable" threeoldstyle
EndChar

StartChar: four
Encoding: 52 52 63
Width: 550
Flags: HW
TeX: 694 0
HStem: -0 21G<304 428> 152 95<135 304 428 518> 675 20G<262.112 428>
VStem: 309 119<0 152 247 592>
LayerCount: 2
Fore
SplineSet
30 152 m 1
 30 232 l 1
 31 247 l 1
 40 267 l 1
 273 695 l 1
 428 695 l 1
 428 247 l 1
 518 247 l 1
 518 152 l 1
 428 152 l 1
 428 -0 l 1
 304 -0 l 1
 304 152 l 1
 30 152 l 1
135 247 m 1
 309 247 l 1
 309 592 l 1
 293 538 185 340 135 247 c 1
EndSplineSet
Substitution2: "LGC old numerals subtable" fouroldstyle
EndChar

StartChar: five
Encoding: 53 53 64
Width: 550
Flags: HW
TeX: 694 0
HStem: -22 95<158.131 313.881> 379 73<224.965 326.815> 594 101<213 457>
VStem: 82 131<435 594> 82 102<296 336.153> 346 148<105.837 343.735>
LayerCount: 2
Fore
SplineSet
36 82 m 1
 89 169 l 1
 104 143 145 73 242 73 c 0
 340 73 346 137 346 217 c 0xf4
 346 316 345 379 282 379 c 0
 215 379 189 307 184 296 c 1
 82 296 l 1
 82 695 l 1xec
 457 695 l 1
 457 594 l 1
 213 594 l 1
 213 435 l 1
 233 444 252 452 287 452 c 0
 411 452 494 387 494 219 c 0
 494 26 367 -22 246 -22 c 0
 120 -22 57 53 36 82 c 1
EndSplineSet
Substitution2: "LGC old numerals subtable" fiveoldstyle
EndChar

StartChar: six
Encoding: 54 54 65
Width: 550
Flags: HW
TeX: 694 0
HStem: -22 94<224.644 337.744> 420 73<248.311 339.561> 628 89<255.666 427.285>
VStem: 45 142<143.059 524.479> 363 140<98.1174 387.411>
LayerCount: 2
Fore
SplineSet
45 342 m 0
 45 421 48 523 105 608 c 0
 154 682 237 717 335 717 c 0
 372 717 396 712 432 696 c 1
 432 604 l 1
 400 619 377 628 338 628 c 0
 265 628 230 590 217 568 c 0
 200 539 186 489 186 391 c 1
 207 441 247 493 321 493 c 0
 405 493 439 455 461 424 c 0
 500 368 503 314 503 250 c 2
 503 244 l 2
 503 189 503 127 467 71 c 0
 415 -10 345 -22 277 -22 c 0
 50 -22 45 222 45 342 c 0
187 253 m 0
 187 163 192 72 280 72 c 0
 372 72 362 165 363 240 c 1
 363 274 l 1
 361 346 366 420 282 420 c 0
 206 420 187 332 187 253 c 0
EndSplineSet
Substitution2: "LGC old numerals subtable" sixoldstyle
EndChar

StartChar: seven
Encoding: 55 55 66
Width: 550
Flags: HW
TeX: 694 0
HStem: -11 21G<142 284> 588 107<45 424>
VStem: 142 142<-11 165.94>
LayerCount: 2
Fore
SplineSet
45 587 m 1
 45 695 l 1
 503 695 l 1
 503 594 l 1
 358 422 284 201 284 -11 c 1
 142 -11 l 1
 142 214 238 433 424 588 c 1
 228 588 l 1
 205 587 l 1
 45 587 l 1
EndSplineSet
Substitution2: "LGC old numerals subtable" sevenoldstyle
EndChar

StartChar: eight
Encoding: 56 56 67
Width: 550
Flags: HW
TeX: 694 0
HStem: -22 95<210.002 338.104> 339 72<211.322 338.775> 628 89<209.217 339.418>
VStem: 45 140<99.6499 297.054> 60 128<438.045 606.853> 360 128<438.76 609.781> 364 139<99.6499 296.631>
LayerCount: 2
Fore
SplineSet
45 201 m 0xf2
 45 287 82 352 169 375 c 1
 140 387 60 410 60 523 c 0
 60 620 103 717 274 717 c 2
 275 717 l 2
 445 717 488 620 488 522 c 0xec
 488 407 400 384 379 375 c 1
 466 352 503 286 503 201 c 0
 503 89 457 -22 274 -22 c 0
 91 -22 45 89 45 201 c 0xf2
185 190 m 1xf2
 186 134 185 73 273 73 c 0
 364 73 363 137 364 198 c 1
 364 219 l 1
 363 267 365 339 274 339 c 0
 183 339 186 266 185 213 c 1
 185 190 l 1xf2
188 511 m 2
 188 457 196 411 273 411 c 0
 357 411 360 463 360 512 c 2
 360 530 l 2
 360 597 346 628 275 628 c 0xec
 192 628 189 584 188 529 c 1
 188 511 l 2
EndSplineSet
Substitution2: "LGC old numerals subtable" eightoldstyle
EndChar

StartChar: nine
Encoding: 57 57 68
Width: 550
Flags: HW
TeX: 694 0
HStem: -22 95<147.694 301.066> 202 73<210.347 301.083> 628 89<212.109 326.659>
VStem: 45 140<308.922 595.739> 362 141<166.622 305 323.686 550.827>
LayerCount: 2
Fore
SplineSet
45 443 m 0
 45 513 45 573 88 632 c 0
 139 702 201 717 276 717 c 0
 500 717 503 472 503 355 c 0
 503 252 493 123 412 45 c 0
 362 -3 292 -22 226 -22 c 0
 163 -22 124 -6 79 26 c 1
 127 110 l 1
 157 86 181 73 226 73 c 0
 275 73 315 95 335 131 c 0
 350 158 362 213 362 296 c 2
 362 305 l 1
 346 264 308 202 227 202 c 0
 142 202 107 241 86 273 c 0
 49 328 45 381 45 443 c 0
185 450 m 2
 185 444 186 438 186 432 c 2
 186 419 l 2
 186 341 187 275 266 275 c 0
 304 275 362 299 362 444 c 2
 362 459 l 2
 362 529 359 628 276 628 c 0
 186 628 187 559 185 482 c 1
 185 450 l 2
EndSplineSet
Substitution2: "LGC old numerals subtable" nineoldstyle
EndChar

StartChar: less
Encoding: 60 60 71
Width: 672
Flags: HW
TeX: 630 102
DStem2: 119 304 186 263 0.788055 0.615605<27.5599 530.61> 186 263 120 223 0.788055 -0.615605<0 502.51>
LayerCount: 2
Fore
SplineSet
91 263 m 1
 92 276 91 282 119 304 c 2
 512 611 l 2
 518 616 529 624 543 624 c 0
 561 624 579 611 579 589 c 0
 579 571 567 562 556 553 c 2
 186 263 l 1
 206 249 226 233 246 218 c 2
 556 -25 l 2
 564 -31 579 -42 579 -61 c 0
 579 -83 561 -97 543 -97 c 0
 531 -97 523 -92 513 -84 c 2
 120 223 l 2
 96 242 93 246 91 263 c 1
EndSplineSet
EndChar

StartChar: equal
Encoding: 61 61 72
Width: 672
Flags: HW
TeX: 423 -104
HStem: 109 72<63.8655 606.48> 346 73<64.0173 605.983>
LayerCount: 2
Fore
SplineSet
61 145 m 0
 61 181 98 180 104 181 c 1
 565 181 l 1
 572 180 609 181 609 145 c 0
 609 109 571 110 564 109 c 1
 105 109 l 1
 97 110 61 110 61 145 c 0
61 382 m 0
 61 418 99 418 106 419 c 1
 564 419 l 1
 571 418 609 418 609 382 c 0
 609 346 571 347 565 346 c 1
 104 346 l 1
 97 347 61 346 61 382 c 0
EndSplineSet
EndChar

StartChar: greater
Encoding: 62 62 73
Width: 672
Flags: HW
TeX: 630 102
DStem2: 157 611 114 552 0.788813 -0.614633<-30.4227 471.22> 484 264 158 -84 0.787082 0.616848<-502.441 0>
LayerCount: 2
Fore
SplineSet
91 -61 m 0
 91 -43 103 -33 114 -25 c 2
 484 264 l 1
 464 278 445 295 425 310 c 2
 114 552 l 2
 98 564 91 575 91 589 c 0
 91 611 110 624 128 624 c 0
 140 624 147 619 157 611 c 2
 551 304 l 2
 575 285 577 281 579 264 c 1
 578 251 579 246 551 224 c 2
 158 -84 l 2
 148 -92 140 -97 128 -97 c 0
 110 -97 91 -83 91 -61 c 0
EndSplineSet
EndChar

StartChar: question
Encoding: 63 63 74
Width: 519
Flags: HW
TeX: 694 0
HStem: 0 131<178 309> 633 73<155.193 308.922>
VStem: 178 131<0 131> 191 105<217 348.125> 321 136<497.899 621.91>
LayerCount: 2
Fore
SplineSet
60 657 m 1
 110 685 166 706 239 706 c 2
 248 706 l 2
 315 706 457 703 457 557 c 0
 457 469 402 441 386 428 c 0
 295 354 296 284 296 250 c 2
 296 217 l 1
 191 217 l 1xd8
 191 254 l 2
 191 291 193 376 278 473 c 0
 311 510 321 514 321 562 c 0
 321 622 301 633 247 633 c 0
 176 633 130 602 95 562 c 1
 60 657 l 1
EndSplineSet
Refer: 57 46 S 1 0 0 1 92 0 2
EndChar

StartChar: at
Encoding: 64 64 75
Width: 733
Flags: HW
TeX: 694 0
HStem: -11 72<313.326 544.774> 118 72<404.792 511.919> 504 73<403.663 492> 633 73<313.284 488.309>
VStem: 60 120<204.59 489.892> 245 120<232.364 458.11> 550 121<232.272 461.115>
LayerCount: 2
Fore
SplineSet
60 346 m 0
 60 531 133 706 424 706 c 0
 663 706 670 525 671 360 c 0
 671 302 667 221 609 167 c 0
 569 130 513 118 459 118 c 0
 288 118 245 227 245 331 c 2
 245 345 l 2
 245 414 252 576 456 577 c 1
 492 575 l 1
 523 571 l 1
 495 626 451 633 421 633 c 0
 351 633 280 610 236 554 c 0
 184 488 180 405 180 338 c 0
 180 119 301 61 428 61 c 0
 522 61 552 90 595 90 c 2
 671 90 l 1
 618 36 532 -11 422 -11 c 0
 239 -11 60 60 60 346 c 0
365 339 m 0
 365 291 372 190 457 190 c 0
 482 190 519 202 537 249 c 0
 549 282 550 314 550 354 c 0
 550 484 495 504 458 504 c 0
 426 504 395 487 379 446 c 0
 366 412 365 380 365 339 c 0
EndSplineSet
EndChar

StartChar: A
Encoding: 65 65 76
Width: 733
Flags: HW
TeX: 694 0
HStem: -0 21G<30 172.933 540.933 701> 150 87<249 465> 675 20G<265.036 465.964>
DStem2: 30 -0 166 -0 0.328837 0.944387<44.7218 203.479 295.835 644.886> 459 695 370 521 0.328837 -0.944387<85.4514 434.502 526.529 685.615>
AnchorPoint: "ogonek" 600 0 basechar 0
AnchorPoint: "below" 366 0 basechar 0
AnchorPoint: "above" 366 717 basechar 0
LayerCount: 2
Fore
SplineSet
30 -0 m 1
 272 695 l 1
 459 695 l 1
 701 -0 l 1
 548 -0 l 1
 495 150 l 1
 218 150 l 1
 166 -0 l 1
 30 -0 l 1
249 237 m 1
 465 237 l 1
 370 521 l 1
 357 569 l 1
 344 510 286 347 249 237 c 1
EndSplineSet
EndChar

StartChar: B
Encoding: 66 66 77
Width: 733
Flags: HW
TeX: 694 0
HStem: 0 87<233 482.974> 325 73<234 450.717> 608 87<234 456.075>
VStem: 91 142<87 325 398 608> 504 137<447.348 567.094> 532 139<129.88 268.148>
AnchorPoint: "below" 358 0 basechar 0
AnchorPoint: "above" 358 717 basechar 0
LayerCount: 2
Fore
SplineSet
91 0 m 1
 91 695 l 1
 348 695 l 2
 418 695 492 694 555 660 c 0
 631 619 641 547 641 514 c 0xf8
 641 393 517 369 494 363 c 1
 545 355 671 329 671 193 c 0xf4
 671 123 639 58 562 25 c 0
 504 0 440 0 378 0 c 2
 91 0 l 1
233 87 m 1
 362 87 l 2
 442 87 532 98 532 197 c 0xf4
 532 244 510 279 478 299 c 0
 438 323 390 325 345 325 c 2
 234 325 l 1
 233 290 l 1
 233 87 l 1
233 398 m 1xf8
 331 398 l 2
 395 398 452 405 483 447 c 0
 494 462 504 485 504 511 c 0
 504 549 482 602 369 607 c 1
 314 608 l 1
 234 608 l 1
 233 576 l 1
 233 398 l 1xf8
EndSplineSet
EndChar

StartChar: C
Encoding: 67 67 78
Width: 703
Flags: HW
TeX: 694 0
HStem: -22 100<324.148 559.47> 616 101<323.268 540.48>
VStem: 60 148<200.53 490.229>
AnchorPoint: "below" 445 0 basechar 0
AnchorPoint: "above" 431 717 basechar 0
LayerCount: 2
Fore
SplineSet
60 346 m 0
 60 643 234 717 431 717 c 0
 512 717 566 705 634 682 c 1
 611 551 l 1
 573 577 529 616 429 616 c 0
 216 616 208 428 208 348 c 2
 208 332 l 2
 208 204 252 78 431 78 c 0
 545 78 583 109 637 144 c 1
 646 33 l 1
 565 -10 526 -22 445 -22 c 0
 328 -22 60 -19 60 346 c 0
EndSplineSet
EndChar

StartChar: D
Encoding: 68 68 79
Width: 794
Flags: HW
TeX: 694 0
HStem: -0 87<236 477.637> 608 87<236 475.204>
VStem: 91 145<87 608> 587 145<196.069 497.79>
AnchorPoint: "below" 388 0 basechar 0
AnchorPoint: "above" 388 717 basechar 0
LayerCount: 2
Fore
SplineSet
91 -0 m 1
 91 695 l 1
 381 695 l 2
 447 695 531 690 603 644 c 0
 742 556 731 366 732 337 c 1
 731 66 575 0 382 -0 c 2
 91 -0 l 1
236 87 m 1
 339 87 l 1
 454 88 587 96 587 320 c 2
 587 332 l 2
 587 479 576 608 348 608 c 2
 236 608 l 1
 236 87 l 1
EndSplineSet
EndChar

StartChar: E
Encoding: 69 69 80
Width: 642
Flags: HW
TeX: 694 0
HStem: 0 107<239 595> 312 95<239 549> 587 105<239 580>
VStem: 91 148<107 312 407 590>
AnchorPoint: "ogonek" 343 0 basechar 0
AnchorPoint: "below" 343 0 basechar 0
AnchorPoint: "above" 343 717 basechar 0
LayerCount: 2
Fore
SplineSet
91 0 m 1
 91 692 l 1
 580 692 l 1
 580 587 l 1
 239 590 l 1
 239 407 l 1
 549 407 l 1
 549 312 l 1
 239 312 l 1
 239 107 l 1
 595 111 l 1
 595 0 l 1
 91 0 l 1
EndSplineSet
EndChar

StartChar: F
Encoding: 70 70 81
Width: 611
Flags: HW
TeX: 694 0
HStem: 0 21G<91 239> 299 95<239 519> 587 105<239 565>
VStem: 91 148<0 299 394 590>
AnchorPoint: "below" 328 0 basechar 0
AnchorPoint: "above" 328 717 basechar 0
LayerCount: 2
Fore
SplineSet
91 0 m 1
 91 692 l 1
 565 692 l 1
 565 587 l 1
 239 590 l 1
 239 394 l 1
 519 394 l 1
 519 299 l 1
 239 299 l 1
 239 0 l 1
 91 0 l 1
EndSplineSet
EndChar

StartChar: G
Encoding: 71 71 82
Width: 733
Flags: HW
TeX: 694 0
HStem: -22 100<326.165 520.913> 233 95<426 522> 617 100<324.274 539.756>
VStem: 60 148<207.394 485.357> 522 137<84.1793 233>
AnchorPoint: "below" 426 0 basechar 0
AnchorPoint: "above" 426 717 basechar 0
LayerCount: 2
Fore
SplineSet
60 348 m 0
 60 575 164 717 427 717 c 0
 516 717 573 702 649 668 c 1
 626 537 l 1
 583 572 537 617 428 617 c 0
 248 617 208 482 208 348 c 0
 208 205 253 78 430 78 c 0
 468 78 521 87 522 88 c 1
 522 233 l 1
 426 233 l 1
 426 328 l 1
 659 328 l 1
 659 26 l 1
 595 -1 519 -22 426 -22 c 0
 133 -22 60 157 60 348 c 0
EndSplineSet
EndChar

StartChar: H
Encoding: 72 72 83
Width: 794
Flags: HW
TeX: 694 0
HStem: 0 21G<91 239 554 702> 314 95<239 554> 675 20G<91 239 554 702>
VStem: 91 148<0 314 409 695> 554 148<0 314 409 695>
AnchorPoint: "below" 396 0 basechar 0
AnchorPoint: "above" 396 717 basechar 0
LayerCount: 2
Fore
SplineSet
91 0 m 1
 91 695 l 1
 239 695 l 1
 239 409 l 1
 554 409 l 1
 554 695 l 1
 702 695 l 1
 702 0 l 1
 554 0 l 1
 554 314 l 1
 239 314 l 1
 239 0 l 1
 91 0 l 1
EndSplineSet
EndChar

StartChar: I
Encoding: 73 73 84
Width: 331
Flags: HW
TeX: 694 0
HStem: 0 21G<91 239> 675 20G<91 239>
VStem: 91 148<0 695>
AnchorPoint: "ogonek" 165 0 basechar 0
AnchorPoint: "below" 165 0 basechar 0
AnchorPoint: "above" 165 717 basechar 0
LayerCount: 2
Fore
SplineSet
91 0 m 1
 91 695 l 1
 239 695 l 1
 239 0 l 1
 91 0 l 1
EndSplineSet
EndChar

StartChar: J
Encoding: 74 74 85
Width: 519
Flags: HW
TeX: 694 0
HStem: -22 97<109.786 258.757> 675 20G<282 427>
VStem: 282 145<101.241 695>
AnchorPoint: "below" 236 0 basechar 0
AnchorPoint: "above" 354 717 basechar 0
LayerCount: 2
Fore
SplineSet
45 19 m 1
 66 140 l 1
 79 121 113 75 183 75 c 0
 276 75 282 129 282 151 c 2
 282 695 l 1
 427 695 l 1
 427 155 l 2
 427 13 324 -22 233 -22 c 0
 177 -22 114 -12 45 19 c 1
EndSplineSet
EndChar

StartChar: K
Encoding: 75 75 86
Width: 764
Flags: HW
TeX: 694 0
HStem: 0 21G<91 221 553.982 717> 675 20G<91 221 521.875 701>
VStem: 91 130<0 218 376 695>
DStem2: 221 376 336 331 0.70932 0.704887<0 49.8519 174.302 452.551> 424 418 336 331 0.573988 -0.818864<20.7302 424.939>
AnchorPoint: "below" 404 0 basechar 0
AnchorPoint: "above" 404 717 basechar 0
LayerCount: 2
Fore
SplineSet
91 0 m 1
 91 695 l 1
 221 695 l 1
 221 376 l 1
 542 695 l 1
 701 695 l 1
 424 419 l 1
 424 418 l 1
 717 0 l 1
 568 0 l 1
 336 331 l 1
 221 218 l 1
 221 0 l 1
 91 0 l 1
EndSplineSet
EndChar

StartChar: L
Encoding: 76 76 87
Width: 581
Flags: HW
TeX: 694 0
HStem: 0 101<239 534> 675 20G<91 239>
VStem: 91 148<101 695>
AnchorPoint: "below" 312 0 basechar 0
AnchorPoint: "above" 312 717 basechar 0
LayerCount: 2
Fore
SplineSet
91 0 m 1
 91 695 l 1
 239 695 l 1
 239 101 l 1
 534 105 l 1
 534 0 l 1
 91 0 l 1
EndSplineSet
EndChar

StartChar: M
Encoding: 77 77 88
Width: 978
Flags: HW
TeX: 694 0
HStem: 0 21G<91 214 762 886> 675 20G<91 280.098 694.902 886>
VStem: 91 123<0 569> 762 124<0 569>
DStem2: 421 327 294 353 0.369835 -0.929097<-299.23 190.718> 554 327 687 369 0.375296 0.926905<-157.272 263.574>
AnchorPoint: "below" 488 0 basechar 0
AnchorPoint: "above" 488 717 basechar 0
LayerCount: 2
Fore
SplineSet
91 0 m 1
 91 695 l 1
 272 695 l 1
 421 327 l 1
 477 180 l 1
 487 148 l 1
 488 148 l 1
 498 180 l 1
 554 327 l 1
 703 695 l 1
 886 695 l 1
 886 0 l 1
 762 0 l 1
 762 569 l 1
 750 532 l 1
 687 369 l 1
 546 22 l 1
 428 22 l 1
 294 353 l 1
 252 460 225 524 214 569 c 1
 214 0 l 1
 91 0 l 1
EndSplineSet
EndChar

StartChar: N
Encoding: 78 78 89
Width: 794
Flags: HW
TeX: 694 0
HStem: 0 21G<91 214 499.686 702> 675 20G<91 293.261 578 702>
VStem: 91 123<0 574> 578 124<120 695>
DStem2: 283 695 214 574 0.456474 -0.889737<76.1615 646.258>
AnchorPoint: "below" 396 0 basechar 0
AnchorPoint: "above" 396 717 basechar 0
LayerCount: 2
Fore
SplineSet
91 0 m 1
 91 695 l 1
 283 695 l 1
 578 120 l 1
 578 695 l 1
 702 695 l 1
 702 0 l 1
 510 0 l 1
 214 574 l 1
 214 0 l 1
 91 0 l 1
EndSplineSet
EndChar

StartChar: O
Encoding: 79 79 90
Width: 794
Flags: HW
TeX: 694 0
HStem: -22 81<311.591 481.094> 639 78<307.275 486.054>
VStem: 60 148<182.623 504.793> 584 148<182.935 506.306>
AnchorPoint: "ogonek" 397 0 basechar 0
AnchorPoint: "below" 397 0 basechar 0
AnchorPoint: "above" 395 717 basechar 0
LayerCount: 2
Fore
SplineSet
60 326 m 2
 60 341 l 2
 60 443 68 717 395 717 c 0
 597 717 732 617 732 343 c 0
 732 154 665 -22 397 -22 c 0
 127 -22 60 151 60 326 c 2
208 349 m 2
 208 278 210 166 274 105 c 0
 306 74 352 59 396 59 c 0
 440 59 488 74 521 108 c 0
 583 171 584 283 584 359 c 2
 584 371 l 2
 584 456 580 598 449 632 c 0
 431 636 414 639 396 639 c 0
 355 639 306 627 271 594 c 0
 213 539 208 450 208 370 c 2
 208 349 l 2
EndSplineSet
EndChar

StartChar: P
Encoding: 80 80 91
Width: 703
Flags: HW
TeX: 694 0
HStem: 0 21G<91 239> 268 79<239 457.778> 608 87<236 458.75>
VStem: 91 148<0 268 347 608> 501 140<387.971 565.889>
AnchorPoint: "below" 343 0 basechar 0
AnchorPoint: "above" 343 717 basechar 0
LayerCount: 2
Fore
SplineSet
91 0 m 1
 91 695 l 1
 371 695 l 2
 454 695 536 685 590 626 c 0
 627 586 641 531 641 478 c 0
 641 270 450 268 375 268 c 2
 239 268 l 1
 239 0 l 1
 91 0 l 1
236 347 m 1
 349 347 l 2
 444 347 500 365 501 472 c 1
 501 481 l 2
 501 594 439 608 349 608 c 2
 236 608 l 1
 236 347 l 1
EndSplineSet
EndChar

StartChar: Q
Encoding: 81 81 92
Width: 794
Flags: HW
TeX: 694 111
HStem: -22 78<305.79 416> 639 78<307.92 482.76>
VStem: 60 145<183.356 504.375> 587 145<179.133 506.843>
AnchorPoint: "below" 396 -167 basechar 0
AnchorPoint: "above" 398 717 basechar 0
LayerCount: 2
Fore
SplineSet
60 342 m 0
 60 588 165 717 399 717 c 0
 668 717 732 532 732 343 c 0
 732 186 688 84 597 26 c 1
 701 -111 l 1
 527 -111 l 1
 466 -18 l 1
 431 -21 424 -22 396 -22 c 0
 127 -22 60 154 60 342 c 0
205 339 m 2
 205 249 207 93 349 61 c 0
 364 57 380 56 396 56 c 0
 403 56 409 56 416 57 c 1
 324 195 l 1
 468 195 l 1
 531 112 l 1
 532 112 l 1
 576 168 587 231 587 342 c 0
 587 445 578 550 507 604 c 0
 476 628 436 639 397 639 c 0
 350 639 297 622 263 583 c 0
 206 518 205 416 205 345 c 2
 205 339 l 2
EndSplineSet
EndChar

StartChar: R
Encoding: 82 82 93
Width: 703
Flags: HW
TeX: 694 0
HStem: 0 21G<91 236 511.617 671> 311 73<236 346> 608 87<236 464.125>
VStem: 91 145<0 311 384 608> 501 140<420.425 572.011>
DStem2: 483 321 346 311 0.505374 -0.8629<0 297.206>
AnchorPoint: "below" 343 0 basechar 0
AnchorPoint: "above" 343 717 basechar 0
LayerCount: 2
Fore
SplineSet
91 0 m 1
 91 695 l 1
 342 695 l 2
 407 695 474 694 535 666 c 0
 626 624 641 543 641 497 c 0
 641 400 577 339 483 321 c 1
 671 0 l 1
 523 0 l 1
 346 311 l 1
 236 311 l 1
 236 0 l 1
 91 0 l 1
236 384 m 1
 355 384 l 2
 438 384 501 395 501 496 c 0
 501 590 451 608 356 608 c 2
 236 608 l 1
 236 384 l 1
EndSplineSet
EndChar

StartChar: S
Encoding: 83 83 94
Width: 611
Flags: HW
TeX: 694 0
HStem: -22 109<185.819 387.296> 613 104<222.183 414.266>
VStem: 60 126<475.27 582.323> 423 126<121.698 241.914>
AnchorPoint: "below" 304 0 basechar 0
AnchorPoint: "above" 299 717 basechar 0
LayerCount: 2
Fore
SplineSet
48 47 m 1
 71 179 l 1
 115 144 185 87 304 87 c 0
 407 87 423 145 423 184 c 0
 423 234 384 265 351 277 c 0
 289 299 164 294 92 402 c 0
 74 428 60 464 60 509 c 0
 60 616 114 716 300 717 c 1
 304 717 l 2
 386 717 438 705 515 668 c 1
 492 537 l 1
 464 561 415 613 303 613 c 0
 203 613 186 561 186 527 c 0
 186 432 323 441 402 409 c 0
 479 378 549 306 549 199 c 0
 549 88 500 -22 304 -22 c 0
 210 -22 126 3 48 47 c 1
EndSplineSet
EndChar

StartChar: T
Encoding: 84 84 95
Width: 733
Flags: HW
TeX: 694 0
HStem: 0 21G<292 440> 584 105<39 292 440 693>
VStem: 292 148<0 588>
AnchorPoint: "below" 366 0 basechar 0
AnchorPoint: "above" 366 717 basechar 0
LayerCount: 2
Fore
SplineSet
39 584 m 1
 39 689 l 1
 693 689 l 1
 693 584 l 1
 440 588 l 1
 440 0 l 1
 292 0 l 1
 292 588 l 1
 39 584 l 1
EndSplineSet
EndChar

StartChar: U
Encoding: 85 85 96
Width: 764
Flags: HW
TeX: 694 0
HStem: -22 86<291.019 481.382> 675 20G<91 239 534 671>
VStem: 91 148<117.939 695> 534 137<117.847 695>
AnchorPoint: "ogonek" 386 0 basechar 0
AnchorPoint: "below" 386 0 basechar 0
AnchorPoint: "above" 381 717 basechar 0
LayerCount: 2
Fore
SplineSet
91 246 m 2
 91 695 l 1
 239 695 l 1
 239 230 l 2
 239 151 242 64 384 64 c 0
 532 64 534 156 534 232 c 2
 534 695 l 1
 671 695 l 1
 671 242 l 2
 671 100 617 -22 386 -22 c 0
 133 -22 91 110 91 246 c 2
EndSplineSet
EndChar

StartChar: V
Encoding: 86 86 97
Width: 733
Flags: HW
TeX: 694 0
ItalicCorrection: 15
HStem: 0 21G<263.633 468.367> 675 20G<15 177.302 569.693 717>
DStem2: 170 695 15 695 0.345643 -0.938366<0 605.38> 440 320 461 0 0.345643 0.938366<-202.497 399.24>
AnchorPoint: "below" 366 0 basechar 0
AnchorPoint: "above" 366 717 basechar 0
LayerCount: 2
Fore
SplineSet
15 695 m 1
 170 695 l 1
 285 380 l 2
 340 227 359 177 374 125 c 1
 393 193 417 256 440 320 c 2
 577 695 l 1
 717 695 l 1
 461 0 l 1
 271 0 l 1
 15 695 l 1
EndSplineSet
EndChar

StartChar: W
Encoding: 87 87 98
Width: 1039
Flags: HW
TeX: 694 0
ItalicCorrection: 15
HStem: -0 21G<197.59 371.331 660.617 840.41> 675 20G<15 152.312 435.652 610.323 898.643 1023>
DStem2: 147 695 15 695 0.261119 -0.965307<0 588.87> 341 321 507 529 0.258306 0.966063<-161.746 284.787> 605 695 516 569 0.254493 -0.967075<99.2015 589.406> 755 125 835 -0 0.261119 0.965307<0 589.132>
AnchorPoint: "below" 518 0 basechar 0
AnchorPoint: "above" 518 717 basechar 0
LayerCount: 2
Fore
SplineSet
15 695 m 1
 147 695 l 1
 266 247 l 1
 289 152 l 1
 295 125 l 1
 302 164 l 1
 341 321 l 1
 441 695 l 1
 605 695 l 1
 712 293 l 2
 727 237 743 181 755 125 c 1
 761 161 776 215 799 303 c 2
 904 695 l 1
 1023 695 l 1
 835 -0 l 1
 666 -0 l 1
 564 379 l 2
 547 442 531 505 516 569 c 1
 507 529 l 1
 366 -0 l 1
 203 -0 l 1
 15 695 l 1
EndSplineSet
EndChar

StartChar: X
Encoding: 88 88 99
Width: 733
Flags: HW
TeX: 694 0
HStem: 0 21G<15 195.487 526.13 717> 675 20G<31 221.519 489.962 671>
DStem2: 15 0 182 0 0.575435 0.817847<96.0977 410.832 595.666 849.792> 207 695 31 695 0.591615 -0.806221<0 257.028 439.825 757.331>
AnchorPoint: "below" 366 0 basechar 0
AnchorPoint: "above" 366 717 basechar 0
LayerCount: 2
Fore
SplineSet
15 0 m 1
 283 369 l 1
 31 695 l 1
 207 695 l 1
 358 487 l 1
 504 695 l 1
 671 695 l 1
 434 368 l 1
 717 0 l 1
 540 0 l 1
 359 261 l 1
 358 261 l 1
 182 0 l 1
 15 0 l 1
EndSplineSet
EndChar

StartChar: Y
Encoding: 89 89 100
Width: 733
Flags: HW
TeX: 694 0
ItalicCorrection: 27
HStem: 0 21G<293 438> 675 20G<2 248.5 509 728>
VStem: 293 145<0 277>
AnchorPoint: "below" 364 0 basechar 0
AnchorPoint: "above" 364 717 basechar 0
LayerCount: 2
Fore
SplineSet
2 695 m 1
 179 695 l 1
 318 494 359 434 374 403 c 1
 387 434 449 522 569 695 c 1
 728 695 l 1
 438 278 l 1
 438 0 l 1
 293 0 l 1
 293 263 l 1
 291 277 l 1
 281 295 l 1
 2 695 l 1
EndSplineSet
EndChar

StartChar: Z
Encoding: 90 90 101
Width: 672
Flags: HW
TeX: 694 0
HStem: -0 103<245 616> 595 100<75 426>
DStem2: 73 86 245 101 0.567188 0.823588<109.91 622.718>
AnchorPoint: "below" 338 0 basechar 0
AnchorPoint: "above" 338 717 basechar 0
LayerCount: 2
Fore
SplineSet
60 -0 m 1
 60 18 60 35 60 53 c 0
 60 69 65 74 73 86 c 2
 426 599 l 1
 75 595 l 1
 75 695 l 1
 610 695 l 1
 610 631 l 1
 245 101 l 1
 363 103 l 1
 392 103 l 1
 616 105 l 1
 616 -0 l 1
 60 -0 l 1
EndSplineSet
EndChar

StartChar: bracketleft
Encoding: 91 91 102
Width: 343
Flags: HW
TeX: 750 222
HStem: -222 72<218 317> 678 72<218 317>
VStem: 84 233<-222 -150 678 750> 84 134<-150 678>
LayerCount: 2
Fore
SplineSet
84 -222 m 1xe0
 84 750 l 1
 317 750 l 1
 317 678 l 1xe0
 218 678 l 1
 218 -150 l 1xd0
 317 -150 l 1
 317 -222 l 1
 84 -222 l 1xe0
EndSplineSet
EndChar

StartChar: backslash
Encoding: 92 92 103
Width: 550
Flags: HW
TeX: 750 222
DStem2: 136 713 68 685 0.366689 -0.930343<-27.9526 964.913>
LayerCount: 2
Fore
SplineSet
61 714 m 0
 61 735 79 750 96 750 c 0
 122 750 131 726 136 713 c 2
 486 -175 l 2
 487 -179 487 -182 487 -186 c 0
 487 -204 472 -222 451 -222 c 0
 425 -222 417 -199 410 -180 c 2
 68 685 l 2
 65 694 61 703 61 714 c 0
EndSplineSet
EndChar

StartChar: bracketright
Encoding: 93 93 104
Width: 343
Flags: HW
TeX: 750 222
HStem: -222 72<24 124> 678 72<24 124>
VStem: 24 233<-222 -150 678 750> 124 133<-150 678>
LayerCount: 2
Fore
SplineSet
24 -150 m 1xe0
 124 -150 l 1
 124 678 l 1xd0
 24 678 l 1
 24 750 l 1
 257 750 l 1
 257 -222 l 1
 24 -222 l 1
 24 -150 l 1xe0
EndSplineSet
EndChar

StartChar: asciicircum
Encoding: 94 94 105
Width: 672
Flags: HW
TeX: 694 0
HStem: 472 148
LayerCount: 2
Fore
SplineSet
169 472 m 1
 281 620 l 1
 390 620 l 1
 502 472 l 1
 429 472 l 1
 335 558 l 1
 242 472 l 1
 169 472 l 1
EndSplineSet
EndChar

StartChar: underscore
Encoding: 95 95 106
Width: 856
Flags: HW
TeX: 0 338
HStem: -339 84<97.2226 756.777>
LayerCount: 2
Fore
SplineSet
92 -297 m 0
 92 -286 97 -255 141 -255 c 2
 713 -255 l 2
 757 -255 762 -286 762 -297 c 0
 762 -309 757 -339 710 -339 c 2
 142 -339 l 2
 97 -339 92 -311 92 -297 c 0
EndSplineSet
EndChar

StartChar: a
Encoding: 97 97 108
Width: 525
Flags: HW
TeX: 472 0
HStem: -11 73<127 262.915> 0 21G<330 464> 229 41<226.093 328> 422 67<160.567 307.557>
VStem: 30 132<80.7037 182.156> 328 136<0 69 93.7098 229 268.984 401.884>
AnchorPoint: "ogonek" 397 0 basechar 0
AnchorPoint: "affricate-below" 525 -167 basechar 0
AnchorPoint: "affricate-above" 525 695 basechar 0
AnchorPoint: "below" 260 0 basechar 0
AnchorPoint: "above" 260 489 basechar 0
LayerCount: 2
Fore
SplineSet
30 129 m 0
 30 261 254 266 328 270 c 1
 328 311 l 1
 327 343 332 422 256 422 c 0
 161 422 114 370 90 346 c 1
 82 446 l 1
 142 476 189 489 260 489 c 0
 416 489 464 420 464 315 c 2
 464 0 l 1
 330 0 l 1x7c
 330 69 l 1
 295 16 232 -11 169 -11 c 0
 85 -11 30 60 30 129 c 0
162 131 m 0xbc
 162 94 190 62 231 62 c 0
 262 62 328 79 328 154 c 2
 328 229 l 1
 270 225 162 212 162 131 c 0xbc
EndSplineSet
EndChar

StartChar: b
Encoding: 98 98 109
Width: 561
Flags: HW
TeX: 694 0
HStem: -11 73<240.271 347.115> 0 21G<60 197> 411 72<253.417 437.5> 675 20G<60 194>
VStem: 60 137<0 44 78.7013 393.08 424 695> 386 137<102.53 371.133>
AnchorPoint: "affricate-below" 561 -167 basechar 0
AnchorPoint: "affricate-above" 561 695 basechar 0
AnchorPoint: "below" 292 0 basechar 0
AnchorPoint: "above" 292 695 basechar 0
LayerCount: 2
Fore
SplineSet
60 0 m 1x7c
 60 695 l 1
 194 695 l 1
 194 424 l 1
 234 456 285 483 354 483 c 0
 521 483 523 306 523 239 c 2
 523 233 l 2
 523 167 515 94 465 42 c 0
 434 9 383 -11 325 -11 c 0xbc
 267 -11 230 12 197 44 c 1
 197 0 l 1
 60 0 l 1x7c
197 97 m 1
 206 89 227 62 274 62 c 0
 382 62 386 146 386 222 c 2
 386 241 l 2xbc
 386 322 386 411 285 411 c 0
 248 411 223 398 197 378 c 1
 197 97 l 1
EndSplineSet
EndChar

StartChar: c
Encoding: 99 99 110
Width: 489
Flags: HW
TeX: 472 0
HStem: -11 78<214.887 379.963> 411 78<212.795 380.711>
VStem: 36 137<111.497 361.594>
AnchorPoint: "affricate-below" 489 -167 basechar 0
AnchorPoint: "affricate-above" 489 695 basechar 0
AnchorPoint: "below" 275 0 basechar 0
AnchorPoint: "above" 279 489 basechar 0
LayerCount: 2
Fore
SplineSet
36 237 m 0
 36 439 150 489 279 489 c 0
 357 489 389 478 451 446 c 1
 435 351 l 1
 393 383 368 411 280 411 c 0
 180 411 175 326 173 257 c 1
 173 228 l 2
 173 145 185 67 278 67 c 0
 370 67 423 112 449 133 c 1
 457 35 l 1
 399 5 348 -11 275 -11 c 0
 84 -11 36 107 36 237 c 0
EndSplineSet
EndChar

StartChar: d
Encoding: 100 100 111
Width: 561
Flags: HW
TeX: 694 0
HStem: -11 72<208.777 306.895> 0 21G<362 499> 411 72<212.118 314.751> 675 20G<365 499>
VStem: 36 137<97.8058 368.411> 362 137<0 52 83.01 396.516 428 695>
AnchorPoint: "affricate-below" 561 -167 basechar 0
AnchorPoint: "affricate-above" 561 695 basechar 0
AnchorPoint: "below" 268 0 basechar 0
AnchorPoint: "above" 268 695 basechar 0
LayerCount: 2
Fore
SplineSet
36 237 m 0
 36 321 48 397 105 445 c 0
 137 472 179 483 220 483 c 0
 284 483 330 458 365 428 c 1
 365 695 l 1
 499 695 l 1
 499 0 l 1
 362 0 l 1x7c
 362 52 l 1
 325 16 283 -11 219 -11 c 0
 189 -11 110 -4 68 72 c 0
 43 118 36 171 36 237 c 0
173 233 m 0
 173 174 173 125 197 94 c 0
 215 71 244 61 273 61 c 0
 327 61 355 96 362 103 c 1
 362 382 l 1
 337 401 316 411 285 411 c 0xbc
 173 411 173 319 173 233 c 0
EndSplineSet
EndChar

StartChar: e
Encoding: 101 101 112
Width: 511
Flags: HW
TeX: 472 0
HStem: -11 73<215.571 391.645> 250 54<162 366> 416 73<208.152 328.31>
VStem: 30 128<123.736 250 304 355.071>
AnchorPoint: "ogonek" 282 0 basechar 0
AnchorPoint: "affricate-below" 511 -167 basechar 0
AnchorPoint: "affricate-above" 511 695 basechar 0
AnchorPoint: "below" 282 0 basechar 0
AnchorPoint: "above" 273 489 basechar 0
LayerCount: 2
Fore
SplineSet
30 240 m 0
 30 488 210 489 273 489 c 0
 457 489 479 359 479 250 c 1
 158 250 l 1
 158 183 161 62 289 62 c 0
 371 62 429 100 466 129 c 1
 473 38 l 1
 439 20 378 -11 282 -11 c 0
 153 -11 30 39 30 240 c 0
162 304 m 1
 366 304 l 1
 357 397 308 416 270 416 c 0
 184 416 167 331 162 304 c 1
EndSplineSet
EndChar

StartChar: f
Encoding: 102 102 113
Width: 336
Flags: HW
TeX: 694 0
ItalicCorrection: 76
HStem: 0 21G<86 219> 400 72<30 86 219 315> 633 73<228.86 359.448>
VStem: 86 133<0 400 472 621.554>
AnchorPoint: "affricate-below" 336 -167 basechar 0
AnchorPoint: "affricate-above" 336 695 basechar 0
AnchorPoint: "above" 293 695 basechar 0
AnchorPoint: "below" 152 0 basechar 0
LayerCount: 2
Fore
SplineSet
30 400 m 1
 30 472 l 1
 86 472 l 1
 86 540 l 2
 86 673 173 706 293 706 c 0
 317 706 342 704 381 695 c 1
 381 594 l 1
 354 618 332 633 288 633 c 0
 220 633 216 591 216 567 c 2
 216 472 l 1
 315 472 l 1
 315 400 l 1
 219 400 l 1
 219 0 l 1
 86 0 l 1
 86 400 l 1
 30 400 l 1
EndSplineSet
EndChar

StartChar: g
Encoding: 103 103 114
Width: 561
Flags: HW
TeX: 472 166
HStem: -190 73<155.702 330.836> 24 73<210.75 301.884> 411 72<221.291 316.783>
VStem: 36 137<136.967 353.8> 365 134<-78.4336 121 149.669 386.312 413 483>
AnchorPoint: "affricate-below" 561 -167 basechar 0
AnchorPoint: "affricate-above" 561 695 basechar 0
AnchorPoint: "below" 265 -167 basechar 0
AnchorPoint: "above" 268 489 basechar 0
LayerCount: 2
Fore
SplineSet
36 236 m 0
 36 335 58 483 238 483 c 0
 299 483 334 455 365 413 c 1
 365 483 l 1
 499 483 l 1
 499 9 l 2
 499 -177 366 -190 265 -190 c 0
 187 -190 137 -171 76 -139 c 1
 76 -47 l 1
 121 -80 171 -117 270 -117 c 0
 363 -117 362 -31 362 11 c 2
 362 121 l 1
 342 75 302 24 229 24 c 0
 133 24 36 67 36 236 c 0
173 238 m 0
 173 177 185 97 272 97 c 0
 335 97 361 165 362 250 c 1
 365 250 l 1
 365 322 l 2
 365 328 366 333 366 338 c 0
 366 373 331 411 285 411 c 0
 220 411 173 365 173 238 c 0
EndSplineSet
EndChar

StartChar: h
Encoding: 104 104 115
Width: 561
Flags: HW
TeX: 694 0
HStem: 0 21G<59 196 364 500> 411 72<269.099 424> 675 20G<59 193>
VStem: 59 134<0 356.235 379 695> 364 136<0 396.638>
AnchorPoint: "affricate-below" 561 -167 basechar 0
AnchorPoint: "affricate-above" 561 695 basechar 0
AnchorPoint: "below" 280 0 basechar 0
AnchorPoint: "above" 280 695 basechar 0
LayerCount: 2
Fore
SplineSet
59 0 m 1
 59 695 l 1
 193 695 l 1
 193 379 l 1
 211 417 258 483 354 483 c 0
 494 483 501 404 501 314 c 0
 501 300 500 287 500 273 c 2
 500 0 l 1
 364 0 l 1
 364 327 l 2
 364 368 358 411 296 411 c 0
 228 411 200 342 196 291 c 1
 196 0 l 1
 59 0 l 1
EndSplineSet
EndChar

StartChar: i
Encoding: 105 105 116
Width: 256
Flags: HW
TeX: 694 0
HStem: 0 21<60 194> 452 20<60 194> 573 122<60 194>
VStem: 60 134<0 472 573 695>
AnchorPoint: "above" 127 675 basechar 0
AnchorPoint: "ogonek" 127 0 basechar 0
AnchorPoint: "affricate-below" 256 -167 basechar 0
AnchorPoint: "affricate-above" 256 695 basechar 0
AnchorPoint: "below" 127 0 basechar 0
LayerCount: 2
Fore
SplineSet
60 573 m 1
 60 695 l 1
 194 695 l 1
 194 573 l 1
 60 573 l 1
EndSplineSet
Refer: 36 305 S 1 0 0 1 0 0 3
EndChar

StartChar: j
Encoding: 106 106 117
Width: 286
Flags: HW
TeX: 694 166
HStem: -178 85<-47.9571 87.0773> 452 20G<92 226> 573 122<92 226>
VStem: 92 134<-87.041 472 573 695>
AnchorPoint: "affricate-below" 286 -167 basechar 0
AnchorPoint: "affricate-above" 286 695 basechar 0
AnchorPoint: "below" 112 -167 basechar 0
LayerCount: 2
Fore
SplineSet
-70 -148 m 1
 -49 -76 l 1
 -21 -88 -4 -93 26 -93 c 0
 81 -93 92 -78 92 -55 c 2
 92 472 l 1
 226 472 l 1
 226 -34 l 1
 225 -79 232 -178 78 -178 c 0
 19 -178 -29 -165 -70 -148 c 1
92 573 m 1
 92 695 l 1
 226 695 l 1
 226 573 l 1
 92 573 l 1
EndSplineSet
EndChar

StartChar: k
Encoding: 107 107 118
Width: 531
Flags: HW
TeX: 694 0
HStem: 0 21G<68 183 362.603 511> 452 20G<315.897 487> 675 20G<68 186>
VStem: 68 118<0 155 316 695>
DStem2: 315 293 236 209 0.556009 -0.831176<25.8941 277.451>
AnchorPoint: "affricate-below" 531 -167 basechar 0
AnchorPoint: "affricate-above" 531 695 basechar 0
AnchorPoint: "below" 290 0 basechar 0
AnchorPoint: "above" 290 695 basechar 0
LayerCount: 2
Fore
SplineSet
68 0 m 1
 68 695 l 1
 186 695 l 1
 186 316 l 1
 335 472 l 1
 487 472 l 1
 315 293 l 1
 511 0 l 1
 376 0 l 1
 236 209 l 1
 183 155 l 1
 183 0 l 1
 68 0 l 1
EndSplineSet
EndChar

StartChar: l
Encoding: 108 108 119
Width: 256
Flags: HW
TeX: 694 0
HStem: 0 21G<60 194> 675 20G<60 194>
VStem: 60 134<0 695>
AnchorPoint: "affricate-below" 256 -167 basechar 0
AnchorPoint: "affricate-above" 256 695 basechar 0
AnchorPoint: "below" 127 0 basechar 0
AnchorPoint: "above" 127 695 basechar 0
LayerCount: 2
Fore
SplineSet
60 0 m 1
 60 695 l 1
 194 695 l 1
 194 0 l 1
 60 0 l 1
EndSplineSet
EndChar

StartChar: m
Encoding: 109 109 120
Width: 867
Flags: HW
TeX: 472 0
HStem: 0 21G<59 196 364 501 670 806> 411 72<269.882 414.411 573.223 727.911>
VStem: 59 137<0 363.321 373 478> 364 137<0 362.915> 670 136<0 396.891>
AnchorPoint: "affricate-below" 867 -167 basechar 0
AnchorPoint: "affricate-above" 867 695 basechar 0
AnchorPoint: "below" 432 0 basechar 0
AnchorPoint: "above" 432 489 basechar 0
LayerCount: 2
Fore
SplineSet
59 0 m 1
 59 478 l 1
 190 478 l 1
 190 415 l 1
 191 373 l 1
 209 414 256 483 354 483 c 0
 479 483 488 422 499 379 c 1
 517 417 563 484 659 484 c 0
 800 484 807 404 807 314 c 0
 807 300 806 287 806 273 c 2
 806 0 l 1
 670 0 l 1
 670 327 l 2
 670 368 665 411 602 411 c 0
 533 411 505 341 501 291 c 1
 501 0 l 1
 364 0 l 1
 364 327 l 2
 364 368 359 411 296 411 c 0
 228 411 200 342 196 291 c 1
 196 0 l 1
 59 0 l 1
EndSplineSet
EndChar

StartChar: n
Encoding: 110 110 121
Width: 561
Flags: HW
TeX: 472 0
HStem: 0 21G<59 196 364 500> 411 72<268.362 421.703>
VStem: 59 137<0 363.321 373 478> 364 136<0 396.942>
AnchorPoint: "affricate-below" 561 -167 basechar 0
AnchorPoint: "affricate-above" 561 695 basechar 0
AnchorPoint: "below" 280 0 basechar 0
AnchorPoint: "above" 280 489 basechar 0
LayerCount: 2
Fore
SplineSet
59 0 m 1
 59 478 l 1
 190 478 l 1
 190 415 l 1
 191 373 l 1
 209 415 256 483 354 483 c 0
 494 483 501 404 501 315 c 0
 501 302 500 287 500 274 c 2
 500 0 l 1
 364 0 l 1
 364 327 l 2
 364 368 358 411 296 411 c 0
 228 411 200 342 196 291 c 1
 196 0 l 1
 59 0 l 1
EndSplineSet
EndChar

StartChar: o
Encoding: 111 111 122
Width: 550
Flags: HW
TeX: 472 0
HStem: -11 78<204.572 342.413> 416 73<204.479 342.036>
VStem: 30 137<111.057 360.16> 382 136<109.508 360.625>
AnchorPoint: "ogonek" 275 0 basechar 0
AnchorPoint: "affricate-below" 550 -167 basechar 0
AnchorPoint: "affricate-above" 550 695 basechar 0
AnchorPoint: "below" 275 0 basechar 0
AnchorPoint: "above" 273 489 basechar 0
LayerCount: 2
Fore
SplineSet
30 232 m 0
 30 438 149 489 273 489 c 0
 469 489 518 365 518 231 c 0
 518 106 469 -11 275 -11 c 0
 146 -11 30 38 30 232 c 0
167 260 m 0
 168 169 161 67 275 67 c 0
 374 67 382 149 382 227 c 2
 382 258 l 1
 381 321 382 416 274 416 c 0
 173 416 167 337 167 260 c 0
EndSplineSet
EndChar

StartChar: p
Encoding: 112 112 123
Width: 561
Flags: HW
TeX: 472 166
HStem: -167 21G<60 197> -11 73<240.813 337.264> 405 78<258.586 405.5> 452 20G<60 194>
VStem: 60 137<-167 44 77.4786 388 422 472> 386 137<117.744 354.989>
AnchorPoint: "affricate-below" 561 -167 basechar 0
AnchorPoint: "affricate-above" 561 695 basechar 0
AnchorPoint: "below" 291 -167 basechar 0
AnchorPoint: "above" 291 489 basechar 0
LayerCount: 2
Fore
SplineSet
60 -167 m 1
 60 472 l 1
 194 472 l 1xdc
 194 422 l 1
 235 455 290 483 364 483 c 0
 447 483 492 429 511 355 c 0
 520 318 523 279 523 241 c 0
 523 156 510 77 451 29 c 0
 413 -2 363 -11 326 -11 c 0
 268 -11 230 12 197 44 c 1
 197 -167 l 1
 60 -167 l 1
197 96 m 1
 203 90 227 62 273 62 c 0
 311 62 343 80 361 110 c 0
 385 151 386 197 386 235 c 2
 386 247 l 2xec
 386 295 380 405 283 405 c 0
 239 405 213 385 197 374 c 1
 197 96 l 1
EndSplineSet
EndChar

StartChar: q
Encoding: 113 113 124
Width: 561
Flags: HW
TeX: 472 166
HStem: -167 21G<362 499> -11 73<215.718 308.33> 405 78<221.899 313.127>
VStem: 36 137<112.056 350.602> 365 134<-167 53 87.2368 380.067 411 483>
AnchorPoint: "affricate-below" 561 -167 basechar 0
AnchorPoint: "affricate-above" 561 695 basechar 0
AnchorPoint: "below" 268 -167 basechar 0
AnchorPoint: "above" 268 489 basechar 0
LayerCount: 2
Fore
SplineSet
36 235 m 0
 36 413 115 483 234 483 c 0
 313 483 348 433 365 411 c 1
 365 483 l 1
 499 483 l 1
 499 -167 l 1
 362 -167 l 1
 362 53 l 1
 327 14 278 -11 222 -11 c 0
 176 -11 124 4 90 42 c 0
 42 96 36 176 36 235 c 0
173 235 m 0
 173 148 190 62 275 62 c 0
 316 62 343 83 365 108 c 1
 365 334 l 2
 365 369 329 405 284 405 c 0
 255 405 211 393 188 338 c 0
 175 306 173 270 173 235 c 0
EndSplineSet
EndChar

StartChar: r
Encoding: 114 114 125
Width: 372
Flags: HW
TeX: 472 0
ItalicCorrection: 15
HStem: 0 21G<60 194> 381 102<278.106 356>
VStem: 60 134<0 315.249 357 478>
AnchorPoint: "affricate-below" 372 -167 basechar 0
AnchorPoint: "affricate-above" 372 695 basechar 0
AnchorPoint: "below" 127 0 basechar 0
AnchorPoint: "above" 208 489 basechar 0
LayerCount: 2
Fore
SplineSet
60 0 m 1
 60 478 l 1
 188 478 l 1
 188 403 l 1
 189 357 l 1
 206 402 254 480 356 483 c 1
 356 381 l 1
 247 379 199 311 194 260 c 1
 194 0 l 1
 60 0 l 1
EndSplineSet
EndChar

StartChar: s
Encoding: 115 115 126
Width: 422
Flags: HW
TeX: 472 0
HStem: -11 79<122.444 283.706> 417 72<144.266 307.799>
VStem: 36 100<328.125 407.061> 296 100<82.4437 164.673>
AnchorPoint: "affricate-below" 422 -167 basechar 0
AnchorPoint: "affricate-above" 422 695 basechar 0
AnchorPoint: "below" 218 0 basechar 0
AnchorPoint: "above" 214 489 basechar 0
LayerCount: 2
Fore
SplineSet
30 36 m 1
 49 146 l 1
 62 133 116 68 217 68 c 0
 283 68 296 99 296 124 c 0
 296 177 224 185 212 187 c 0
 200 189 36 205 36 342 c 0
 36 459 115 489 214 489 c 0
 278 489 318 482 380 456 c 1
 363 360 l 1
 311 399 274 417 202 417 c 0
 144 417 136 387 136 367 c 0
 136 317 187 315 258 300 c 0
 323 287 396 235 396 143 c 0
 396 20 316 -11 218 -11 c 0
 146 -11 89 5 30 36 c 1
EndSplineSet
EndChar

StartChar: t
Encoding: 116 116 127
Width: 404
Flags: HW
TeX: 607 0
HStem: -11 78<134.5 318.47> 400 72<20 87 218 355>
VStem: 87 131<76.6553 400 472 607>
AnchorPoint: "affricate-below" 404 -167 basechar 0
AnchorPoint: "affricate-above" 404 695 basechar 0
AnchorPoint: "below" 164 0 basechar 0
AnchorPoint: "above" 152 607 basechar 0
LayerCount: 2
Fore
SplineSet
20 400 m 1
 20 472 l 1
 90 472 l 1
 90 607 l 1
 218 607 l 1
 218 472 l 1
 355 472 l 1
 355 400 l 1
 218 400 l 1
 218 158 l 2
 218 90 235 67 269 67 c 0
 311 67 339 90 355 103 c 1
 373 33 l 1
 318 7 262 -11 187 -11 c 0
 82 -11 87 101 87 161 c 2
 87 400 l 1
 20 400 l 1
EndSplineSet
EndChar

StartChar: u
Encoding: 117 117 128
Width: 561
Flags: HW
TeX: 472 0
HStem: -11 61<138.129 296.218> 0 21G<367 500> 452 20G<59 196 364 500>
VStem: 59 137<57.5376 472> 364 136<0 80 94.5801 472>
AnchorPoint: "ogonek" 433 0 basechar 0
AnchorPoint: "affricate-below" 561 -167 basechar 0
AnchorPoint: "affricate-above" 561 695 basechar 0
AnchorPoint: "below" 280 0 basechar 0
AnchorPoint: "above" 280 489 basechar 0
LayerCount: 2
Fore
SplineSet
59 130 m 2
 59 472 l 1
 196 472 l 1
 196 130 l 1
 197 70 193 50 259 50 c 0xb8
 306 50 364 82 364 175 c 2
 364 472 l 1
 500 472 l 1
 500 0 l 1
 367 0 l 1x78
 367 46 l 1
 366 80 l 1
 349 48 302 -11 206 -11 c 0xb8
 75 -11 59 47 59 130 c 2
EndSplineSet
EndChar

StartChar: v
Encoding: 118 118 129
Width: 500
Flags: HW
TeX: 472 0
ItalicCorrection: 15
HStem: 0 21G<157.686 341.314> 452 20G<15 145.31 356.69 484>
DStem2: 139 472 15 472 0.301035 -0.953613<0 372.249> 251 117 335 0 0.301035 0.953613<0 372.249>
AnchorPoint: "affricate-below" 500 -167 basechar 0
AnchorPoint: "affricate-above" 500 695 basechar 0
AnchorPoint: "below" 250 0 basechar 0
AnchorPoint: "above" 249 489 basechar 0
LayerCount: 2
Fore
SplineSet
15 472 m 1
 139 472 l 1
 251 117 l 1
 363 472 l 1
 484 472 l 1
 335 0 l 1
 164 0 l 1
 15 472 l 1
EndSplineSet
EndChar

StartChar: w
Encoding: 119 119 130
Width: 744
Flags: HW
TeX: 472 0
ItalicCorrection: 15
HStem: 0 21G<137.576 286.5 413 605.466> 452 20G<15 142.487 315.631 421.465 603.592 729>
DStem2: 137 472 15 472 0.261733 -0.96514<0 351.524> 513 117 600 0 0.263636 0.964622<0 367.75>
AnchorPoint: "affricate-below" 744 -167 basechar 0
AnchorPoint: "affricate-above" 744 695 basechar 0
AnchorPoint: "below" 372 0 basechar 0
AnchorPoint: "above" 372 489 basechar 0
LayerCount: 2
Fore
SplineSet
15 472 m 1
 137 472 l 1
 230 133 l 1
 321 472 l 1
 416 472 l 1
 513 117 l 1
 609 472 l 1
 729 472 l 1
 600 0 l 1
 431 0 l 1
 395 133 358 268 352 336 c 1
 346 268 300 100 273 0 c 1
 143 0 l 1
 15 472 l 1
EndSplineSet
EndChar

StartChar: x
Encoding: 120 120 131
Width: 500
Flags: HW
TeX: 472 0
HStem: 0 21G<0 149.059 348.471 500> 452 20G<6 158.407 330.481 481>
DStem2: 143 472 6 472 0.633794 -0.773502<0 170.337> 247 337 301 245 0.621322 0.783556<0 166.67>
AnchorPoint: "affricate-below" 500 -167 basechar 0
AnchorPoint: "affricate-above" 500 695 basechar 0
AnchorPoint: "below" 250 0 basechar 0
AnchorPoint: "above" 250 489 basechar 0
LayerCount: 2
Fore
SplineSet
0 0 m 1
 192 245 l 1
 6 472 l 1
 143 472 l 1
 247 337 l 1
 345 472 l 1
 481 472 l 1
 301 245 l 1
 301 244 l 1
 500 0 l 1
 362 0 l 1
 247 170 l 1
 136 0 l 1
 0 0 l 1
EndSplineSet
EndChar

StartChar: y
Encoding: 121 121 132
Width: 500
Flags: HW
TeX: 472 166
ItalicCorrection: 15
HStem: -178 85<44.8777 189.82> 452 20G<15 200 349.5 484>
AnchorPoint: "affricate-below" 500 -167 basechar 0
AnchorPoint: "affricate-above" 500 695 basechar 0
AnchorPoint: "below" 250 -167 basechar 0
AnchorPoint: "above" 262 489 basechar 0
LayerCount: 2
Fore
SplineSet
15 472 m 1
 144 472 l 1
 256 221 264 172 269 137 c 1
 272 205 336 390 363 472 c 1
 484 472 l 1
 313 -39 l 2
 276 -148 190 -178 124 -178 c 0
 92 -178 61 -173 45 -171 c 1
 36 -69 l 1
 60 -80 87 -93 126 -93 c 0
 201 -93 207 -47 223 0 c 1
 15 472 l 1
EndSplineSet
EndChar

StartChar: z
Encoding: 122 122 133
Width: 476
Flags: HW
TeX: 472 0
HStem: 0 75<185 442> 404 68<45 286>
DStem2: 30 49 185 74 0.584906 0.811101<110.938 437.677>
AnchorPoint: "affricate-below" 476 -167 basechar 0
AnchorPoint: "affricate-above" 476 695 basechar 0
AnchorPoint: "below" 236 0 basechar 0
AnchorPoint: "above" 236 489 basechar 0
LayerCount: 2
Fore
SplineSet
30 0 m 1
 30 49 l 1
 286 404 l 1
 45 402 l 1
 45 472 l 1
 439 472 l 1
 439 427 l 1
 185 74 l 1
 279 75 l 1
 309 75 l 1
 442 76 l 1
 442 0 l 1
 30 0 l 1
EndSplineSet
EndChar

StartChar: braceleft
Encoding: 123 123 134
Width: 550
Flags: HW
TeX: 750 222
HStem: -222 72<358.282 495> 227 73<55 144.271> 678 72<353.869 495>
VStem: 207 136<-135.96 172.978 354.498 663.969>
LayerCount: 2
Fore
SplineSet
55 227 m 1
 55 300 l 1
 140 301 200 347 206 403 c 1
 207 426 l 1
 207 624 l 1
 208 652 203 707 297 735 c 0
 343 749 391 750 438 750 c 2
 495 750 l 1
 495 678 l 1
 476 678 l 2
 359 678 343 661 343 627 c 2
 343 426 l 2
 343 408 343 390 337 373 c 0
 312 304 226 267 146 264 c 1
 146 263 l 1
 239 259 315 217 337 155 c 0
 343 138 343 119 343 101 c 2
 343 -99 l 2
 343 -131 356 -150 475 -150 c 2
 495 -150 l 1
 495 -222 l 1
 438 -222 l 2
 222 -222 207 -156 207 -97 c 2
 207 102 l 1
 206 121 207 132 199 151 c 0
 178 202 117 227 55 227 c 1
EndSplineSet
EndChar

StartChar: bar
Encoding: 124 124 135
Width: 306
Flags: HW
TeX: 750 222
VStem: 110 83<-216.469 744.469>
LayerCount: 2
Fore
SplineSet
110 -173 m 2
 110 701 l 2
 110 744 142 750 152 750 c 0
 169 750 193 742 193 696 c 2
 193 -184 l 1
 191 -206 172 -222 152 -222 c 0
 141 -222 110 -216 110 -173 c 2
EndSplineSet
EndChar

StartChar: braceright
Encoding: 125 125 136
Width: 550
Flags: HW
TeX: 750 222
HStem: -222 72<55 196.131> 227 73<405.475 495> 678 72<55 196.766>
VStem: 207 136<-136.653 171.55 356.432 662.548>
LayerCount: 2
Fore
SplineSet
55 -150 m 1
 75 -150 l 2
 189 -150 207 -134 207 -99 c 2
 207 102 l 2
 207 120 208 139 214 156 c 0
 239 225 325 260 404 263 c 1
 404 264 l 1
 325 267 239 303 214 372 c 0
 208 389 207 408 207 426 c 2
 207 627 l 2
 207 667 181 678 55 678 c 1
 55 750 l 1
 113 750 l 2
 167 750 330 750 342 649 c 1
 343 624 l 1
 343 426 l 1
 344 406 344 395 351 377 c 0
 361 354 399 301 495 300 c 1
 495 227 l 1
 397 226 349 171 344 124 c 1
 343 102 l 1
 343 -97 l 1
 342 -125 347 -179 253 -207 c 0
 207 -221 159 -222 112 -222 c 2
 55 -222 l 1
 55 -150 l 1
EndSplineSet
EndChar

StartChar: asciitilde
Encoding: 126 126 137
Width: 672
Flags: HW
TeX: 694 0
HStem: 566 73<366.182 490.577> 622 73<179.923 304.213>
VStem: 91 73<566 604.411> 507 72<656.589 695>
LayerCount: 2
Fore
SplineSet
91 566 m 1xb0
 94 646 159 695 234 695 c 0x70
 334 695 378 639 439 639 c 0xb0
 454 639 501 645 507 695 c 1
 579 695 l 1x70
 576 615 511 566 436 566 c 0xb0
 336 566 293 622 232 622 c 0x70
 217 622 170 616 164 566 c 1
 91 566 l 1xb0
EndSplineSet
EndChar

StartChar: Abreve
Encoding: 258 258 139
Width: 733
Flags: HW
TeX: 902 0
HStem: -0 21<30 172.933 540.933 701> 150 87<249 465> 675 20<265.036 465.964> 730 93<260.083 421.124>
VStem: 151 73<856.628 903> 457 73<856.628 903>
DStem2: 30 -0 166 -0 0.328837 0.944387<44.7218 203.479 295.835 644.886> 459 695 370 521 0.328837 -0.944387<85.4514 434.502 526.529 685.615>
AnchorPoint: "below" 366 0 basechar 0
AnchorPoint: "above" 366 905 basechar 0
LayerCount: 2
Fore
SplineSet
151 903 m 1
 224 903 l 1
 230 832 312 823 341 823 c 0
 369 823 451 832 457 903 c 1
 530 903 l 1
 527 793 434 730 341 730 c 0
 247 730 154 793 151 903 c 1
EndSplineSet
Refer: 76 65 S 1 0 0 1 -0 -0 3
AlternateSubs2: "Stilistic set 01 subtable" Abreve.vn
AlternateSubs2: "Latin alternatives subtable" Abreve.vn
Substitution2: "Latin Vietnamese substitutions subtable" Abreve.vn
EndChar

StartChar: Aogonek
Encoding: 260 260 140
Width: 733
Flags: HW
TeX: 694 166
HStem: -189 82<543.969 660.044> 0 21G<30 172.933> 150 87<249 465> 675 20G<265.036 465.964>
VStem: 447 94<-139.5 -66.3723>
DStem2: 30 0 166 0 0.328837 0.944387<44.7218 203.479 295.835 644.886> 459 695 370 521 0.328837 -0.944387<85.4514 434.502 526.529 689.018>
AnchorPoint: "above" 366 717 basechar 0
LayerCount: 2
Fore
SplineSet
30 0 m 1
 272 695 l 1
 459 695 l 1
 701 0 l 1
 681 0 661 0 641 0 c 0
 618 0 541 -38 541 -80 c 0
 541 -85 541 -85 545 -93 c 1
 556 -103 566 -107 585 -107 c 0
 614 -107 643 -97 657 -92 c 1
 676 -162 l 1
 644 -176 607 -189 560 -189 c 0
 496 -189 447 -161 447 -118 c 0
 447 -71 505 -24 548 -0 c 1
 495 150 l 1
 218 150 l 1
 166 0 l 1
 30 0 l 1
249 237 m 1
 465 237 l 1
 370 521 l 1
 357 569 l 1
 344 510 288 353 249 237 c 1
EndSplineSet
Ligature2: "Latin ligatures subtable" A uni0328
EndChar

StartChar: Cacute
Encoding: 262 262 141
Width: 703
Flags: HW
TeX: 862 0
HStem: -22 100<324.148 559.47> 616 101<323.268 540.48>
VStem: 60 148<200.53 490.229>
AnchorPoint: "below" 445 0 basechar 0
AnchorPoint: "above" 431 843 basechar 0
LayerCount: 2
Fore
SplineSet
258 765 m 1
 379 863 l 1
 572 863 l 1
 361 764 369 764 347 764 c 2
 286 764 l 1
 258 765 l 1
EndSplineSet
Refer: 78 67 S 1 0 0 1 -0 0 3
EndChar

StartChar: Eogonek
Encoding: 280 280 145
Width: 642
Flags: HW
TeX: 694 166
HStem: -189 82<461.167 579.584> 0 107<239 467 505.986 595> 312 95<239 549> 587 105<239 580>
VStem: 91 148<107 312 407 590> 367 92<-139.5 -64.2188>
AnchorPoint: "above" 336 717 basechar 0
LayerCount: 2
Fore
SplineSet
91 0 m 1
 91 692 l 1
 580 692 l 1
 580 587 l 1
 239 590 l 1
 239 407 l 1
 549 407 l 1
 549 312 l 1
 239 312 l 1
 239 107 l 1
 595 111 l 1
 595 -0 l 1
 584 0 573 0 562 -0 c 0
 528 0 459 -47 459 -78 c 0
 459 -89 469 -107 505 -107 c 0
 534 -107 563 -97 577 -92 c 1
 595 -162 l 1
 542 -186 503 -189 480 -189 c 0
 414 -189 367 -161 367 -118 c 0
 367 -74 413 -33 467 0 c 1
 91 0 l 1
EndSplineSet
EndChar

StartChar: Gbreve
Encoding: 286 286 146
Width: 733
Flags: HW
TeX: 902 0
HStem: -22 100<326.165 520.913> 233 95<426 522> 617 100<324.274 539.756> 730 94<344.936 507.37>
VStem: 60 148<207.394 485.357> 238 72<859.427 903> 522 137<84.1793 233> 542 73<854.984 903>
LayerCount: 2
Fore
SplineSet
238 903 m 1
 310 903 l 1
 316 832 398 824 427 824 c 0xfd
 455 824 536 832 542 903 c 1
 615 903 l 1
 612 793 519 730 426 730 c 0
 333 730 241 793 238 903 c 1
EndSplineSet
Refer: 82 71 S 1 0 0 1 0 0 3
EndChar

StartChar: Lcaron
Encoding: 317 317 148
Width: 581
Flags: HW
TeX: 902 0
HStem: 0 101<239 534> 675 20<91 239>
VStem: 91 148<101 695> 269 131<695 826>
LayerCount: 2
Fore
SplineSet
269 620 m 1
 308 695 l 1
 269 695 l 1
 269 826 l 1
 400 826 l 1
 400 695 l 1
 334 620 l 1
 269 620 l 1
EndSplineSet
Refer: 87 76 S 1 0 0 1 0 0 3
EndChar

StartChar: Lslash
Encoding: 321 321 149
Width: 672
Flags: HW
TeX: 694 0
HStem: -0 101<331 626> 675 20G<183 331>
VStem: 183 148<101 240 481 695>
DStem2: 73 275 133 200 0.77967 0.626191<0 63.847 330.15 488.484>
LayerCount: 2
Fore
SplineSet
73 275 m 1
 183 362 l 1
 183 695 l 1
 331 695 l 1
 331 481 l 1
 454 581 l 1
 514 506 l 1
 331 360 l 1
 331 101 l 1
 626 105 l 1
 626 -0 l 1
 183 -0 l 1
 183 240 l 1
 133 200 l 1
 73 275 l 1
EndSplineSet
EndChar

StartChar: Eng
Encoding: 330 330 152
Width: 825
Flags: HW
TeX: 694 0
HStem: -22 97<493.381 616.5> 0 21G<91 239> 649 136<335.8 511.288>
VStem: 91 148<0 557.809> 615 148<91.5291 547.332>
LayerCount: 2
Fore
SplineSet
91 0 m 1x78
 91 695 l 1
 198 695 l 1
 264 758 351 785 429 785 c 0
 584 785 763 674 763 451 c 2
 763 155 l 2
 763 135 765 49 695 3 c 0
 666 -16 633 -22 600 -22 c 0
 537 -22 484 -3 442 19 c 1
 464 140 l 1
 484 93 514 75 548 75 c 0
 572 75 615 84 615 155 c 2
 615 449 l 2
 615 609 488 649 424 649 c 0xb8
 323 649 239 569 239 488 c 2
 239 0 l 1
 91 0 l 1x78
EndSplineSet
EndChar

StartChar: Ohungarumlaut
Encoding: 336 336 153
Width: 794
Flags: HW
TeX: 862 0
HStem: -22 81<311.591 481.094> 639 78<307.275 486.054>
VStem: 60 148<182.623 504.793> 584 148<182.935 506.306>
AnchorPoint: "below" 397 0 basechar 0
AnchorPoint: "above" 395 843 basechar 0
LayerCount: 2
Fore
SplineSet
212 765 m 1
 333 863 l 1
 710 863 l 1
 499 764 506 764 484 764 c 2
 424 764 l 1
 395 765 l 1
 501 851 l 1
 339 775 l 1
 315 766 l 1
 298 764 l 1
 240 764 l 1
 212 765 l 1
EndSplineSet
Refer: 90 79 S 1 0 0 1 -0 0 3
EndChar

StartChar: Sacute
Encoding: 346 346 156
Width: 611
Flags: HW
TeX: 862 0
HStem: -22 109<185.819 387.296> 613 104<222.183 414.266>
VStem: 60 126<475.27 582.323> 423 126<121.698 241.914>
AnchorPoint: "below" 304 0 basechar 0
AnchorPoint: "above" 299 843 basechar 0
LayerCount: 2
Fore
SplineSet
151 765 m 1
 272 863 l 1
 466 863 l 1
 255 764 262 764 240 764 c 2
 180 764 l 1
 151 765 l 1
EndSplineSet
Refer: 94 83 S 1 0 0 1 -0 0 3
EndChar

StartChar: Uhungarumlaut
Encoding: 368 368 161
Width: 764
Flags: HW
TeX: 862 0
HStem: -22 86<291.019 481.382> 675 20<91 239 534 671>
VStem: 91 148<117.939 695> 534 137<117.847 695>
AnchorPoint: "below" 386 0 basechar 0
AnchorPoint: "above" 381 865 basechar 0
LayerCount: 2
Fore
SplineSet
197 765 m 1
 318 863 l 1
 694 863 l 1
 483 764 491 764 469 764 c 2
 409 764 l 1
 380 765 l 1
 485 850 l 1
 324 775 l 1
 300 766 l 1
 283 764 l 1
 226 764 l 1
 197 765 l 1
EndSplineSet
Refer: 96 85 S 1 0 0 1 -0 0 3
EndChar

StartChar: Uring
Encoding: 366 366 162
Width: 764
Flags: HW
TeX: 902 0
HStem: -22 86<291.019 481.382> 657 72<328.965 437.736> 675 20<91 239 534 671> 830 73<329.172 439.643>
VStem: 91 148<117.939 695> 261 62<734.537 824.315> 445 61<735.34 825.08> 534 137<117.847 695>
LayerCount: 2
Fore
SplineSet
261 781 m 0
 261 844 286 903 385 903 c 0
 456 903 506 871 506 779 c 0
 506 717 482 657 383 657 c 0
 313 657 261 689 261 781 c 0
323 779 m 0
 323 732 348 729 381 729 c 2
 382 729 l 1
 414 730 445 728 445 779 c 0xdf
 445 828 420 830 386 830 c 1
 353 829 323 831 323 779 c 0
EndSplineSet
Refer: 96 85 S 1 0 0 1 0 -0 3
EndChar

StartChar: IJ
Encoding: 306 306 167
Width: 819
Flags: HW
TeX: 694 0
HStem: -22 97<409.116 558.068> 0 21<60 208> 675 20G<60 208 582 727>
VStem: 60 148<0 695> 582 145<100.538 695>
LayerCount: 2
Fore
SplineSet
346 19 m 1
 367 140 l 1
 380 120 413 75 483 75 c 0
 575 75 582 130 582 151 c 2
 582 695 l 1
 727 695 l 1
 727 148 l 2xb8
 727 25 637 -22 534 -22 c 0
 459 -22 393 -2 346 19 c 1
EndSplineSet
Refer: 84 73 S 1 0 0 1 -31 0 2
Ligature2: "Latin Dutch ligatures subtable" I J
EndChar

StartChar: dcroat
Encoding: 273 273 169
Width: 561
Flags: HW
TeX: 694 0
HStem: -11 72<208.777 306.895> 0 21G<362 499> 411 72<212.118 314.751> 544 73<196 365 499 585> 675 20G<365 499>
VStem: 36 137<97.8058 368.411> 362 137<0 52 83.01 396.516 428 544 617 695>
LayerCount: 2
Fore
SplineSet
36 237 m 0
 36 321 48 397 105 445 c 0
 137 472 179 483 220 483 c 0
 284 483 330 458 365 428 c 1
 365 544 l 1
 196 544 l 1
 196 617 l 1
 365 617 l 1
 365 695 l 1
 499 695 l 1
 499 617 l 1
 585 617 l 1
 585 544 l 1
 499 544 l 1
 499 0 l 1
 362 0 l 1x7e
 362 52 l 1
 325 16 283 -11 219 -11 c 0
 189 -11 110 -4 68 72 c 0
 43 118 36 171 36 237 c 0
173 233 m 0
 173 174 173 125 197 94 c 0
 215 71 244 61 273 61 c 0
 327 61 355 96 362 103 c 1
 362 382 l 1
 337 401 316 411 285 411 c 0xbe
 173 411 173 319 173 233 c 0
EndSplineSet
AlternateSubs2: "Stilistic set 01 subtable" dcroat.vn
AlternateSubs2: "Latin alternatives subtable" dcroat.vn
Substitution2: "Latin Vietnamese substitutions subtable" dcroat.vn
EndChar

StartChar: section
Encoding: 167 167 170
Width: 533
Flags: HW
TeX: 694 166
HStem: -178 73<161.185 306.376> -19 20G<63.5455 78.5> 633 73<225.289 361.268>
VStem: 75 126<225.813 340.799 496.135 610.803> 330 126<-82.8031 32.1674 186.465 303.566>
LayerCount: 2
Fore
SplineSet
48 -109 m 1
 67 1 l 1
 90 -29 140 -105 261 -105 c 0
 317 -105 330 -46 330 -15 c 0
 330 48 262 51 199 88 c 0
 177 101 75 160 75 269 c 0
 75 293 81 352 145 398 c 1
 145 399 l 1
 109 431 75 477 75 539 c 0
 75 629 154 706 269 706 c 0
 351 706 402 682 452 650 c 1
 434 545 l 1
 426 555 378 633 271 633 c 0
 215 633 201 574 201 543 c 0
 201 481 273 474 332 439 c 0
 380 411 456 353 456 258 c 0
 456 207 431 162 387 130 c 1
 387 129 l 1
 428 93 456 45 456 -11 c 0
 456 -101 377 -178 263 -178 c 0
 177 -178 119 -158 48 -109 c 1
201 272 m 0
 201 220 253 206 306 183 c 1
 310 189 330 212 330 256 c 0
 330 308 281 321 226 345 c 1
 221 338 201 316 201 272 c 0
EndSplineSet
EndChar

StartChar: abreve
Encoding: 259 259 171
Width: 525
Flags: HW
TeX: 679 0
HStem: -11 73<127 262.915> 0 21<330 464> 229 41<226.093 328> 422 67<160.567 307.557> 517 94<185.823 362.396>
VStem: 30 132<80.7037 182.156> 85 73<638.522 680> 328 136<0 69 93.7098 229 268.984 401.884> 390 73<638.834 680>
AnchorPoint: "below" 260 0 basechar 0
AnchorPoint: "above" 260 660 basechar 0
LayerCount: 2
Fore
SplineSet
85 680 m 1
 158 680 l 1
 163 631 212 611 275 611 c 0x3a80
 303 611 384 616 390 680 c 1
 463 680 l 1
 460 576 367 517 274 517 c 0
 182 517 88 575 85 680 c 1
EndSplineSet
Refer: 108 97 S 1 0 0 1 0 -0 3
AlternateSubs2: "Stilistic set 01 subtable" abreve.vn
AlternateSubs2: "Latin alternatives subtable" abreve.vn
Substitution2: "Latin Vietnamese substitutions subtable" abreve.vn
EndChar

StartChar: aogonek
Encoding: 261 261 172
Width: 525
Flags: HW
TeX: 472 166
HStem: -189 82<327.33 442.955> -11 73<127 262.722> 229 41<226.093 328> 422 67<160.567 307.557>
VStem: 30 132<80.7037 182.156> 230 93<-138.5 -64.0511> 328 136<0 69 93.7098 229 268.984 401.884>
AnchorPoint: "above" 260 489 basechar 0
LayerCount: 2
Fore
SplineSet
30 129 m 0
 30 261 254 266 328 270 c 1
 328 311 l 1
 327 343 332 422 256 422 c 0
 161 422 114 370 90 346 c 1
 82 446 l 1
 142 476 189 489 260 489 c 0
 416 489 464 420 464 315 c 2
 464 -0 l 1
 424 -0 l 2
 392 0 323 -46 323 -79 c 0
 323 -86 327 -91 329 -96 c 1
 339 -102 348 -107 368 -107 c 0
 396 -107 423 -98 440 -92 c 1
 459 -162 l 1
 427 -176 389 -189 343 -189 c 0
 278 -189 230 -160 230 -117 c 0
 230 -70 287 -24 330 -0 c 1
 330 69 l 1
 294 16 232 -11 169 -11 c 0
 85 -11 30 60 30 129 c 0
162 131 m 0
 162 94 190 62 231 62 c 0
 262 62 328 79 328 154 c 2
 328 229 l 1
 270 225 162 212 162 131 c 0
EndSplineSet
EndChar

StartChar: dcaron
Encoding: 271 271 175
Width: 732
Flags: HW
TeX: 694 0
HStem: -11 72<208.777 306.895> 0 21<362 499> 411 72<212.118 314.751> 675 20<365 499>
VStem: 36 137<97.8058 368.411> 362 137<0 52 83.01 396.516 428 695> 560 132<629 760>
LayerCount: 2
Fore
SplineSet
560 555 m 1
 599 629 l 1
 560 629 l 1x3e
 560 760 l 1
 692 760 l 1
 692 629 l 1
 625 555 l 1
 560 555 l 1
EndSplineSet
Refer: 111 100 S 1 0 0 1 0 0 2
EndChar

StartChar: eogonek
Encoding: 281 281 177
Width: 511
Flags: HW
TeX: 472 166
HStem: -189 81<295.842 412.182> -11 73<215.335 281> 250 54<162 366> 416 73<208.031 328.004>
VStem: 30 128<123.386 250 304 355.071> 199 95<-106.051 -65.0198>
AnchorPoint: "above" 272 489 basechar 0
LayerCount: 2
Fore
SplineSet
30 240 m 0
 30 488 212 489 270 489 c 2
 273 489 l 2
 458 489 479 359 479 250 c 1
 158 250 l 1
 158 182 161 62 289 62 c 0
 371 62 429 100 466 129 c 1
 473 38 l 1
 406 2 397 12 355 -14 c 0
 330 -29 294 -56 294 -84 c 1
 297 -95 302 -108 334 -108 c 0
 364 -108 402 -94 409 -92 c 1
 428 -162 l 1
 396 -176 358 -189 312 -189 c 0
 247 -189 199 -161 199 -118 c 0
 199 -75 243 -37 281 -11 c 1
 151 -9 30 39 30 240 c 0
162 304 m 1
 366 304 l 1
 357 397 308 416 270 416 c 0
 184 416 167 331 162 304 c 1
EndSplineSet
EndChar

StartChar: lacute
Encoding: 314 314 179
Width: 256
Flags: HW
TeX: 862 0
ItalicCorrection: 123
HStem: 0 21<60 194> 675 20<60 194>
VStem: 34 314 60 134<0 695>
LayerCount: 2
Fore
SplineSet
34 765 m 1
 155 863 l 1
 348 863 l 1xe0
 137 764 145 764 123 764 c 2
 63 764 l 1
 34 765 l 1
EndSplineSet
Refer: 119 108 S 1 0 0 1 -0 0 3
EndChar

StartChar: lcaron
Encoding: 318 318 180
Width: 426
Flags: HW
TeX: 694 0
HStem: 0 21<60 194> 675 20<60 194>
VStem: 60 134<0 695> 255 131<629 760>
LayerCount: 2
Fore
SplineSet
255 555 m 1
 294 629 l 1
 255 629 l 1
 255 760 l 1
 386 760 l 1
 386 629 l 1
 320 555 l 1
 255 555 l 1
EndSplineSet
Refer: 119 108 S 1 0 0 1 0 0 2
EndChar

StartChar: lslash
Encoding: 322 322 181
Width: 381
Flags: HW
TeX: 694 0
ItalicCorrection: 30
HStem: 0 21G<121 255> 675 20G<121 255>
VStem: 121 134<0 261 354 368 461 695>
DStem2: 16 270 61 213 0.780628 0.624996<0 76.3409 305.944 404.306>
AnchorPoint: "above" 148 695 basechar 0
LayerCount: 2
Fore
SplineSet
16 270 m 1
 121 354 l 1
 121 695 l 1
 255 695 l 1
 255 461 l 1
 332 523 l 1
 377 466 l 1
 255 368 l 1
 255 0 l 1
 121 0 l 1
 121 261 l 1
 61 213 l 1
 16 270 l 1
EndSplineSet
EndChar

StartChar: eng
Encoding: 331 331 184
Width: 561
Flags: HW
TeX: 472 166
HStem: -178 85<232.297 355.156> 0 21G<59 196> 411 72<268.362 421.703>
VStem: 59 137<0 363.321 373 478> 364 136<-82.639 396.942>
AnchorPoint: "affricate-below" 561 -167 basechar 0
AnchorPoint: "affricate-above" 561 695 basechar 0
AnchorPoint: "below" 280 -167 basechar 0
AnchorPoint: "above" 280 489 basechar 0
LayerCount: 2
Fore
SplineSet
59 0 m 1
 59 478 l 1
 190 478 l 1
 190 415 l 1
 191 373 l 1
 209 415 256 483 354 483 c 0
 494 483 501 404 501 315 c 0
 501 302 500 287 500 274 c 2
 500 0 l 1
 499 0 l 1
 499 -6 l 2
 499 -31 495 -120 435 -157 c 0
 409 -173 378 -178 348 -178 c 0
 290 -178 236 -162 203 -148 c 1
 238 -76 l 1
 260 -86 276 -93 303 -93 c 0
 366 -93 365 -47 365 -30 c 2
 365 0 l 1
 364 0 l 1
 364 327 l 2
 364 368 358 411 296 411 c 0
 228 411 200 342 196 291 c 1
 196 0 l 1
 59 0 l 1
EndSplineSet
EndChar

StartChar: sacute
Encoding: 347 347 188
Width: 422
Flags: HW
TeX: 679 0
HStem: -11 79<121.5 285.336> 417 72<145.298 307.481> 542 139
VStem: 36 100<328.829 406.517> 118 235 296 100<81.4516 164.715>
AnchorPoint: "below" 218 0 basechar 0
AnchorPoint: "above" 214 661 basechar 0
LayerCount: 2
Fore
SplineSet
30 36 m 1
 49 146 l 1
 65 130 116 68 218 68 c 0
 260 68 296 79 296 123 c 0
 296 176 227 184 212 187 c 0
 199 190 36 206 36 343 c 0
 36 474 131 489 213 489 c 0
 277 489 317 482 380 456 c 1
 363 360 l 1
 324 389 285 417 205 417 c 0xf4
 177 417 136 413 136 367 c 0
 136 317 199 311 214 308 c 0
 251 300 329 294 374 221 c 0
 395 188 396 159 396 143 c 0
 396 20 320 -11 219 -11 c 0
 146 -11 89 5 30 36 c 1
EndSplineSet
Refer: 13 180 S 1 0 0 1 -89 0 2
EndChar

StartChar: scaron
Encoding: 353 353 189
Width: 422
Flags: HW
TeX: 679 0
HStem: -11 79<121.5 284.898> 417 72<143.049 306.981> 541 139
VStem: 36 99<326.878 406.61> 296 100<81.786 165.062>
AnchorPoint: "below" 218 0 basechar 0
AnchorPoint: "above" 214 660 basechar 0
LayerCount: 2
Fore
SplineSet
30 36 m 1
 49 146 l 1
 65 130 116 68 218 68 c 0
 251 68 296 74 296 124 c 0
 296 177 227 184 212 187 c 0
 177 194 104 200 59 265 c 0
 46 284 36 310 36 343 c 0
 36 474 131 489 213 489 c 0
 277 489 317 482 380 456 c 1
 362 360 l 1
 323 389 284 417 204 417 c 0
 184 417 135 417 135 367 c 0
 135 317 198 311 214 308 c 0
 250 300 328 294 374 221 c 0
 395 188 396 159 396 143 c 0
 396 20 320 -11 219 -11 c 0
 146 -11 89 5 30 36 c 1
EndSplineSet
Refer: 19 711 S 1 0 0 1 -67 0 2
EndChar

StartChar: scedilla
Encoding: 351 351 190
Width: 422
Flags: HW
TeX: 472 145
HStem: -168 145<179 191> -11 79<121.5 285.336> 417 72<145.298 307.481>
VStem: 36 100<328.827 406.517> 87 165 296 100<81.4516 164.005>
LayerCount: 2
Fore
SplineSet
30 36 m 1
 49 146 l 1
 65 130 116 68 218 68 c 0
 260 68 296 79 296 123 c 0
 296 176 225 183 212 186 c 0
 199 189 36 206 36 343 c 0
 36 474 131 489 213 489 c 0
 277 489 317 482 380 456 c 1
 363 360 l 1
 324 389 285 417 205 417 c 0xf4
 177 417 136 413 136 367 c 0
 136 317 199 311 214 308 c 0
 251 300 329 294 374 221 c 0
 395 188 396 159 396 143 c 0
 396 20 320 -11 219 -11 c 0
 146 -11 89 5 30 36 c 1
EndSplineSet
Refer: 23 184 S 1 0 0 1 -28 0 2
EndChar

StartChar: tcaron
Encoding: 357 357 191
Width: 404
Flags: HW
TeX: 694 0
HStem: -11 78<134 318.367> 400 72<20 87 218 355>
VStem: 87 131<78.6484 400 472 607> 289 131<607 739>
LayerCount: 2
Fore
SplineSet
20 400 m 1
 20 472 l 1
 90 472 l 1
 90 607 l 1
 218 607 l 1
 218 472 l 1
 355 472 l 1
 355 400 l 1
 218 400 l 1
 218 148 l 2
 218 88 239 67 269 67 c 0
 312 67 338 90 355 103 c 1
 373 33 l 1
 318 7 261 -11 186 -11 c 0
 82 -11 87 98 87 160 c 2
 87 400 l 1
 20 400 l 1
289 533 m 1
 328 607 l 1
 289 607 l 1
 289 739 l 1
 420 739 l 1
 420 607 l 1
 354 533 l 1
 289 533 l 1
EndSplineSet
EndChar

StartChar: tcommaaccent
Encoding: 355 355 192
Width: 404
Flags: HW
TeX: 607 145
HStem: -168 145<227 239> -11 78<134.5 318.778> 400 72<20 87 218 355>
VStem: 87 131<77.7695 400 472 607> 135 165
LayerCount: 2
Fore
SplineSet
20 400 m 1
 20 472 l 1
 90 472 l 1
 90 607 l 1
 218 607 l 1
 218 472 l 1
 355 472 l 1
 355 400 l 1
 218 400 l 1
 218 148 l 2
 218 88 239 67 269 67 c 0xf0
 304 67 330 82 355 103 c 1
 373 33 l 1
 318 7 262 -11 187 -11 c 0
 82 -11 87 96 87 160 c 2
 87 400 l 1
 20 400 l 1
EndSplineSet
Refer: 23 184 S 1 0 0 1 20 0 2
EndChar

StartChar: ij
Encoding: 307 307 199
Width: 592
Flags: HW
TeX: 694 166
HStem: -178 85<270.482 400.463> 0 21<68 202> 452 20G<68 202 404 537> 573 122<68 202 404 537>
VStem: 68 134<0 472 573 695> 404 133<-86.2907 472 573 695>
LayerCount: 2
Fore
SplineSet
249 -148 m 1
 269 -76 l 1
 295 -88 312 -93 341 -93 c 0
 398 -93 404 -74 404 -55 c 2
 404 472 l 1
 537 472 l 1
 537 -48 l 2
 537 -111 517 -178 394 -178 c 0
 333 -178 291 -165 249 -148 c 1
404 573 m 1
 404 695 l 1
 537 695 l 1
 537 573 l 1
 404 573 l 1
EndSplineSet
Refer: 116 105 S 1 0 0 1 8 0 2
Ligature2: "Latin Dutch ligatures subtable" i j
EndChar

StartChar: exclamdown
Encoding: 161 161 200
Width: 367
Flags: HW
TeX: 527 166
HStem: -167 21G<117 248> 397 131<117 248>
VStem: 117 131<-167 90.3846 397 528> 130 105<53.6154 311>
LayerCount: 2
Fore
SplineSet
117 -167 m 1xe0
 130 311 l 1
 235 311 l 1xd0
 248 -167 l 1
 117 -167 l 1xe0
EndSplineSet
Refer: 57 46 S 1 0 0 1 31 397 2
EndChar

StartChar: questiondown
Encoding: 191 191 201
Width: 519
Flags: HW
TeX: 527 166
HStem: -178 73<201.892 347.872> 397 131<178 309>
VStem: 60 137<-100.432 46.7542> 178 131<397 528> 191 105<170.762 311>
LayerCount: 2
Fore
SplineSet
60 -29 m 0xe0
 60 57 101 81 120 100 c 0
 171 151 191 208 191 278 c 2
 191 311 l 1
 296 311 l 1
 296 278 l 2xc8
 296 228 294 175 225 58 c 0
 206 25 197 18 197 -31 c 1
 198 -70 191 -105 244 -105 c 0xe0
 344 -105 402 -52 423 -35 c 1
 457 -129 l 1
 376 -167 321 -174 254 -178 c 1
 194 -178 60 -183 60 -29 c 0xe0
EndSplineSet
Refer: 57 46 S 1 0 0 1 92 397 2
EndChar

StartChar: sterling
Encoding: 163 163 202
Width: 703
Flags: HW
TeX: 694 0
HStem: -11 150<104.812 233.452 535 543.008> -11 93<401.306 554.984> 311 73<182 236 373 458> 669 73<401.999 487.726>
VStem: 236 137<139.167 311 384 636.328> 504 136<522.551 623.379> 557 114<84.6384 137.703>
LayerCount: 2
Fore
SplineSet
60 53 m 0
 60 104 117 139 208 139 c 0
 217 139 226 139 235 138 c 1
 236 207 l 1
 236 311 l 1
 182 311 l 1
 182 384 l 1
 236 384 l 1
 236 512 l 2
 236 622 268 742 453 742 c 0
 583 742 640 613 640 525 c 0
 640 472 601 467 584 465 c 1
 548 469 532 485 529 521 c 1
 504 521 l 1
 504 531 l 2xbc
 504 636 489 669 453 669 c 0
 379 669 376 593 376 593 c 1
 373 573 373 552 373 532 c 2
 373 384 l 1
 458 384 l 1
 458 311 l 1
 373 311 l 1
 373 215 l 2
 373 179 372 142 365 113 c 1
 452 91 470 86 530 82 c 1
 543 82 l 1
 553 83 557 86 557 91 c 0x7a
 557 104 544 111 535 139 c 1
 671 139 l 1xba
 668 40 579 -11 489 -11 c 0x7a
 419 -11 324 17 301 23 c 1
 283 12 244 -11 157 -11 c 0
 98 -11 60 14 60 53 c 0
EndSplineSet
EndChar

StartChar: Aacute
Encoding: 193 193 204
Width: 733
Flags: HW
TeX: 862 0
HStem: 0 21<30 172.933 540.933 701> 150 87<249 465> 675 20<265.036 465.964>
DStem2: 30 0 166 0 0.328837 0.944387<44.7218 203.479 295.835 644.886> 459 695 370 521 0.328837 -0.944387<85.4514 434.502 526.529 685.615>
AnchorPoint: "below" 366 0 basechar 0
AnchorPoint: "above" 366 865 basechar 0
LayerCount: 2
Fore
SplineSet
227 765 m 1
 349 863 l 1
 542 863 l 1
 331 764 338 764 316 764 c 2
 256 764 l 1
 227 765 l 1
EndSplineSet
Refer: 76 65 S 1 0 0 1 -0 0 3
AlternateSubs2: "Stilistic set 01 subtable" Aacute.vn
AlternateSubs2: "Latin alternatives subtable" Aacute.vn
Substitution2: "Latin Vietnamese substitutions subtable" Aacute.vn
EndChar

StartChar: Atilde
Encoding: 195 195 206
Width: 733
Flags: HW
TeX: 902 0
HStem: 0 21<30 172.933 540.933 701> 150 87<249 465> 675 20<265.036 465.964> 730 73<396.444 466.459> 830 73<264.912 335.334>
VStem: 476 73<874 903>
DStem2: 30 0 166 0 0.328837 0.944387<44.7218 203.479 295.835 644.886> 459 695 370 521 0.328837 -0.944387<85.4514 434.502 526.529 685.615>
AnchorPoint: "below" 366 0 basechar 0
AnchorPoint: "above" 366 905 basechar 0
LayerCount: 2
Fore
SplineSet
182 730 m 1
 190 875 247 903 291 903 c 0
 365 903 382 803 438 803 c 0
 475 803 475 854 476 903 c 1
 549 903 l 1
 547 874 l 1
 539 795 505 730 440 730 c 0
 368 730 349 830 294 830 c 0
 259 830 256 784 255 729 c 1
 183 729 l 1
 182 730 l 1
EndSplineSet
Refer: 76 65 S 1 0 0 1 0 0 3
AlternateSubs2: "Stilistic set 01 subtable" Atilde.vn
AlternateSubs2: "Latin alternatives subtable" Atilde.vn
Substitution2: "Latin Vietnamese substitutions subtable" Atilde.vn
EndChar

StartChar: Aring
Encoding: 197 197 208
Width: 733
Flags: HW
TeX: 862 0
HStem: 0 21G<30 172.933 540.933 701> 150 87<249 465> 830 73<288.754 391.978>
VStem: 218 62<702.646 822.984> 402 61<701.734 821.276>
DStem2: 30 0 166 0 0.330156 0.943926<44.9012 203.658 296.015 645.055> 459 695 370 521 0.328837 -0.944387<85.4514 434.502 526.529 685.615>
LayerCount: 2
Fore
SplineSet
30 0 m 1
 257 649 l 1
 231 673 218 712 218 760 c 0
 218 834 240 903 341 903 c 0
 439 903 463 834 463 761 c 0
 463 728 457 708 454 695 c 1
 459 695 l 1
 701 0 l 1
 548 0 l 1
 495 150 l 1
 218 150 l 1
 166 0 l 1
 30 0 l 1
249 237 m 1
 465 237 l 1
 370 521 l 1
 357 569 l 1
 344 510 286 347 249 237 c 1
280 766 m 0
 280 726 282 695 337 695 c 2
 341 695 l 2
 371 695 402 696 402 758 c 0
 402 799 400 830 344 830 c 2
 342 830 l 2
 311 830 280 829 280 766 c 0
EndSplineSet
EndChar

StartChar: AE
Encoding: 198 198 209
Width: 947
Flags: HW
TeX: 694 0
HStem: -0 107<607 900> 191 87<267 460> 314 95<607 854> 594 101<381 460 607 885>
VStem: 460 147<107 191 278 314 409 593>
DStem2: 30 -0 166 -0 0.339678 0.940542<46.1962 249.277 341.974 677.909>
AnchorPoint: "below" 465 0 basechar 0
AnchorPoint: "above" 534 717 basechar 0
LayerCount: 2
Fore
SplineSet
30 -0 m 1
 281 695 l 1
 885 695 l 1
 885 590 l 1
 607 593 l 1
 607 409 l 1
 854 409 l 1
 854 314 l 1
 607 314 l 1
 607 107 l 1
 871 110 l 1
 900 111 l 1
 900 -0 l 1
 460 -0 l 1
 460 191 l 1
 235 191 l 1
 166 -0 l 1
 30 -0 l 1
267 278 m 1
 460 278 l 1
 460 594 l 1
 381 594 l 1
 267 278 l 1
EndSplineSet
EndChar

StartChar: Ccedilla
Encoding: 199 199 210
Width: 703
Flags: HW
TeX: 694 145
HStem: -168 145<390 402> -22 100<322.541 559.338> 616 101<323.655 540.48>
VStem: 60 148<201.719 490.525> 298 165
AnchorPoint: "above" 431 717 basechar 0
LayerCount: 2
Fore
SplineSet
60 346 m 0
 60 643 234 717 431 717 c 0
 512 717 566 705 634 682 c 1
 611 551 l 1
 573 577 529 616 429 616 c 0
 218 616 208 429 208 352 c 2
 208 332 l 2
 208 204 252 78 431 78 c 0
 545 78 583 109 637 144 c 1
 646 33 l 1
 565 -10 526 -22 445 -22 c 2
 431 -22 l 2
 329 -22 60 -14 60 346 c 0
EndSplineSet
Refer: 23 184 S 1 0 0 1 183 0 2
EndChar

StartChar: Ecircumflex
Encoding: 202 202 213
Width: 642
Flags: HW
TeX: 902 0
HStem: 0 107<239 595> 312 95<239 549> 587 105<239 580>
VStem: 91 148<107 312 407 590>
AnchorPoint: "below" 343 0 basechar 0
AnchorPoint: "above" 343 919 basechar 0
LayerCount: 2
Fore
SplineSet
131 729 m 1
 250 914 l 1
 360 914 l 1
 478 729 l 1
 406 729 l 1
 305 840 l 1
 204 729 l 1
 131 729 l 1
EndSplineSet
Refer: 80 69 S 1 0 0 1 0 0 3
AlternateSubs2: "Stilistic set 01 subtable" Ecircumflex.vn
AlternateSubs2: "Latin alternatives subtable" Ecircumflex.vn
Substitution2: "Latin Vietnamese substitutions subtable" Ecircumflex.vn
EndChar

StartChar: Icircumflex
Encoding: 206 206 217
Width: 331
Flags: HW
TeX: 902 0
HStem: 0 21<92 240> 675 20<92 240>
VStem: 92 148<0 695>
AnchorPoint: "below" 165 0 basechar 0
AnchorPoint: "above" 165 916 basechar 0
LayerCount: 2
Fore
SplineSet
-8 729 m 1
 111 914 l 1
 221 914 l 1
 340 729 l 1
 267 729 l 1
 166 840 l 1
 65 729 l 1
 -8 729 l 1
EndSplineSet
Refer: 84 73 S 1 0 0 1 1 0 2
EndChar

StartChar: Eth
Encoding: 208 208 219
Width: 794
Flags: HW
TeX: 694 0
HStem: -0 87<237 485.975> 305 73<0 92 237 397> 608 87<237 479.553>
VStem: 92 145<87 305 378 608> 588 145<196.069 492.919>
LayerCount: 2
Fore
SplineSet
0 305 m 1
 0 378 l 1
 92 378 l 1
 92 695 l 1
 382 695 l 2
 448 695 531 690 603 644 c 0
 742 556 732 366 733 337 c 1
 732 66 575 0 382 -0 c 2
 92 -0 l 1
 92 305 l 1
 0 305 l 1
237 87 m 1
 340 87 l 2
 415 87 502 90 552 165 c 0
 582 210 587 267 588 320 c 1
 588 332 l 2
 588 387 587 434 572 482 c 0
 532 602 423 608 349 608 c 2
 237 608 l 1
 237 378 l 1
 397 378 l 1
 397 305 l 1
 237 305 l 1
 237 87 l 1
EndSplineSet
EndChar

StartChar: Ntilde
Encoding: 209 209 220
Width: 794
Flags: HW
TeX: 902 0
HStem: 0 21<91 214 499.686 702> 675 20<91 293.261 578 702> 730 73<426.994 489.744> 830 73<295.646 365.748>
VStem: 91 123<0 574> 213 73<729 821.829> 507 73<810.364 903> 578 124<120 695>
DStem2: 283 695 214 574 0.456474 -0.889737<76.1615 646.258>
LayerCount: 2
Fore
SplineSet
213 729 m 1
 216 865 279 903 322 903 c 0
 395 903 415 803 466 803 c 0
 471 803 477 804 483 806 c 1
 495 816 507 822 507 903 c 1
 580 903 l 1
 577 767 514 730 471 730 c 0
 398 730 379 830 324 830 c 0xf6
 293 830 286 795 286 729 c 1
 213 729 l 1
EndSplineSet
Refer: 89 78 S 1 0 0 1 -0 0 3
EndChar

StartChar: Oacute
Encoding: 211 211 222
Width: 794
Flags: HW
TeX: 862 0
HStem: -22 81<311.591 481.094> 639 78<307.275 486.054>
VStem: 60 148<182.623 504.793> 584 148<182.935 506.306>
AnchorPoint: "below" 397 0 basechar 0
AnchorPoint: "above" 395 843 basechar 0
LayerCount: 2
Fore
SplineSet
258 765 m 1
 379 863 l 1
 572 863 l 1
 361 764 369 764 347 764 c 2
 286 764 l 1
 258 765 l 1
EndSplineSet
Refer: 90 79 S 1 0 0 1 -0 0 3
AlternateSubs2: "Stilistic set 01 subtable" Oacute.vn
AlternateSubs2: "Latin alternatives subtable" Oacute.vn
Substitution2: "Latin Vietnamese substitutions subtable" Oacute.vn
EndChar

StartChar: Ocircumflex
Encoding: 212 212 223
Width: 794
Flags: HW
TeX: 902 0
HStem: -22 81<311.591 481.094> 639 78<307.275 486.054>
VStem: 60 148<182.623 504.793> 584 148<182.935 506.306>
AnchorPoint: "below" 397 0 basechar 0
AnchorPoint: "above" 395 894 basechar 0
LayerCount: 2
Fore
SplineSet
222 729 m 1
 341 914 l 1
 451 914 l 1
 570 729 l 1
 498 729 l 1
 396 840 l 1
 295 729 l 1
 222 729 l 1
EndSplineSet
Refer: 90 79 S 1 0 0 1 -0 0 3
AlternateSubs2: "Stilistic set 01 subtable" Ocircumflex.vn
AlternateSubs2: "Latin alternatives subtable" Ocircumflex.vn
Substitution2: "Latin Vietnamese substitutions subtable" Ocircumflex.vn
EndChar

StartChar: Otilde
Encoding: 213 213 224
Width: 794
Flags: HW
TeX: 902 0
HStem: -22 81<311.591 481.094> 639 78<307.275 486.054> 730 73<426.55 496.667> 830 73<295.412 365.765>
VStem: 60 148<182.623 504.793> 213 72<729 822.45> 507 73<874 903> 584 148<182.935 506.306>
AnchorPoint: "below" 397 0 basechar 0
AnchorPoint: "above" 395 883 basechar 0
LayerCount: 2
Fore
SplineSet
213 729 m 1
 213 730 l 1
 221 875 278 903 322 903 c 0
 396 903 412 803 468 803 c 0
 505 803 506 854 507 903 c 1
 580 903 l 1
 578 874 l 1
 570 795 535 730 470 730 c 0
 398 730 379 830 324 830 c 0
 289 830 286 784 285 729 c 1
 213 729 l 1
EndSplineSet
Refer: 90 79 S 1 0 0 1 0 0 3
AlternateSubs2: "Stilistic set 01 subtable" Otilde.vn
AlternateSubs2: "Latin alternatives subtable" Otilde.vn
Substitution2: "Latin Vietnamese substitutions subtable" Otilde.vn
EndChar

StartChar: OE
Encoding: 338 338 226
Width: 1069
Flags: HW
TeX: 694 0
HStem: -22 72<297.859 485.205> -0 107<664 1023> 314 95<664 977> 590 105<664 1008> 644 73<297.778 487.455>
VStem: 30 145<195.527 499.474> 519 145<108.099 314 409 590.154>
AnchorPoint: "above" 591 717 basechar 0
LayerCount: 2
Fore
SplineSet
30 344 m 0
 30 643 212 717 392 717 c 0xae
 469 717 516 695 604 695 c 2
 1008 695 l 1
 1008 590 l 1
 664 593 l 1
 664 409 l 1
 977 409 l 1
 977 314 l 1
 664 314 l 1
 664 107 l 1
 1023 111 l 1
 1023 -0 l 1
 604 -0 l 2x76
 516 0 469 -22 392 -22 c 0
 207 -22 30 51 30 344 c 0
175 352 m 2
 175 271 180 50 400 50 c 0
 502 50 515 86 519 199 c 1
 519 488 l 1
 518 615 495 644 408 644 c 0
 182 644 175 458 175 363 c 2xae
 175 352 l 2
EndSplineSet
EndChar

StartChar: Oslash
Encoding: 216 216 227
Width: 856
Flags: HW
TeX: 736 41
HStem: -22 72<311.573 540.385> 644 73<313.696 541.3>
VStem: 60 130<187.577 498.219> 663 130<187.272 498.976>
DStem2: 164 -22 232 -61 0.506487 0.862247<0.813482 65.0902 162.247 739.491 835.876 902.293>
LayerCount: 2
Fore
SplineSet
60 342 m 0
 60 642 237 717 426 717 c 0
 486 717 537 709 585 694 c 1
 621 756 l 1
 622 756 l 1
 689 717 l 1
 656 660 l 1
 749 602 793 491 793 340 c 0
 793 154 720 -22 427 -22 c 0
 375 -22 319 -17 267 0 c 1
 232 -61 l 1
 164 -22 l 1
 196 33 l 1
 107 90 60 191 60 342 c 0
190 320 m 1
 191 253 197 176 246 118 c 1
 543 622 l 1
 513 635 479 644 440 644 c 2
 428 644 l 2
 371 644 241 638 202 481 c 0
 191 437 190 392 190 347 c 2
 190 320 l 1
310 71 m 1
 342 58 374 50 427 50 c 0
 661 50 663 234 663 348 c 0
 663 434 658 508 606 576 c 1
 310 71 l 1
EndSplineSet
EndChar

StartChar: Uacute
Encoding: 218 218 229
Width: 764
Flags: HW
TeX: 862 0
HStem: -22 86<291.019 481.382> 675 20<91 239 534 671>
VStem: 91 148<117.939 695> 534 137<117.847 695>
AnchorPoint: "below" 386 0 basechar 0
AnchorPoint: "above" 381 865 basechar 0
LayerCount: 2
Fore
SplineSet
289 765 m 1
 410 863 l 1
 603 863 l 1
 392 764 400 764 378 764 c 2
 317 764 l 1
 289 765 l 1
EndSplineSet
Refer: 96 85 S 1 0 0 1 -0 0 3
AlternateSubs2: "Stilistic set 01 subtable" Uacute.vn
AlternateSubs2: "Latin alternatives subtable" Uacute.vn
Substitution2: "Latin Vietnamese substitutions subtable" Uacute.vn
EndChar

StartChar: Ucircumflex
Encoding: 219 219 230
Width: 764
Flags: HW
TeX: 902 0
HStem: -22 86<291.019 481.382> 675 20<91 239 534 671>
VStem: 91 148<117.939 695> 534 137<117.847 695>
AnchorPoint: "below" 386 0 basechar 0
AnchorPoint: "above" 381 916 basechar 0
LayerCount: 2
Fore
SplineSet
210 729 m 1
 329 914 l 1
 433 914 l 1
 558 729 l 1
 485 729 l 1
 384 840 l 1
 283 729 l 1
 210 729 l 1
EndSplineSet
Refer: 96 85 S 1 0 0 1 0 0 3
EndChar

StartChar: Yacute
Encoding: 221 221 232
Width: 733
Flags: HW
TeX: 862 0
ItalicCorrection: 27
HStem: 0 21<293 438> 675 20<2 248.5 509 728>
VStem: 293 145<0 277>
AnchorPoint: "below" 364 0 basechar 0
AnchorPoint: "above" 364 865 basechar 0
LayerCount: 2
Fore
SplineSet
273 765 m 1
 394 863 l 1
 587 863 l 1
 376 764 384 764 362 764 c 2
 302 764 l 1
 273 765 l 1
EndSplineSet
Refer: 100 89 S 1 0 0 1 -0 0 3
AlternateSubs2: "Stilistic set 01 subtable" Yacute.vn
AlternateSubs2: "Latin alternatives subtable" Yacute.vn
Substitution2: "Latin Vietnamese substitutions subtable" Yacute.vn
EndChar

StartChar: Thorn
Encoding: 222 222 233
Width: 642
Flags: HW
TeX: 694 0
HStem: 0 21G<91 233> 180 87<233 401.224> 505 87<234 394.358> 675 20G<91 233>
VStem: 91 142<0 180 267 505 592 695> 440 140<306.104 463.338>
LayerCount: 2
Fore
SplineSet
91 0 m 1
 91 695 l 1
 233 695 l 1
 233 592 l 1
 336 592 l 1
 407 591 580 595 580 388 c 0
 580 184 417 180 342 180 c 2
 233 180 l 1
 233 0 l 1
 91 0 l 1
233 267 m 1
 309 267 l 2
 354 267 437 267 440 379 c 1
 439 402 447 498 327 505 c 1
 234 505 l 1
 233 471 l 1
 233 267 l 1
EndSplineSet
EndChar

StartChar: Germandbls
Encoding: 61699 61699 234
Width: 1222
Flags: HW
TeX: 694 0
HStem: -22 109<187.225 387.296 796.502 998.763> 613 104<220.794 415.111 831.794 1026.11>
VStem: 60 126<476.739 583.145> 423 126<121.904 241.545> 671 126<476.735 583.145> 1034 126<121.904 242.098>
LayerCount: 2
Fore
SplineSet
48 47 m 1
 71 179 l 1
 99 157 176 87 304 87 c 0
 407 87 423 145 423 184 c 0
 423 239 376 267 351 276 c 0
 333 283 238 301 205 314 c 0
 130 343 60 409 60 509 c 0
 60 588 88 717 304 717 c 0
 386 717 438 705 515 668 c 1
 492 537 l 1
 450 573 408 613 304 613 c 0
 203 613 186 561 186 527 c 0
 186 433 319 442 402 409 c 0
 479 378 549 305 549 199 c 0
 549 89 500 -22 304 -22 c 0
 201 -22 121 6 48 47 c 1
659 47 m 1
 682 179 l 1
 710 157 787 87 915 87 c 0
 1018 87 1034 145 1034 184 c 0
 1034 273 925 286 925 286 c 1
 849 303 837 306 816 314 c 0
 742 343 671 409 671 509 c 0
 671 588 699 717 915 717 c 0
 997 717 1049 705 1126 668 c 1
 1103 537 l 1
 1061 573 1019 613 915 613 c 0
 814 613 797 561 797 527 c 0
 797 433 930 442 1013 409 c 0
 1090 378 1160 305 1160 199 c 0
 1160 89 1112 -22 916 -22 c 0
 813 -22 732 6 659 47 c 1
EndSplineSet
EndChar

StartChar: acircumflex
Encoding: 226 226 237
Width: 525
Flags: HW
TeX: 679 0
HStem: -11 73<127 262.915> 0 21<330 464> 229 41<226.093 328> 422 67<160.567 307.557> 672 20G<191.238 353.45>
VStem: 30 132<80.7037 182.156> 328 136<0 69 93.7098 229 268.984 401.884>
AnchorPoint: "below" 260 0 basechar 0
AnchorPoint: "above" 260 672 basechar 0
LayerCount: 2
Fore
SplineSet
88 541 m 1
 207 692 l 1
 341 692 l 1
 435 541 l 1
 362 541 l 1
 261 631 l 1x3e
 161 541 l 1
 88 541 l 1
EndSplineSet
Refer: 108 97 S 1 0 0 1 0 -0 3
AlternateSubs2: "Stilistic set 01 subtable" acircumflex.vn
AlternateSubs2: "Latin alternatives subtable" acircumflex.vn
Substitution2: "Latin Vietnamese substitutions subtable" acircumflex.vn
EndChar

StartChar: atilde
Encoding: 227 227 238
Width: 525
Flags: HW
TeX: 679 0
HStem: -11 73<127 262.915> 0 21<330 464> 229 41<226.093 328> 422 67<160.567 307.557> 556 72<293.874 375.855> 607 73<171.812 256.282>
VStem: 30 132<80.7037 182.156> 91 73<556 601.775> 328 136<0 69 93.7098 229 268.984 401.884> 384 73<634.225 680>
AnchorPoint: "below" 260 0 basechar 0
AnchorPoint: "above" 260 660 basechar 0
LayerCount: 2
Fore
SplineSet
91 556 m 1x3940
 94 640 150 680 202 680 c 0x3540
 272 680 308 628 344 628 c 0x3940
 359 628 381 637 384 680 c 1
 457 680 l 1x3540
 454 596 398 556 346 556 c 0x3940
 274 556 243 607 202 607 c 0x3540
 186 607 167 597 164 556 c 1
 91 556 l 1x3940
EndSplineSet
Refer: 108 97 S 1 0 0 1 0 -0 3
AlternateSubs2: "Stilistic set 01 subtable" atilde.vn
AlternateSubs2: "Latin alternatives subtable" atilde.vn
Substitution2: "Latin Vietnamese substitutions subtable" atilde.vn
EndChar

StartChar: ae
Encoding: 230 230 241
Width: 794
Flags: HW
TeX: 472 0
HStem: -11 73<122 314.325 515.256 680.961> 250 54<468 647> 422 67<160.662 307.55 517.126 609.248>
VStem: 30 131<81.5621 177.183>
AnchorPoint: "below" 396 0 basechar 0
AnchorPoint: "above" 401 489 basechar 0
LayerCount: 2
Fore
SplineSet
30 132 m 0
 30 278 298 275 328 277 c 1
 328 323 l 2
 328 357 325 422 257 422 c 0
 162 422 115 370 90 346 c 1
 82 446 l 1
 138 474 184 489 260 489 c 0
 328 489 374 479 412 449 c 1
 414 449 l 1
 462 483 524 489 565 489 c 0
 736 489 763 371 763 250 c 1
 465 250 l 1
 465 184 468 123 512 86 c 0
 532 69 557 62 584 62 c 0
 676 62 732 115 749 129 c 1
 757 38 l 1
 702 6 647 -11 578 -11 c 0
 471 -11 421 24 399 44 c 1
 398 44 l 1
 331 -8 218 -11 173 -11 c 0
 71 -11 30 75 30 132 c 0
161 132 m 0
 161 105 180 62 233 62 c 0
 300 62 344 97 344 121 c 0
 344 137 331 163 329 222 c 1
 190 215 161 168 161 132 c 0
468 304 m 1
 647 304 l 1
 640 375 614 416 565 416 c 0
 482 416 470 314 468 304 c 1
EndSplineSet
EndChar

StartChar: ccedilla
Encoding: 231 231 242
Width: 489
Flags: HW
TeX: 472 145
HStem: -168 145<238 250> -11 78<211.756 379.963> 411 78<212.619 380.711>
VStem: 36 137<113.875 361.172> 146 165
AnchorPoint: "above" 279 489 basechar 0
LayerCount: 2
Fore
SplineSet
36 236 m 0
 36 439 149 489 279 489 c 0
 357 489 389 478 451 446 c 1
 435 351 l 1
 393 383 368 411 280 411 c 0
 180 411 175 326 173 257 c 1
 173 228 l 2xf0
 173 131 192 67 278 67 c 0
 370 67 423 112 449 133 c 1
 457 35 l 1
 399 5 348 -11 275 -11 c 0
 151 -11 36 38 36 236 c 0
EndSplineSet
Refer: 23 184 S 1 0 0 1 31 0 2
EndChar

StartChar: ecircumflex
Encoding: 234 234 245
Width: 511
Flags: HW
TeX: 679 0
HStem: -11 73<215.571 391.645> 250 54<162 366> 416 73<208.152 328.31> 672 20G<184.238 325.762>
VStem: 30 128<123.736 250 304 355.071>
AnchorPoint: "below" 282 0 basechar 0
AnchorPoint: "above" 273 672 basechar 0
LayerCount: 2
Fore
SplineSet
81 541 m 1
 200 692 l 1
 310 692 l 1
 429 541 l 1
 369 541 l 2
 352 541 359 538 254 631 c 1
 154 542 160 542 140 541 c 1
 81 541 l 1
EndSplineSet
Refer: 112 101 S 1 0 0 1 -0 0 3
AlternateSubs2: "Stilistic set 01 subtable" ecircumflex.vn
AlternateSubs2: "Latin alternatives subtable" ecircumflex.vn
Substitution2: "Latin Vietnamese substitutions subtable" ecircumflex.vn
EndChar

StartChar: icircumflex
Encoding: 238 238 249
Width: 256
Flags: HW
TeX: 679 0
HStem: 0 21<61 195> 452 20<61 195> 672 20G<58.2384 198.762>
VStem: 61 134<0 472>
AnchorPoint: "below" 127 0 basechar 0
AnchorPoint: "above" 127 689 basechar 0
LayerCount: 2
Fore
SplineSet
-45 541 m 1
 74 692 l 1
 183 692 l 1
 302 541 l 1
 229 541 l 1
 129 631 l 1
 128 631 l 1
 28 541 l 1
 -45 541 l 1
EndSplineSet
Refer: 36 305 S 1 0 0 1 1 -0 2
Ligature2: "Latin ligatures excepting Turkic subtable" i uni0302
EndChar

StartChar: eth
Encoding: 240 240 251
Width: 550
Flags: HW
TeX: 694 0
HStem: -11 78<205.546 341.087> 416 73<205.315 309.936> 675 20G<154.471 215 246 294>
VStem: 30 137<107.793 361.879> 382 136<112.535 370.899>
LayerCount: 2
Fore
SplineSet
30 230 m 0
 30 357 72 489 273 489 c 0
 286 489 298 489 311 488 c 1
 292 513 271 536 246 555 c 1
 221 541 l 1
 185 603 196 590 164 606 c 1
 143 615 120 622 98 627 c 1
 178 695 l 1
 215 685 l 1
 246 675 l 1
 279 695 l 1
 309 643 307 645 324 633 c 0
 424 564 502 454 516 323 c 0
 518 306 518 288 518 270 c 2
 518 243 l 2
 518 129 491 -11 274 -11 c 0
 78 -11 30 105 30 230 c 0
167 260 m 0
 168 169 160 67 274 67 c 0
 380 67 382 159 382 240 c 2
 382 247 l 2
 382 311 383 416 274 416 c 0
 175 416 167 337 167 260 c 0
EndSplineSet
EndChar

StartChar: ntilde
Encoding: 241 241 252
Width: 561
Flags: HW
TeX: 679 0
HStem: 0 21<59 196 364 500> 411 72<268.362 421.703> 556 73<296.973 382.1> 607 73<177.186 262.636>
VStem: 59 137<0 363.321 373 478> 97 72<556 601.646> 364 136<0 396.942> 390 73<633.553 680>
LayerCount: 2
Fore
SplineSet
97 556 m 1xe5
 99 632 148 680 208 680 c 0xd5
 281 680 308 629 351 629 c 0xe5
 367 629 387 639 390 680 c 1
 463 680 l 1xd5
 460 602 411 556 352 556 c 0xe5
 279 556 251 607 208 607 c 0xd5
 192 607 172 597 169 556 c 1
 97 556 l 1xe5
EndSplineSet
Refer: 121 110 S 1 0 0 1 -0 0 3
EndChar

StartChar: otilde
Encoding: 245 245 256
Width: 550
Flags: HW
TeX: 679 0
HStem: -11 78<204.572 342.413> 416 73<204.479 342.036> 556 73<291.079 377.756> 607 73<171.742 256.921>
VStem: 30 137<111.057 360.16> 91 73<556 601.775> 382 136<109.508 360.625> 385 72<636.547 680>
AnchorPoint: "below" 275 0 basechar 0
AnchorPoint: "above" 273 660 basechar 0
LayerCount: 2
Fore
SplineSet
91 556 m 1xe5
 94 640 149 680 202 680 c 0xd5
 275 680 302 629 345 629 c 0xe5
 361 629 382 639 385 680 c 1
 457 680 l 1xd5
 454 602 405 556 346 556 c 0xe5
 273 556 246 607 203 607 c 0xd5
 187 607 167 597 164 556 c 1
 91 556 l 1xe5
EndSplineSet
Refer: 122 111 S 1 0 0 1 -0 -0 3
AlternateSubs2: "Stilistic set 01 subtable" otilde.vn
AlternateSubs2: "Latin alternatives subtable" otilde.vn
Substitution2: "Latin Vietnamese substitutions subtable" otilde.vn
EndChar

StartChar: oe
Encoding: 339 339 258
Width: 856
Flags: HW
TeX: 472 0
HStem: -11 73<206.111 345.566 575.952 741.793> 250 54<529 708> 417 72<200.756 349.725 571.188 672.22>
VStem: 30 131<112.31 362.436> 389 137<118.002 250>
AnchorPoint: "below" 427 0 basechar 0
AnchorPoint: "above" 442 489 basechar 0
LayerCount: 2
Fore
SplineSet
30 239 m 0
 30 439 151 489 275 489 c 0
 384 489 430 457 456 434 c 1
 477 453 524 489 627 489 c 0
 825 489 823 323 824 250 c 1
 526 250 l 1
 526 184 529 123 573 86 c 0
 593 69 618 62 645 62 c 0
 737 62 793 115 810 129 c 1
 818 38 l 1
 763 6 707 -11 639 -11 c 0
 530 -11 484 26 457 46 c 1
 435 26 387 -11 277 -11 c 0
 79 -11 30 109 30 239 c 0
161 234 m 0
 161 145 170 62 277 62 c 0
 387 62 389 160 389 233 c 2
 389 256 l 2
 389 353 374 417 275 417 c 0
 155 417 161 315 161 234 c 0
529 304 m 1
 708 304 l 1
 701 375 675 416 626 416 c 0
 543 416 531 314 529 304 c 1
EndSplineSet
EndChar

StartChar: oslash
Encoding: 248 248 259
Width: 550
Flags: HW
TeX: 555 83
HStem: -11 72<220.976 351.856> 417 72<197.726 329.393>
VStem: 30 120<120.938 362.096> 398 120<110.922 350.039>
DStem2: 59 -65 122 -101 0.499057 0.866569<0.244103 112.891 213.714 523.054 624.838 737.391>
LayerCount: 2
Fore
SplineSet
30 224 m 0
 30 361 72 489 274 489 c 0
 318 489 342 484 371 477 c 1
 427 574 l 1
 490 538 l 1
 436 443 l 1
 467 420 518 368 518 230 c 0
 518 37 401 -11 274 -11 c 0
 240 -11 210 -8 180 -0 c 1
 122 -101 l 1
 59 -65 l 1
 113 31 l 1
 84 52 30 98 30 224 c 0
150 240 m 0
 150 194 150 156 166 120 c 1
 330 406 l 1
 314 412 297 417 274 417 c 0
 160 417 150 328 150 240 c 0
220 70 m 1
 237 64 256 61 274 61 c 0
 397 61 398 154 398 232 c 2
 398 239 l 2
 398 278 397 310 383 352 c 1
 220 70 l 1
EndSplineSet
EndChar

StartChar: ucircumflex
Encoding: 251 251 262
Width: 561
Flags: HW
TeX: 679 0
HStem: -11 61<138.129 296.218> 0 21<367 500> 452 20<59 196 364 500> 672 20G<209.238 350.629>
VStem: 59 137<57.5376 472> 364 136<0 80 94.5801 472>
AnchorPoint: "below" 280 0 basechar 0
AnchorPoint: "above" 280 689 basechar 0
LayerCount: 2
Fore
SplineSet
106 541 m 1
 225 692 l 1
 335 692 l 1
 453 541 l 1
 380 541 l 1
 279 631 l 1x3c
 179 541 l 1
 106 541 l 1
EndSplineSet
Refer: 128 117 S 1 0 0 1 0 -0 3
EndChar

StartChar: thorn
Encoding: 254 254 265
Width: 561
Flags: HW
TeX: 694 166
HStem: -167 21G<60 197> -11 73<240.813 337.264> 405 78<258.586 405.5> 675 20G<60 194>
VStem: 60 137<-167 44 77.4786 388 422 695> 386 137<117.744 354.989>
LayerCount: 2
Fore
SplineSet
60 -167 m 1
 60 695 l 1
 194 695 l 1
 194 422 l 1
 235 455 290 483 364 483 c 0
 447 483 492 429 511 355 c 0
 520 318 523 279 523 241 c 0
 523 156 510 77 451 29 c 0
 413 -2 363 -11 326 -11 c 0
 268 -11 230 12 197 44 c 1
 197 -167 l 1
 60 -167 l 1
197 96 m 1
 203 90 227 62 273 62 c 0
 311 62 343 80 361 110 c 0
 385 151 386 197 386 235 c 2
 386 247 l 2
 386 295 380 405 283 405 c 0
 239 405 213 385 197 374 c 1
 197 96 l 1
EndSplineSet
EndChar

StartChar: germandbls
Encoding: 223 223 266
Width: 565
Flags: HW
TeX: 694 0
HStem: -11 73<243.969 373.928> 0 21G<60 194> 400 72<255 333.25> 633 73<207.672 355.344>
VStem: 60 134<0 617.426> 368 135<500.638 618.129> 398 135<86.1932 322.125>
LayerCount: 2
Fore
SplineSet
60 0 m 1
 60 560 l 2
 60 690 182 706 277 706 c 2x7c
 296 706 l 1
 360 705 503 696 503 570 c 0x7c
 503 542 496 472 425 433 c 1
 425 432 l 1
 495 390 533 308 533 191 c 0
 533 29 429 -11 325 -11 c 0
 275 -11 244 0 225 7 c 1
 250 76 l 1
 270 69 291 62 318 62 c 0
 396 62 398 133 398 184 c 2
 398 191 l 1xba
 397 266 398 396 255 400 c 1
 255 472 l 1
 313 472 368 483 368 569 c 0
 368 634 314 632 282 633 c 1
 222 633 194 623 194 562 c 2
 194 0 l 1
 60 0 l 1
EndSplineSet
EndChar

StartChar: grave.uc
Encoding: 65542 -1 267
Width: 550
Flags: HW
TeX: 642 0
HStem: 542 99
VStem: 52 315
LayerCount: 2
Fore
SplineSet
52 641 m 1
 245 641 l 1
 367 542 l 1
 280 542 l 1
 264 543 l 1
 250 548 l 1
 52 641 l 1
EndSplineSet
EndChar

StartChar: acute.uc
Encoding: 65543 -1 268
Width: 550
Flags: HW
TeX: 642 0
HStem: 542 99
VStem: 182 315
LayerCount: 2
Fore
SplineSet
182 542 m 1
 303 641 l 1
 466 641 l 1
 497 640 l 1
 286 541 293 542 271 542 c 2
 182 542 l 1
EndSplineSet
EndChar

StartChar: tilde.uc
Encoding: 65544 -1 269
Width: 550
Flags: HW
TeX: 680 0
HStem: 507 73<304.407 374.683> 607 73<173.556 243.686>
VStem: 91 73<507 600.018> 385 72<586.982 680>
LayerCount: 2
Fore
SplineSet
91 507 m 1
 92 610 135 680 200 680 c 0
 273 680 290 580 346 580 c 0
 383 580 385 633 385 680 c 1
 457 680 l 1
 456 577 413 507 348 507 c 0
 276 507 256 607 204 607 c 0
 172 607 164 577 164 507 c 1
 91 507 l 1
EndSplineSet
EndChar

StartChar: hungarumlaut.uc
Encoding: 65545 -1 271
Width: 550
Flags: HW
TeX: 642 0
ItalicCorrection: 68
HStem: 542 99
LayerCount: 2
Fore
SplineSet
90 542 m 1
 211 641 l 1
 538 641 l 1
 588 640 l 1
 377 541 384 542 362 542 c 2
 273 542 l 1
 378 628 l 1
 216 553 l 1
 193 543 l 1
 176 542 l 1
 90 542 l 1
EndSplineSet
EndChar

StartChar: ring.uc
Encoding: 65546 -1 272
Width: 764
Flags: HW
TeX: 680 0
HStem: 434 73<327.04 436.001> 608 72<325.852 436.349>
VStem: 259 61<512.471 601.776> 442 61<513.744 602.964>
LayerCount: 2
Fore
SplineSet
259 558 m 0
 259 635 296 680 382 680 c 0
 479 680 503 620 503 556 c 0
 503 458 442 434 380 434 c 0
 318 434 259 459 259 558 c 0
320 557 m 0
 320 510 345 507 378 507 c 2
 379 507 l 1
 411 508 442 506 442 557 c 0
 442 606 417 608 383 608 c 1
 350 607 320 609 320 557 c 0
EndSplineSet
EndChar

StartChar: twelveudash
Encoding: 61700 61700 273
Width: 733
Flags: HW
TeX: 475 0
ItalicCorrection: 30
HStem: 256 72<0 733>
LayerCount: 2
Fore
SplineSet
0 256 m 1
 0 328 l 1
 733 328 l 1
 733 256 l 1
 0 256 l 1
EndSplineSet
EndChar

StartChar: threequartersemdash
Encoding: 63198 63198 274
Width: 825
Flags: HW
TeX: 475 0
ItalicCorrection: 30
HStem: 256 72<0 824>
LayerCount: 2
Fore
SplineSet
0 256 m 1
 0 328 l 1
 824 328 l 1
 824 256 l 1
 0 256 l 1
EndSplineSet
EndChar

StartChar: arrowleft
Encoding: 8592 8592 275
Width: 1100
Flags: HW
TeX: 423 -104
HStem: 222 83<245 1031.88>
VStem: 262 84<14 81.9254 444.468 514>
LayerCount: 2
Fore
SplineSet
60 264 m 1
 157 305 238 393 262 514 c 1
 346 514 l 1
 332 436 297 369 245 305 c 1
 982 305 l 2
 989 305 997 305 1004 304 c 0
 1023 301 1037 283 1037 264 c 0
 1037 245 1024 226 1005 223 c 0
 998 222 990 222 983 222 c 2
 245 222 l 1
 291 165 330 102 346 14 c 1
 262 14 l 1
 227 191 86 251 60 264 c 1
EndSplineSet
EndChar

StartChar: arrowright
Encoding: 8594 8594 276
Width: 1100
Flags: HW
TeX: 423 -104
HStem: 222 83<65.4316 853>
VStem: 752 83<14 83.4253 446.021 514>
LayerCount: 2
Fore
SplineSet
60 263 m 0
 60 282 74 301 93 304 c 0
 100 305 108 305 115 305 c 2
 853 305 l 1
 801 369 766 435 752 514 c 1
 835 514 l 1
 870 337 1012 276 1038 263 c 1
 941 222 859 135 835 14 c 1
 752 14 l 1
 766 92 801 158 853 222 c 1
 115 222 l 2
 108 222 100 222 93 223 c 0
 74 226 60 244 60 263 c 0
EndSplineSet
EndChar

StartChar: uni0361.alt
Encoding: 61701 61701 277
Width: 256
Flags: HW
TeX: 694 0
ItalicCorrection: 343
HStem: 584 86<165.596 485.185>
LayerCount: 2
Fore
SplineSet
59 571 m 1
 65 643 154 670 326 670 c 0
 495 670 586 643 592 571 c 1
 455 571 l 1
 444 579 440 584 325 584 c 0
 233 584 211 581 196 571 c 1
 59 571 l 1
EndSplineSet
EndChar

StartChar: uni0361
Encoding: 865 865 278
Width: 0
Flags: HW
TeX: 916 0
ItalicCorrection: 373
HStem: 595 85<-91.9876 152.544>
AnchorPoint: "affricate-above" 29 489 mark 0
LayerCount: 2
Fore
SplineSet
-274 507 m 1
 -271 614 -185 667 -49 678 c 1
 -7 680 l 1
 47 680 l 1
 152 679 327 664 332 507 c 1
 195 507 l 1
 189 588 99 595 30 595 c 0
 -33 595 -130 591 -137 507 c 1
 -274 507 l 1
EndSplineSet
EndChar

StartChar: uni2040.alt
Encoding: 61702 61702 279
Width: 500
Flags: HW
TeX: 694 0
ItalicCorrection: 343
HStem: 584 86<155.401 342.025>
LayerCount: 2
Fore
SplineSet
60 571 m 1
 66 662 169 670 249 670 c 0
 316 670 432 666 438 571 c 1
 301 571 l 1
 289 585 279 583 246 584 c 1
 202 583 203 577 197 571 c 1
 60 571 l 1
EndSplineSet
EndChar

StartChar: uni2040
Encoding: 8256 8256 280
Width: 500
Flags: HW
TeX: 694 0
ItalicCorrection: 373
HStem: 595 85<167.173 331.531>
LayerCount: 2
Fore
SplineSet
0 507 m 1
 4 676 169 680 250 680 c 0
 352 680 496 666 500 507 c 1
 363 507 l 1
 360 581 304 595 256 595 c 2
 250 595 l 2
 215 595 140 593 137 507 c 1
 0 507 l 1
EndSplineSet
EndChar

StartChar: uni2422
Encoding: 9250 9250 281
Width: 561
Flags: HW
TeX: 694 0
HStem: -11 73<240.888 347.351> 0 21G<61 198> 411 72<254.417 388.5> 675 20G<61 195>
VStem: 61 137<0 44 78.7013 393.08 652 695> 388 136<104.899 370.295>
DStem2: -50 456 10 381 0.779012 0.627009<0 65.779 313.752 473.05>
LayerCount: 2
Fore
SplineSet
-50 456 m 1
 61 545 l 1
 61 695 l 1
 195 695 l 1
 195 652 l 1
 319 752 l 1
 379 678 l 1
 195 530 l 1
 195 424 l 1
 235 456 286 483 355 483 c 0
 422 483 516 454 523 271 c 1
 524 233 l 1
 522 167 516 94 466 42 c 0
 435 9 384 -11 326 -11 c 0xbc
 268 -11 231 12 198 44 c 1
 198 0 l 1
 61 0 l 1x7c
 61 423 l 1
 10 381 l 1
 -50 456 l 1
198 97 m 1
 207 89 229 62 276 62 c 0
 384 62 388 147 388 223 c 2
 388 241 l 2xbc
 388 322 387 411 286 411 c 0
 249 411 224 398 198 378 c 1
 198 97 l 1
EndSplineSet
EndChar

StartChar: quotesingle
Encoding: 39 39 282
Width: 306
Flags: HW
TeX: 694 0
HStem: 397 298<115 188>
VStem: 115 73<397 462.188>
LayerCount: 2
Fore
SplineSet
83 695 m 1
 220 695 l 1
 188 397 l 1
 115 397 l 1
 83 695 l 1
EndSplineSet
EndChar

StartChar: fraction
Encoding: 8260 8260 285
Width: 550
Flags: HW
TeX: 750 222
DStem2: 68 -151 149 -173 0.361973 0.932189<-30.3355 952.954>
LayerCount: 2
Fore
SplineSet
60 -181 m 0
 60 -169 66 -157 68 -151 c 2
 399 703 l 2
 407 723 416 750 446 750 c 0
 467 750 487 732 487 709 c 0
 487 700 484 690 481 682 c 2
 149 -173 l 2
 141 -193 133 -222 102 -222 c 0
 83 -222 60 -206 60 -181 c 0
EndSplineSet
EndChar

StartChar: zerooldstyle
Encoding: 63280 63280 286
Width: 550
Flags: HW
TeX: 475 0
HStem: -22 72<211.476 336.789> 422 72<209.52 338.897>
VStem: 42 136<89.8236 377.885> 369 137<89.5648 382.095>
LayerCount: 2
Fore
SplineSet
42 229 m 0
 43 315 42 494 258 494 c 0
 330 494 414 491 464 420 c 0
 505 361 506 285 506 229 c 0
 506 81 463 -22 292 -22 c 2
 278 -22 l 2
 204 -22 82 -18 51 127 c 0
 44 160 42 195 42 229 c 0
178 272 m 0
 178 260 179 248 179 236 c 0
 179 143 185 101 202 80 c 0
 219 59 247 50 274 50 c 0
 358 50 369 109 369 224 c 0
 369 239 369 254 369 269 c 0
 369 373 355 422 274 422 c 0
 184 422 178 355 178 272 c 0
EndSplineSet
EndChar

StartChar: oneoldstyle
Encoding: 63281 63281 287
Width: 550
Flags: HW
TeX: 475 0
HStem: 0 73<91 217 355 473> 352 73<76 214.797> 452 20G<313.5 355>
VStem: 217 138<73 362>
LayerCount: 2
Fore
SplineSet
76 352 m 1
 76 425 l 1
 287 425 295 472 332 472 c 2
 355 472 l 1
 355 73 l 1
 473 73 l 1
 473 0 l 1
 91 0 l 1
 91 73 l 1
 217 73 l 1
 217 362 l 1
 170 354 123 352 76 352 c 1
EndSplineSet
EndChar

StartChar: twooldstyle
Encoding: 63282 63282 288
Width: 550
Flags: HW
TeX: 475 0
HStem: -0 107<148 494> 394 101<170.361 321.319>
VStem: 353 141<260.842 365.29>
LayerCount: 2
Fore
SplineSet
45 404 m 1
 77 434 131 495 259 495 c 0
 396 495 494 424 494 319 c 0
 494 223 384 216 291 177 c 0
 276 171 262 163 148 106 c 1
 258 106 l 1
 285 107 l 1
 494 107 l 1
 494 -0 l 1
 48 -0 l 1
 48 100 l 1
 183 177 l 1
 280 222 353 246 353 317 c 0
 353 364 308 394 244 394 c 0
 183 394 152 364 130 331 c 1
 45 404 l 1
EndSplineSet
EndChar

StartChar: threeoldstyle
Encoding: 63283 63283 289
Width: 550
Flags: HW
TeX: 475 166
HStem: -189 95<144.154 327.516> 142 73<183 283.545> 405 90<174.632 318.829>
VStem: 332 140<264.339 392.902> 355 148<-66.7058 106.679>
LayerCount: 2
Fore
SplineSet
45 -123 m 1
 63 -29 l 1
 103 -56 165 -94 259 -94 c 0xe8
 336 -94 355 -52 355 19 c 0xe8
 355 54 356 101 321 126 c 0
 299 142 272 142 246 142 c 2
 183 142 l 1
 183 215 l 1
 221 218 248 217 273 230 c 0
 293 241 332 272 332 334 c 0
 332 378 318 405 262 405 c 0
 186 405 144 367 116 335 c 1
 60 408 l 1
 110 458 173 495 264 495 c 0
 444 495 472 398 472 333 c 0xf0
 472 242 403 200 367 180 c 1
 393 173 503 149 503 22 c 0
 503 -86 451 -189 262 -189 c 0
 167 -189 98 -158 45 -123 c 1
EndSplineSet
EndChar

StartChar: fouroldstyle
Encoding: 63284 63284 290
Width: 550
Flags: HW
TeX: 475 166
HStem: 0 95<139 304 428 518> 452 20G<256.287 428>
VStem: 309 119<-189 0 95 370>
DStem2: 30 96 139 95 0.53644 0.843939<57.628 380.906>
LayerCount: 2
Fore
SplineSet
30 0 m 1
 30 96 l 1
 269 472 l 1
 428 472 l 1
 428 95 l 1
 518 95 l 1
 518 0 l 1
 428 0 l 1
 428 -189 l 1
 304 -189 l 1
 304 0 l 1
 30 0 l 1
139 95 m 1
 309 95 l 1
 309 370 l 1
 257 282 l 1
 139 95 l 1
EndSplineSet
EndChar

StartChar: fiveoldstyle
Encoding: 63285 63285 291
Width: 550
Flags: HW
TeX: 475 166
HStem: -189 95<168.525 316.764> -29 20G<98.4286 121> 178 73<224.081 327.222> 372 100<214 458>
VStem: 82 132<234 372> 347 148<-63.6872 147.369>
LayerCount: 2
Fore
SplineSet
55 -93 m 1
 112 -9 l 1
 130 -42 165 -94 244 -94 c 0
 339 -94 347 -41 347 33 c 2
 347 64 l 2
 347 120 342 178 282 178 c 0
 223 178 195 125 184 99 c 1
 82 99 l 1
 82 472 l 1
 458 472 l 1
 458 372 l 1
 214 372 l 1
 214 234 l 1
 241 247 257 251 287 251 c 0
 390 251 495 208 495 36 c 0
 495 -144 369 -189 247 -189 c 0
 155 -189 93 -146 55 -93 c 1
EndSplineSet
EndChar

StartChar: sevenoldstyle
Encoding: 63287 63287 293
Width: 550
Flags: HW
TeX: 475 166
HStem: -178 21G<142 284> 365 108<45 422>
VStem: 142 142<-178 -15.1946>
LayerCount: 2
Fore
SplineSet
45 364 m 1
 45 473 l 1
 503 472 l 1
 503 371 l 1
 393 256 284 67 284 -178 c 1
 142 -178 l 1
 142 -93 157 171 422 366 c 1
 343 366 l 1
 317 365 l 1
 115 365 l 1
 92 364 l 1
 45 364 l 1
EndSplineSet
EndChar

StartChar: nineoldstyle
Encoding: 63289 63289 295
Width: 550
Flags: HW
TeX: 475 166
HStem: -189 95<147.09 305.79> 14 73<207.009 299.88> 406 89<210.535 328.531>
VStem: 45 140<113.328 378.949> 362 141<-12.1698 344.948>
LayerCount: 2
Fore
SplineSet
45 240 m 0
 45 300 47 357 84 409 c 0
 126 468 179 495 276 495 c 0
 407 495 472 418 494 296 c 0
 502 252 503 206 503 162 c 0
 503 54 489 -60 410 -129 c 0
 360 -173 290 -189 227 -189 c 0
 168 -189 129 -176 79 -144 c 1
 127 -60 l 1
 158 -81 183 -94 227 -94 c 0
 335 -94 362 -17 362 107 c 2
 362 115 l 1
 346 77 307 14 224 14 c 0
 161 14 120 33 86 80 c 0
 49 131 45 180 45 240 c 0
185 217 m 0
 185 143 191 87 265 87 c 0
 342 87 362 175 362 244 c 0
 362 329 355 406 272 406 c 0
 190 406 185 345 185 270 c 2
 185 262 l 2
 185 259 186 257 186 254 c 0
 186 241 185 229 185 217 c 0
EndSplineSet
EndChar

StartChar: angleleft
Encoding: 9001 9001 296
Width: 428
Flags: HW
TeX: 750 222
DStem2: 127 287 207 263 0.341743 0.939793<4.7844 476.459> 207 263 127 240 0.339755 -0.940514<0 471.679>
LayerCount: 2
Fore
SplineSet
121 264 m 0
 121 272 124 279 127 287 c 2
 279 705 l 2
 282 712 290 750 324 750 c 0
 345 750 365 733 365 708 c 0
 365 696 360 685 356 674 c 2
 207 263 l 1
 356 -146 l 2
 360 -157 365 -170 365 -182 c 0
 365 -206 345 -222 324 -222 c 0
 288 -222 279 -181 278 -178 c 2
 127 240 l 2
 124 248 121 256 121 264 c 0
EndSplineSet
EndChar

StartChar: minus
Encoding: 8722 8722 297
Width: 672
Flags: HW
TeX: 538 11
HStem: 227 73<64.3223 605.919>
LayerCount: 2
Fore
SplineSet
61 263 m 0
 61 272 65 300 104 300 c 2
 564 300 l 2
 605 300 609 274 609 264 c 0
 609 254 605 227 564 227 c 2
 104 227 l 2
 64 227 61 253 61 263 c 0
EndSplineSet
EndChar

StartChar: angleright
Encoding: 9002 9002 298
Width: 428
Flags: HW
TeX: 750 222
DStem2: 70 -147 147 -178 0.341743 0.939793<-33.8996 437.175> 299 287 219 264 0.341743 -0.939793<-476.799 -5.7242>
LayerCount: 2
Fore
SplineSet
60 -180 m 0
 60 -168 67 -155 70 -147 c 2
 219 264 l 1
 70 673 l 2
 66 684 60 696 60 708 c 0
 60 733 80 750 101 750 c 0
 134 750 142 719 147 705 c 2
 299 287 l 2
 301 280 304 272 304 263 c 0
 304 255 302 247 299 240 c 2
 147 -178 l 2
 144 -186 136 -222 102 -222 c 0
 81 -222 60 -205 60 -180 c 0
EndSplineSet
EndChar

StartChar: uni2127
Encoding: 8487 8487 299
Width: 794
Flags: HW
TeX: 694 0
HStem: -22 72<290.193 475> 587 108<48 245 548 745>
VStem: 60 148<126.43 328.188> 584 148<125.265 328.281>
LayerCount: 2
Fore
SplineSet
48 587 m 1
 48 695 l 1
 343 695 l 1
 341 523 208 399 208 230 c 0
 208 52 335 50 399 50 c 2
 402 50 l 2
 511 50 584 92 584 229 c 0
 584 398 452 524 450 695 c 1
 745 695 l 1
 745 587 l 1
 666 587 l 1
 548 588 l 1
 621 446 732 367 732 230 c 0
 732 166 714 18 507 -15 c 1
 475 -19 l 1
 437 -22 l 1
 391 -22 l 2
 154 -22 60 78 60 229 c 0
 60 366 171 445 245 588 c 1
 127 587 l 1
 48 587 l 1
EndSplineSet
EndChar

StartChar: circle
Encoding: 9675 9675 300
Width: 1143
Flags: HW
TeX: 750 222
HStem: -245 83<402.412 738.999> 689 84<395.561 740.248>
VStem: 60 83<97.4962 431.346> 997 83<93.7213 433.415>
LayerCount: 2
Fore
SplineSet
60 264 m 0
 60 671 318 773 569 773 c 0
 978 773 1080 519 1080 264 c 0
 1080 -143 823 -245 571 -245 c 0
 162 -245 60 9 60 264 c 0
143 264 m 0
 143 -1 260 -162 569 -162 c 0
 874 -162 997 -8 997 264 c 0
 997 569 842 689 570 689 c 0
 339 689 143 604 143 264 c 0
EndSplineSet
EndChar

StartChar: uni301A
Encoding: 12314 12314 302
Width: 443
Flags: HW
TeX: 750 222
HStem: -222 83<193 248 331 418> 667 83<194 248 331 418>
VStem: 110 83<-139 667> 248 83<-139 667>
LayerCount: 2
Fore
SplineSet
110 -222 m 1
 110 750 l 1
 418 750 l 1
 418 667 l 1
 331 667 l 1
 331 -139 l 1
 418 -139 l 1
 418 -222 l 1
 110 -222 l 1
193 -139 m 1
 248 -139 l 1
 248 667 l 1
 194 667 l 1
 193 628 l 1
 193 -139 l 1
EndSplineSet
EndChar

StartChar: uni301B
Encoding: 12315 12315 303
Width: 443
Flags: HW
TeX: 750 222
HStem: -222 83<24 110 194 248> 667 83<24 110 194 248>
VStem: 110 84<-139 667> 248 83<-139 667>
LayerCount: 2
Fore
SplineSet
24 -139 m 1
 110 -139 l 1
 110 667 l 1
 24 667 l 1
 24 750 l 1
 331 750 l 1
 331 -222 l 1
 24 -222 l 1
 24 -139 l 1
194 -139 m 1
 248 -139 l 1
 248 667 l 1
 194 667 l 1
 194 -139 l 1
EndSplineSet
EndChar

StartChar: arrowup
Encoding: 8593 8593 304
Width: 550
Flags: HW
TeX: 694 166
HStem: -166 21G<266.5 281.5> 403 83<30 93.9716 456.656 518> 675 20G<265.5 280.5>
VStem: 232 84<-161.625 504>
LayerCount: 2
Fore
SplineSet
30 403 m 1
 30 486 l 1
 196 523 257 649 274 695 c 1
 287 666 339 526 518 486 c 1
 518 403 l 1
 432 421 365 461 316 504 c 1
 316 -116 l 2
 316 -161 289 -166 274 -166 c 0
 259 -166 232 -161 232 -116 c 2
 232 504 l 1
 183 461 116 421 30 403 c 1
EndSplineSet
EndChar

StartChar: arrowdown
Encoding: 8595 8595 305
Width: 550
Flags: HW
TeX: 694 166
HStem: -167 21G<265.5 280.5> 41 84<30 93.9716 456.369 518> 674 20G<266.5 281.5>
VStem: 232 84<23 689.286>
LayerCount: 2
Fore
SplineSet
30 41 m 1
 30 125 l 1
 116 107 183 66 232 23 c 1
 232 643 l 2
 232 688 259 694 274 694 c 0
 289 694 316 688 316 643 c 2
 316 23 l 1
 365 66 432 107 518 125 c 1
 518 41 l 1
 338 0 287 -139 274 -167 c 1
 257 -121 196 4 30 41 c 1
EndSplineSet
EndChar

StartChar: uni22C6
Encoding: 8902 8902 307
Width: 550
Flags: HW
TeX: 500 -27
HStem: -6 21G<106.532 120.692 430.308 444.468> 329 3<551.158 563>
VStem: 275 1<509.173 540>
LayerCount: 2
Fore
SplineSet
-12 332 m 1
 224 311 l 1
 275 540 l 1
 276 540 l 1
 328 311 l 1
 533 329 l 1
 563 332 l 1
 360 212 l 1
 453 -6 l 1
 276 150 l 1
 275 150 l 1
 98 -6 l 1
 191 212 l 1
 -12 332 l 1
EndSplineSet
EndChar

StartChar: uni26AE
Encoding: 9902 9902 308
Width: 550
Flags: HW
TeX: 500 -27
HStem: 28 105<-97.6918 47.9466 501.143 646.569> 395 105<-99.6542 50.4908 500.351 650.425>
VStem: -235 105<165.626 361.984> 79 127<163.179 367.768> 207 137<-122 650> 345 127<163.937 367.86> 681 105<165.076 363.117>
LayerCount: 2
Fore
SplineSet
-235 266 m 0
 -235 434 -149 500 -20 500 c 0
 161 500 206 386 206 264 c 0
 206 99 122 28 -20 28 c 0
 -192 28 -235 141 -235 266 c 0
-130 255 m 2
 -130 195 -123 138 -35 133 c 1
 -10 133 l 1
 74 137 79 192 79 253 c 2
 79 277 l 2
 79 339 73 395 -19 395 c 0
 -104 395 -130 364 -130 273 c 2
 -130 255 l 2
207 -122 m 1
 207 650 l 1
 344 650 l 1
 344 -122 l 1
 207 -122 l 1
345 263 m 0
 345 387 390 500 571 500 c 0
 743 500 786 387 786 264 c 0
 786 153 752 28 583 28 c 2
 573 28 l 2
 509 28 345 35 345 263 c 0
472 251 m 2
 472 188 477 133 570 133 c 0
 659 133 681 171 681 255 c 2
 681 273 l 2
 681 399 617 395 560 395 c 1
 471 391 472 325 472 276 c 2
 472 251 l 2
EndSplineSet
EndChar

StartChar: uni271D
Encoding: 10013 10013 309
Width: 550
Flags: HW
TeX: 616 22
HStem: -22 21G<206 342> 361 105<60 206 342 488>
VStem: 206 136<-22 368 459 617>
LayerCount: 2
Fore
SplineSet
60 361 m 1
 60 466 l 1
 206 459 l 1
 206 617 l 1
 342 617 l 1
 342 459 l 1
 488 466 l 1
 488 361 l 1
 342 368 l 1
 342 -22 l 1
 206 -22 l 1
 206 368 l 1
 60 361 l 1
EndSplineSet
EndChar

StartChar: leaf
Encoding: 61704 61704 310
Width: 1100
Flags: HW
TeX: 694 0
HStem: -79 51<107.767 474.594> 149 50<363 787> 357 50<693 967> 723 50<635.884 991.401>
VStem: 251 50<220 488> 580 51<428 688>
DStem2: 32 49 58 6 0.84531 0.534276<0 258.853 359.939 648.624 750.021 1195.02>
LayerCount: 2
Fore
SplineSet
-24 4 m 0
 -24 14 -18 62 -10 100 c 0
 78 526 453 773 803 773 c 0
 889 773 985 763 1095 723 c 0
 1114 716 1125 710 1125 690 c 0
 1125 680 1120 633 1112 595 c 0
 1033 212 697 -78 290 -79 c 0
 212 -79 113 -67 6 -29 c 0
 -13 -22 -24 -16 -24 4 c 0
32 49 m 1
 251 187 l 1
 251 488 l 1
 148 388 59 231 32 49 c 1
58 6 m 1
 136 -15 197 -28 289 -28 c 0
 431 -28 585 5 742 114 c 0
 758 125 773 137 787 149 c 1
 304 149 l 1
 284 147 l 1
 271 141 l 1
 58 6 l 1
301 220 m 1
 580 396 l 1
 580 688 l 1
 579 688 l 1
 509 664 422 635 301 536 c 1
 301 220 l 1
363 199 m 1
 844 199 l 1
 893 248 937 305 967 357 c 1
 630 357 l 1
 614 356 l 1
 599 349 l 1
 363 199 l 1
631 428 m 1
 1043 688 l 1
 974 707 911 723 811 723 c 0
 739 723 684 714 631 702 c 1
 631 428 l 1
693 407 m 1
 995 407 l 1
 1034 488 1057 558 1070 645 c 1
 1069 645 l 1
 693 407 l 1
EndSplineSet
EndChar

StartChar: uni26AD
Encoding: 9901 9901 311
Width: 550
Flags: HW
TeX: 500 -27
HStem: 28 105<32.4395 178.756 370.541 517.401> 395 105<33.0608 180.603 372.306 517.659>
VStem: -113 105<172.282 356.304> 152 247<151.818 376.139> 559 105<178.081 354.619>
CounterMasks: 1 38
LayerCount: 2
Fore
SplineSet
-113 264 m 0
 -113 453 7 500 140 500 c 0
 228 500 264 479 276 479 c 0
 290 479 319 500 411 500 c 2
 412 500 l 2
 546 500 664 453 664 263 c 0
 664 75 543 28 412 28 c 0
 322 28 288 49 275 49 c 0
 262 49 232 28 140 28 c 2
 139 28 l 2
 6 28 -113 75 -113 264 c 0
-8 271 m 0
 -8 223 -5 183 30 156 c 0
 60 133 103 133 136 133 c 0
 151 133 166 134 181 135 c 1
 167 165 152 201 152 265 c 0
 152 310 159 347 181 393 c 1
 166 394 151 395 136 395 c 0
 53 395 -8 382 -8 271 c 0
370 135 m 1
 385 134 400 133 415 133 c 0
 494 133 554 145 559 248 c 1
 559 271 l 1
 557 372 511 395 415 395 c 0
 400 395 385 394 370 393 c 1
 384 363 399 326 399 262 c 0
 399 217 392 181 370 135 c 1
EndSplineSet
EndChar

StartChar: musicalnote
Encoding: 9834 9834 312
Width: 672
Flags: HW
TeX: 694 0
HStem: -53 333<162.407 343.354> 674 20G<380 410>
VStem: 360 84<255 399 552.021 688.255> 526 84<130.359 273.209>
LayerCount: 2
Fore
SplineSet
60 124 m 0
 60 218 148 280 252 280 c 0
 295 280 329 270 360 255 c 1
 360 638 l 2
 360 648 358 694 402 694 c 0
 418 694 433 684 440 669 c 0
 447 653 439 621 464 552 c 0
 509 429 610 313 610 172 c 0
 610 135 583 125 569 125 c 0
 525 125 526 175 526 176 c 0
 520 257 489 315 444 399 c 1
 444 179 l 1
 442 149 l 1
 443 138 444 131 444 123 c 0
 444 36 367 -53 252 -53 c 0
 141 -53 60 31 60 124 c 0
EndSplineSet
EndChar

StartChar: tildelow
Encoding: 61705 61705 313
Width: 672
Flags: HW
TeX: 132 0
HStem: 0 73<369.221 489.776> 62 73<180.416 300.779>
VStem: 91 73<0 43.6509> 507 72<91.3491 135>
LayerCount: 2
Fore
SplineSet
91 0 m 1xb0
 94 84 159 135 234 135 c 0x70
 328 135 378 73 438 73 c 0xb0
 467 73 503 90 507 135 c 1
 579 135 l 1x70
 576 51 511 0 436 0 c 0xb0
 342 0 292 62 232 62 c 0x70
 202 62 168 45 164 0 c 1
 91 0 l 1xb0
EndSplineSet
EndChar

StartChar: breve.ts1
Encoding: 61707 61707 315
Width: 672
Flags: HW
TeX: 694 0
HStem: 521 95<210.232 460.528> 675 20G<85 160 510 585>
VStem: 85 73<647.946 695> 512 73<651.348 695>
LayerCount: 2
Fore
SplineSet
85 695 m 1
 158 695 l 1
 162 640 204 616 336 616 c 0
 465 616 508 640 512 695 c 1
 585 695 l 1
 581 569 444 521 336 521 c 0
 217 521 89 574 85 695 c 1
EndSplineSet
EndChar

StartChar: caron.ts1
Encoding: 61708 61708 316
Width: 672
Flags: HW
TeX: 694 0
HStem: 513 204
LayerCount: 2
Fore
SplineSet
169 717 m 1
 242 717 l 1
 336 599 l 1
 429 717 l 1
 502 717 l 1
 390 513 l 1
 281 513 l 1
 169 717 l 1
EndSplineSet
EndChar

StartChar: dblgrave.ts1
Encoding: 61710 61710 318
Width: 550
Flags: HW
TeX: 694 0
HStem: 546 149<177 228 360 411>
LayerCount: 2
Fore
SplineSet
91 695 m 1
 228 695 l 1
 250 546 l 1
 177 546 l 1
 91 695 l 1
274 695 m 1
 411 695 l 1
 433 546 l 1
 360 546 l 1
 274 695 l 1
EndSplineSet
EndChar

StartChar: dagger
Encoding: 8224 8224 319
Width: 489
Flags: HW
TeX: 694 166
HStem: 404 136<78.375 178.619 308.946 409.224> 686 20G<226 262.5>
VStem: 175 137<-189 354.467 567.903 687.625>
LayerCount: 2
Fore
SplineSet
60 472 m 0
 60 514 94 540 127 540 c 0
 168 540 186 502 230 487 c 1
 216 550 175 584 175 637 c 0
 175 680 208 706 244 706 c 0
 281 706 312 679 312 637 c 0
 312 584 276 561 257 487 c 1
 301 502 317 540 360 540 c 0
 400 540 427 510 427 472 c 0
 427 434 399 404 360 404 c 1
 307 409 308 440 257 458 c 1
 266 381 312 348 312 257 c 2
 312 -189 l 1
 175 -189 l 1
 175 257 l 2
 175 349 221 378 230 458 c 1
 182 441 179 408 126 404 c 1
 87 404 60 434 60 472 c 0
EndSplineSet
EndChar

StartChar: daggerdbl
Encoding: 8225 8225 320
Width: 489
Flags: HW
TeX: 694 166
HStem: -178 21G<225 261.5> -25 136<77.625 178.376 308.521 408.5> 417 136<77.7761 177.884 309.375 409.224> 686 20G<224.5 262>
VStem: 175 136<-160.473 -44.6822 130.976 245.5 281.89 397.63 573.639 688.11>
LayerCount: 2
Fore
SplineSet
60 42 m 0
 60 80 87 111 127 111 c 0
 168 111 182 76 229 57 c 1
 219 111 175 143 175 195 c 0
 175 239 208 263 243 263 c 0
 281 263 312 236 312 196 c 0
 312 145 268 109 258 57 c 1
 305 76 318 111 360 111 c 0
 401 111 427 77 427 42 c 0
 427 5 400 -25 360 -25 c 0
 319 -25 305 9 258 28 c 1
 268 -23 311 -58 311 -110 c 0
 311 -154 279 -178 244 -178 c 0
 206 -178 175 -151 175 -110 c 0
 175 -58 218 -26 229 28 c 1
 182 9 168 -25 126 -25 c 0
 85 -25 60 6 60 42 c 0
60 485 m 0
 60 523 88 553 127 553 c 0
 168 553 184 517 229 500 c 1
 212 565 175 587 175 638 c 0
 175 678 206 706 243 706 c 0
 281 706 312 679 312 638 c 0
 312 584 269 556 258 500 c 1
 301 516 318 553 360 553 c 0
 400 553 427 522 427 484 c 0
 427 446 399 417 360 417 c 0
 319 417 303 453 258 470 c 1
 275 405 311 383 311 332 c 0
 311 292 281 264 244 264 c 0
 206 264 175 291 175 332 c 0
 175 386 218 414 229 470 c 1
 186 454 168 417 126 417 c 0
 86 417 60 447 60 485 c 0
EndSplineSet
EndChar

StartChar: uni2016
Encoding: 8214 8214 321
Width: 550
Flags: HW
TeX: 750 222
VStem: 153 83<-216.777 744.469> 313 83<-216.777 744.469>
LayerCount: 2
Fore
SplineSet
153 -174 m 2
 153 701 l 2
 153 744 184 750 195 750 c 0
 205 750 236 744 236 701 c 2
 236 -173 l 2
 236 -217 205 -222 195 -222 c 0
 185 -222 153 -217 153 -174 c 2
313 -174 m 2
 313 701 l 2
 313 744 344 750 355 750 c 0
 365 750 396 744 396 701 c 2
 396 -173 l 2
 396 -217 365 -222 355 -222 c 0
 343 -222 313 -216 313 -174 c 2
EndSplineSet
EndChar

StartChar: perthousand
Encoding: 8240 8240 322
Width: 1396
Flags: HW
TeX: 750 55
HStem: -56 73<742.149 825.836 1108.03 1192.04> 274 73<743.342 826.724 1108.73 1192.91> 347 73<196.902 281.038> 677 73<197.67 281.911>
VStem: 60 120<437.898 655.389> 307 115<446.255 652.146> 605 120<32.4841 255.351> 851 115<43.2554 250.194> 971 121<34.7795 258.082> 1218 115<43.2554 249.146>
DStem2: 746 723 281 -32 0.601621 0.798782<-916.023 36.8657>
LayerCount: 2
Fore
SplineSet
60 549 m 0
 60 653 97 750 243 750 c 0
 386 750 422 652 422 565 c 2
 422 552 l 2
 422 488 415 347 241 347 c 0
 132 347 60 404 60 549 c 0
180 541 m 1
 181 495 175 420 241 420 c 0
 264 420 286 434 298 471 c 0
 306 496 307 523 307 549 c 0
 307 573 309 677 241 677 c 0
 222 677 205 668 196 656 c 0
 186 643 181 628 180 565 c 1
 180 541 l 1
201 -14 m 0
 201 1 209 11 216 21 c 2
 746 723 l 2
 749 727 762 750 787 750 c 0
 812 750 828 729 828 708 c 0
 828 695 823 688 815 677 c 2
 281 -32 l 2
 265 -53 256 -54 241 -55 c 1
 219 -54 201 -36 201 -14 c 0
605 131 m 2
 605 137 l 2
 605 236 627 347 787 347 c 0
 930 347 966 249 966 162 c 2
 966 149 l 2
 966 85 960 -56 786 -56 c 0
 704 -56 605 -23 605 131 c 2
725 138 m 1
 726 92 720 17 786 17 c 0
 809 17 832 32 843 68 c 0
 851 93 851 120 851 146 c 2
 851 153 l 2
 851 184 849 274 786 274 c 0
 722 274 726 199 725 162 c 1
 725 138 l 1
971 147 m 0
 971 293 1044 347 1154 347 c 0
 1297 347 1333 249 1333 162 c 2
 1333 149 l 2
 1333 85 1326 -56 1152 -56 c 0
 1043 -56 971 0 971 147 c 0
1092 138 m 1
 1093 92 1086 17 1152 17 c 0
 1175 17 1197 31 1209 68 c 0
 1217 93 1218 120 1218 146 c 0
 1218 170 1220 274 1152 274 c 0
 1091 274 1093 212 1092 162 c 1
 1092 138 l 1
EndSplineSet
EndChar

StartChar: bullet
Encoding: 8226 8226 323
Width: 550
Flags: HW
TeX: 475 -49
HStem: 50 428<167.857 381.559>
VStem: 60 428<153.01 374.202>
LayerCount: 2
Fore
SplineSet
60 263 m 0
 60 412 146 478 275 478 c 0
 374 478 488 435 488 264 c 0
 488 115 402 50 273 50 c 0
 126 50 60 136 60 263 c 0
EndSplineSet
EndChar

StartChar: uni2103
Encoding: 8451 8451 324
Width: 947
Flags: HW
TeX: 694 0
HStem: -22 100<567.541 804.338> 450 84<86.5441 157.899> 611 84<86.3908 158.501> 616 101<568.655 785.98>
VStem: 0 84<536.52 608.357> 161 83<536.964 608.201> 305 148<201.719 490.525>
LayerCount: 2
Fore
SplineSet
305 346 m 0
 305 643 479 717 676 717 c 0
 757 717 812 705 880 682 c 1
 857 551 l 1
 819 577 774 616 674 616 c 0
 463 616 453 429 453 352 c 2
 453 332 l 2
 453 204 497 78 676 78 c 0
 790 78 828 109 882 144 c 1
 892 33 l 1
 811 -10 771 -22 690 -22 c 2xde
 676 -22 l 2
 574 -22 305 -14 305 346 c 0
EndSplineSet
Refer: 360 176 S 1 0 0 1 -60 0 2
EndChar

StartChar: dollaroldstyle
Encoding: 63268 63268 325
Width: 672
Flags: HW
TeX: 750 55
HStem: -10 101<291 379> -0 103<152.964 219> 593 103<451 515.948> 604 101<291 379>
VStem: 60 118<482.005 571.533> 219 72<-56 -10 103 295 469 586 705 750> 379 72<-56 -10 112 249 427 593 705 750> 493 117<129.226 232.617>
LayerCount: 2
Fore
SplineSet
48 58 m 1
 67 168 l 1
 101 149 149 119 219 103 c 1
 219 314 l 1
 154 337 60 394 60 502 c 0
 60 533 65 659 219 695 c 1
 219 750 l 1
 291 750 l 1
 291 705 l 1
 324 706 l 1
 379 705 l 1x5f
 379 750 l 1
 451 750 l 1
 451 696 l 1
 500 688 546 670 591 650 c 1
 573 545 l 1
 526 568 501 580 451 593 c 1x2f
 451 407 l 1
 518 383 610 318 610 207 c 0
 610 118 569 30 451 1 c 1
 451 -56 l 1
 379 -56 l 1
 379 -10 l 1
 366 -11 351 -11 338 -11 c 0
 322 -11 307 -11 291 -10 c 1xaf
 291 -56 l 1
 219 -56 l 1
 219 -0 l 1
 219 -0 141 11 48 58 c 1
178 525 m 0
 178 497 197 481 219 469 c 1
 219 586 l 1
 208 580 178 562 178 525 c 0
291 91 m 1x8f
 348 89 l 1
 379 91 l 1
 379 276 l 1
 292 295 l 1
 291 264 l 1
 291 91 l 1x8f
291 447 m 1
 379 427 l 1
 379 604 l 1x1f
 364 605 348 606 333 606 c 0
 319 606 305 605 291 604 c 1
 291 447 l 1
451 112 m 1
 462 119 493 140 493 183 c 0x0f
 493 223 461 242 452 249 c 1
 451 198 l 1
 451 112 l 1
EndSplineSet
EndChar

StartChar: centoldstyle
Encoding: 63394 63394 326
Width: 550
Flags: HW
TeX: 555 83
HStem: -11 78<235.356 426.453> 411 78<224.925 325.562>
VStem: 36 137<144.597 355.296>
DStem2: 73 -67 136 -100 0.468078 0.883687<0.32724 116.449 237.531 540.826 649.912 724.15>
LayerCount: 2
Fore
SplineSet
36 237 m 0
 36 439 162 489 313 489 c 2
 316 489 l 2
 333 489 350 488 367 487 c 1
 412 573 l 1
 476 539 l 1
 442 473 l 1
 466 466 490 456 513 446 c 1
 496 351 l 1
 460 373 452 382 403 400 c 1
 234 82 l 1
 255 73 272 67 308 67 c 0
 411 67 470 107 510 133 c 1
 518 35 l 1
 449 5 389 -11 303 -11 c 0
 265 -11 227 -8 191 3 c 1
 136 -100 l 1
 73 -67 l 1
 125 33 l 1
 63 77 36 144 36 237 c 0
173 238 m 2
 173 216 172 177 184 143 c 1
 326 411 l 1
 308 411 l 2
 173 411 174 305 173 245 c 1
 173 238 l 2
EndSplineSet
EndChar

StartChar: colonmonetary
Encoding: 8353 8353 327
Width: 703
Flags: HW
TeX: 750 55
HStem: -21 101<316.623 390 463 563.916> 614 102<316.809 390 463 545.38>
VStem: 60 148<204.266 489.827> 390 73<-56 -20.5372 80 614 716 750>
LayerCount: 2
Fore
SplineSet
60 347 m 0
 60 642 235 707 390 716 c 1
 390 750 l 1
 463 750 l 1
 463 716 l 1
 532 714 585 698 634 682 c 1
 611 551 l 1
 550 595 530 605 463 615 c 1
 463 79 l 1
 553 83 598 118 637 144 c 1
 646 33 l 1
 563 -11 537 -17 463 -22 c 1
 463 -56 l 1
 390 -56 l 1
 390 -21 l 1
 235 -12 60 52 60 347 c 0
208 347 m 1
 210 253 220 101 390 80 c 1
 390 614 l 1
 261 598 215 502 209 381 c 1
 208 347 l 1
EndSplineSet
EndChar

StartChar: uni20A9
Encoding: 8361 8361 328
Width: 1039
Flags: HW
TeX: 694 0
ItalicCorrection: 15
HStem: 0 21G<198.607 372.506 661.719 842.281> 178 72<-16.1082 137 285 306 435 600 744 767 904 1056.62> 414 73<-16.7168 72 224 367 498 537 682 829 968 1057.01> 675 20G<16 153.385 436.615 611.288 899.615 1024>
DStem2: 148 695 16 695 0.261119 -0.965307<0 180.939 291.096 426.689 534.837 588.87> 324 250 435 250 0.256499 0.966544<28.4714 169.543 273.702 358.089> 606 695 518 569 0.252422 -0.967617<99.7066 183.847 291.085 429.075 535.092 589.405> 786 250 904 250 0.259824 0.965656<30.6592 169.54 276.148 460.636>
LayerCount: 2
Fore
SplineSet
-20 450 m 0
 -20 465 -13 487 28 487 c 2
 72 487 l 1
 16 695 l 1
 148 695 l 1
 204 487 l 1
 386 487 l 1
 442 695 l 1
 606 695 l 1
 661 487 l 1
 849 487 l 1
 905 695 l 1
 1024 695 l 1
 968 487 l 1
 1012 487 l 2
 1053 487 1060 465 1060 450 c 0
 1060 441 1056 414 1017 414 c 2
 948 414 l 1
 904 250 l 1
 1014 250 l 2
 1055 250 1060 224 1060 213 c 0
 1060 199 1054 178 1015 178 c 2
 884 178 l 1
 837 0 l 1
 667 0 l 1
 620 178 l 1
 416 178 l 1
 367 0 l 1
 204 0 l 1
 156 178 l 1
 26 178 l 2
 -13 178 -19 199 -19 213 c 0
 -19 223 -16 250 26 250 c 2
 137 250 l 1
 92 414 l 1
 24 414 l 2
 -15 414 -20 441 -20 450 c 0
224 414 m 1
 266 250 l 1
 324 250 l 1
 367 414 l 1
 224 414 l 1
285 178 m 1
 296 125 l 1
 306 178 l 1
 285 178 l 1
435 250 m 1
 600 250 l 1
 556 414 l 1
 479 414 l 1
 435 250 l 1
498 487 m 1
 537 487 l 1
 518 569 l 1
 498 487 l 1
682 414 m 1
 724 250 l 1
 786 250 l 1
 829 414 l 1
 682 414 l 1
744 178 m 1
 756 125 l 1
 767 178 l 1
 744 178 l 1
EndSplineSet
EndChar

StartChar: uni20A6
Encoding: 8358 8358 329
Width: 825
Flags: HW
TeX: 694 0
HStem: 0 21G<107 230 515.775 718> 178 72<-41.3985 107 230 397 566 594 718 872.82> 414 73<-41.3985 107 231 275 444 594 718 872.462> 675 20G<107 309.288 594 718>
VStem: 107 123<0 178 250 414 487 574> 594 124<120 178 250 414 487 695>
DStem2: 299 695 231 574 0.457103 -0.889414<76.5361 174.028 316.205 440.585 581.873 646.258>
LayerCount: 2
Fore
SplineSet
-51 214 m 0
 -51 229 -43 250 -4 250 c 2
 107 250 l 1
 107 414 l 1
 5 414 l 2
 -27 414 -29 415 -42 427 c 1
 -47 433 -51 440 -51 450 c 0
 -51 465 -43 487 -4 487 c 2
 107 487 l 1
 107 695 l 1
 299 695 l 1
 406 487 l 1
 594 487 l 1
 594 695 l 1
 718 695 l 1
 718 487 l 1
 829 487 l 2
 869 487 876 464 876 451 c 0
 876 430 859 419 849 416 c 0
 839 413 829 414 819 414 c 2
 718 414 l 1
 718 250 l 1
 829 250 l 2
 869 250 876 226 876 214 c 0
 876 193 859 182 849 179 c 0
 839 176 829 178 819 178 c 2
 718 178 l 1
 718 0 l 1
 526 0 l 1
 435 178 l 1
 230 178 l 1
 230 0 l 1
 107 0 l 1
 107 178 l 1
 5 178 l 2
 -27 178 -29 178 -42 190 c 1
 -47 196 -51 204 -51 214 c 0
230 250 m 1
 397 250 l 1
 313 414 l 1
 231 414 l 1
 230 354 l 1
 230 250 l 1
230 487 m 1
 275 487 l 1
 231 574 l 1
 230 539 l 1
 230 487 l 1
444 414 m 1
 528 250 l 1
 594 250 l 1
 594 414 l 1
 444 414 l 1
566 178 m 1
 594 120 l 1
 594 178 l 1
 566 178 l 1
EndSplineSet
EndChar

StartChar: uni20B2
Encoding: 8370 8370 330
Width: 856
Flags: HW
TeX: 750 55
HStem: -22 101<354.021 451 524 640.912> 233 95<524 644> 616 101<524 635.854>
VStem: 60 148<216.941 477.5> 451 73<-56 -21 79 233 328 616 717 750> 644 137<91.0624 233>
LayerCount: 2
Fore
SplineSet
60 347 m 0
 60 553 164 674 356 707 c 0
 388 712 419 715 451 717 c 1
 451 750 l 1
 524 750 l 1
 524 717 l 1
 624 713 689 697 772 668 c 1
 749 537 l 1
 664 589 622 608 524 616 c 1
 524 328 l 1
 781 328 l 1
 781 26 l 1
 695 -3 601 -20 524 -21 c 1
 524 -56 l 1
 451 -56 l 1
 451 -22 l 1
 418 -20 385 -18 353 -12 c 0
 263 4 60 59 60 347 c 0
208 346 m 0
 208 132 336 91 451 79 c 1
 451 616 l 1
 335 604 208 561 208 346 c 0
524 79 m 1
 564 81 604 87 644 95 c 1
 644 233 l 1
 524 233 l 1
 524 79 l 1
EndSplineSet
EndChar

StartChar: peso
Encoding: 61711 61711 331
Width: 718
Flags: HW
TeX: 694 0
HStem: 0 21G<107 255> 178 72<-41.3985 107 255 486.982> 268 79<255 473.878> 608 87<252 472.921>
VStem: 107 148<0 178 250 268 347 608> 517 140<388.165 566.695>
LayerCount: 2
Fore
SplineSet
-51 214 m 0
 -51 229 -43 250 -4 250 c 2
 107 250 l 1
 107 695 l 1
 366 695 l 2
 437 695 543 697 608 625 c 0
 644 585 657 530 657 478 c 0
 657 382 615 275 424 268 c 1
 255 268 l 1
 255 250 l 1
 441 250 l 2
 449 250 458 251 466 248 c 0
 480 243 490 229 490 214 c 0
 490 198 479 183 464 179 c 0
 456 177 446 178 438 178 c 2
 255 178 l 1
 255 0 l 1
 107 0 l 1
 107 178 l 1
 5 178 l 2
 -27 178 -29 178 -42 190 c 1
 -47 196 -51 204 -51 214 c 0
252 347 m 1
 365 347 l 2
 461 347 516 365 517 472 c 1
 517 485 l 2
 517 599 444 608 365 608 c 2
 252 608 l 1
 252 347 l 1
EndSplineSet
EndChar

StartChar: lira
Encoding: 8356 8356 332
Width: 703
Flags: HW
TeX: 694 0
HStem: -11 150<104.812 233.452 535 545.329> -11 93<401.306 553.495> 178 72<164.469 236 373 489.52> 367 73<164.424 236 373 489.52> 669 73<398.458 488.917>
VStem: 236 137<138.882 178 250 367 440 638.513> 504 136<522.687 624.798> 557 114<82.956 137.703>
LayerCount: 2
Fore
SplineSet
60 53 m 0
 60 104 117 139 208 139 c 0
 217 139 226 139 235 138 c 1
 236 178 l 1
 196 178 l 2
 187 178 177 177 169 181 c 0
 163 184 147 193 147 213 c 0
 147 225 153 238 164 245 c 0
 174 251 185 250 196 250 c 2
 236 250 l 1
 236 367 l 1
 196 367 l 2
 187 367 177 366 169 370 c 0
 163 373 147 383 147 403 c 0
 147 415 153 427 164 434 c 0
 173 440 185 440 195 440 c 2xbd
 236 440 l 1
 236 511 l 2
 236 576 244 637 289 684 c 0
 331 728 397 742 453 742 c 0
 588 742 640 609 640 525 c 0
 640 475 605 467 584 465 c 1
 548 469 532 485 529 521 c 1
 504 521 l 1
 504 530 l 2
 504 628 494 669 453 669 c 0
 432 669 402 659 388 634 c 0
 373 607 373 560 373 525 c 2
 373 440 l 1
 447 440 l 2
 489 440 493 412 493 403 c 0
 493 394 489 367 450 367 c 2
 373 367 l 1
 373 250 l 1
 447 250 l 2
 489 250 493 222 493 213 c 0
 493 204 488 177 450 177 c 0
 446 177 441 178 437 178 c 2
 373 178 l 1
 372 155 369 132 365 113 c 1
 452 91 470 86 530 82 c 1
 543 82 l 1x7e
 553 83 557 86 557 91 c 0
 557 104 544 111 535 139 c 1
 671 139 l 1xbd
 668 45 585 -11 489 -11 c 0x7d
 419 -11 324 17 301 23 c 1
 283 12 244 -11 157 -11 c 0
 98 -11 60 14 60 53 c 0
EndSplineSet
EndChar

StartChar: uni211E
Encoding: 8478 8478 333
Width: 703
Flags: HW
TeX: 694 0
HStem: -0 21G<91 236 511.64 671> 311 73<236 346> 608 87<236 464.125>
VStem: 91 145<0 311 384 608> 501 140<420.425 572.011>
DStem2: 273 104 333 30 0.78047 0.625193<0.563901 152.833 293.763 488.607> 483 321 404 209 0.505374 -0.8629<0 38.0778 153.462 297.206>
LayerCount: 2
Fore
SplineSet
91 -0 m 1
 91 695 l 1
 342 695 l 2
 407 695 474 694 535 666 c 0
 626 624 641 543 641 497 c 0
 641 400 577 339 483 321 c 1
 502 288 l 1
 655 410 l 1
 714 335 l 1
 551 205 l 1
 671 -0 l 1
 523 -0 l 1
 452 125 l 1
 333 30 l 1
 273 104 l 1
 404 209 l 1
 346 311 l 1
 236 311 l 1
 236 -0 l 1
 91 -0 l 1
236 384 m 1
 355 384 l 2
 438 384 501 395 501 496 c 0
 501 590 451 608 356 608 c 2
 236 608 l 1
 236 384 l 1
EndSplineSet
EndChar

StartChar: uni203D
Encoding: 8253 8253 334
Width: 519
Flags: HW
TeX: 694 0
HStem: 0 131<193 324> 559 75<142.647 195> 675 20G<193 324>
VStem: 191 120<217 323.681> 193 131<0 131> 197 122<631.716 695>
LayerCount: 2
Fore
SplineSet
60 595 m 1
 98 613 140 628 195 634 c 1
 193 695 l 1
 324 695 l 1xe8
 323 633 l 1
 326 630 457 625 457 504 c 0
 457 428 403 403 387 392 c 0
 340 359 322 332 318 324 c 0
 314 317 314 323 311 217 c 1
 191 217 l 1
 191 244 l 2xf0
 191 304 202 317 203 335 c 1
 197 559 l 1xe4
 146 546 121 525 94 500 c 1
 60 595 l 1
319 488 m 2
 320 496 320 504 320 512 c 2xe4
 319 488 l 2
EndSplineSet
Refer: 57 46 S 1 0 0 1 107 0 2
EndChar

StartChar: uni2E18
Encoding: 11800 11800 335
Width: 519
Flags: HW
TeX: 527 166
HStem: -167 21G<193 324> 397 131<193 324>
VStem: 191 120<193.524 311> 193 131<397 528> 195 127<-167 -104.441 -5 49>
LayerCount: 2
Fore
SplineSet
60 23 m 0
 60 101 108 126 119 135 c 0
 188 193 191 250 191 283 c 2
 191 311 l 1
 311 311 l 1xe0
 320 -25 l 1
 369 -10 394 6 423 28 c 1
 457 -67 l 1
 414 -84 368 -98 322 -103 c 1xc8
 324 -167 l 1
 193 -167 l 1xd0
 195 -107 l 1xc8
 79 -97 60 -27 60 23 c 0
196 18 m 0xc0
 196 10 197 3 198 -5 c 1
 199 49 l 1
 197 39 196 28 196 18 c 0xc0
EndSplineSet
Refer: 57 46 S 1 0 0 1 107 397 2
EndChar

StartChar: dong
Encoding: 8363 8363 336
Width: 561
Flags: HW
TeX: 750 0
HStem: -83 83<68.2226 620.627> 44 72<208.777 306.895> 55 21<362 499> 466 72<212.118 314.751> 599 73<196 365 499 585> 730 20<365 499>
VStem: 36 137<152.806 423.411> 362 137<55 107 138.01 451.516 483 599 672 750>
LayerCount: 2
Fore
SplineSet
63 -42 m 0x9f
 63 -22 77 -4 100 -1 c 0
 109 0 118 0 127 0 c 2
 553 0 l 2
 590 0 606 1 620 -20 c 0
 624 -27 626 -34 626 -42 c 0
 626 -54 621 -84 575 -84 c 0
 571 -84 567 -83 563 -83 c 2
 112 -83 l 1
 68 -82 63 -53 63 -42 c 0x9f
EndSplineSet
Refer: 169 273 S 1 0 0 1 0 55 2
EndChar

StartChar: trademark
Encoding: 8482 8482 337
Width: 733
Flags: HW
TeX: 750 0
ItalicCorrection: 524
HStem: 478 295<550 672> 678 72<6.35712 115 252 358.207>
VStem: 115 137<362.912 678> 359 137<363.469 492> 603 137<364.04 492>
CounterMasks: 1 38
LayerCount: 2
Fore
SplineSet
1 710 m 1
 1 717 l 1
 2 725 13 750 78 750 c 2
 288 750 l 2x78
 331 750 342 743 359 731 c 1
 362 769 409 773 428 773 c 0
 453 773 477 765 489 751 c 0
 495 744 500 733 549 644 c 1
 603 735 601 773 672 773 c 0
 698 773 740 765 740 726 c 2
 740 397 l 2
 740 359 694 353 672 353 c 0
 652 353 623 359 610 375 c 0
 604 382 603 391 603 400 c 2
 603 492 l 1
 598 490 582 478 550 478 c 0xb8
 524 478 510 484 496 492 c 1
 496 399 l 2
 496 362 456 353 427 353 c 0
 402 353 360 360 359 397 c 1
 359 697 l 1
 342 684 330 678 287 678 c 2
 252 678 l 1
 252 399 l 2x78
 252 362 213 353 184 353 c 0
 166 353 135 357 121 375 c 0
 115 382 115 390 115 399 c 2
 115 678 l 1
 79 678 l 2
 15 678 5 699 1 710 c 1
EndSplineSet
EndChar

StartChar: uni2031
Encoding: 8241 8241 338
Width: 1992
Flags: HW
TeX: 750 55
HStem: -56 73<741.902 825.946 1223.5 1307.45 1704.9 1788.95> 274 73<742.658 826.863 1223.88 1307.87 1705.38 1789.46> 347 73<196.902 281.038> 677 73<197.67 281.911>
VStem: 60 120<437.898 655.389> 307 115<446.255 652.146> 605 120<34.7795 252.389> 852 114<42.9095 249.146> 1086 121<34.8977 259.306> 1333 115<42.9095 249.146> 1568 120<34.8977 259.306> 1815 114<42.9095 247.343>
DStem2: 746 723 281 -32 0.601621 0.798782<-916.023 36.8657>
LayerCount: 2
Fore
SplineSet
1086 146 m 0
 1086 250 1123 347 1269 347 c 0
 1412 347 1445 249 1448 162 c 1
 1448 128 l 1
 1444 41 1412 -56 1268 -56 c 0
 1159 -56 1086 1 1086 146 c 0
1207 138 m 1
 1208 92 1201 17 1267 17 c 0
 1290 17 1312 31 1324 68 c 0
 1332 93 1333 120 1333 146 c 0
 1333 170 1335 274 1267 274 c 0
 1204 274 1208 204 1207 162 c 1
 1207 138 l 1
1568 146 m 0
 1568 250 1605 347 1751 347 c 0
 1894 347 1926 249 1929 162 c 1
 1929 128 l 1
 1925 41 1893 -56 1749 -56 c 0
 1640 -56 1568 1 1568 146 c 0
1688 138 m 1
 1689 92 1683 17 1749 17 c 0
 1772 17 1794 31 1806 68 c 0
 1814 93 1815 120 1815 146 c 0
 1815 170 1816 274 1748 274 c 0
 1685 274 1689 204 1688 162 c 1
 1688 138 l 1
EndSplineSet
Refer: 48 37 S 1 0 0 1 0 0 2
EndChar

StartChar: uni2029
Encoding: 8233 8233 339
Width: 519
Flags: HW
TeX: 694 166
HStem: -166 21G<347 360> 611 84<396 481.319>
VStem: 60 336<367.288 565.962> 312 84<-161.086 226.991>
LayerCount: 2
Fore
SplineSet
60 460 m 0
 60 554 114 695 268 695 c 2
 436 695 l 2xe0
 481 695 487 667 487 653 c 0
 487 638 479 625 466 617 c 0
 456 611 444 611 433 611 c 2
 396 611 l 1
 396 -117 l 2
 396 -162 366 -166 354 -166 c 0
 340 -166 312 -158 312 -121 c 2
 312 224 l 1xd0
 197 236 60 311 60 460 c 0
EndSplineSet
EndChar

StartChar: uni0E3F
Encoding: 3647 3647 340
Width: 733
Flags: HW
TeX: 750 55
HStem: 0 87<233 298 371 480.953> 325 73<234 298 371 448.113> 608 87<234 298 371 456.874>
VStem: 91 142<87 325 398 608> 298 73<-56 0 87 325 399 607 695 750> 504 137<446.712 568.174> 532 139<130.494 268.648>
LayerCount: 2
Fore
SplineSet
91 0 m 1
 91 695 l 1
 298 695 l 1
 298 750 l 1
 371 750 l 1
 371 695 l 1
 435 695 532 690 591 635 c 0
 624 604 641 557 641 514 c 0xfc
 641 393 517 369 494 363 c 1
 545 355 671 329 671 193 c 0xfa
 671 145 654 96 621 63 c 0
 559 2 460 0 380 -0 c 2
 371 -0 l 1
 371 -56 l 1
 298 -56 l 1
 298 0 l 1
 91 0 l 1
233 87 m 1
 298 87 l 1
 298 325 l 1
 234 325 l 1
 233 290 l 1
 233 87 l 1
233 398 m 1
 298 398 l 1
 298 608 l 1
 234 608 l 1
 233 576 l 1
 233 398 l 1
371 87 m 1
 457 87 532 109 532 197 c 0xfa
 532 323 399 323 371 325 c 1
 371 87 l 1
371 399 m 1
 481 407 504 467 504 512 c 0xfc
 504 598 404 604 371 607 c 1
 371 399 l 1
EndSplineSet
EndChar

StartChar: uni2116
Encoding: 8470 8470 341
Width: 917
Flags: HW
TeX: 694 0
HStem: 0 21G<91 214 275.5 518> 158 73<580 824> 278 78<689.107 715.54> 454 74<687.517 716.588> 675 20G<91 283 395 518>
VStem: 91 123<0 569> 395 123<125 695> 580 107<357.651 452.156> 717 107<356.469 450.638>
LayerCount: 2
Fore
SplineSet
91 0 m 1
 91 695 l 1
 283 695 l 1
 283 694 l 1
 373 328 389 240 395 125 c 1
 395 695 l 1
 518 695 l 1
 518 0 l 1
 326 0 l 1
 225 408 222 454 214 569 c 1
 214 0 l 1
 91 0 l 1
580 158 m 1
 580 231 l 1
 824 231 l 1
 824 158 l 1
 580 158 l 1
580 398 m 0
 580 502 642 528 702 528 c 0
 763 528 824 502 824 395 c 0
 824 312 777 278 700 278 c 0
 604 278 580 334 580 398 c 0
687 374 m 0
 687 361 694 356 701 356 c 0
 714 356 717 367 717 378 c 0
 717 386 715 395 715 399 c 0
 715 409 717 419 717 429 c 0
 717 447 709 454 702 454 c 0
 696 454 687 449 687 429 c 0
 687 411 689 413 689 402 c 0
 689 391 687 380 687 374 c 0
EndSplineSet
EndChar

StartChar: uni2052
Encoding: 8274 8274 342
Width: 550
Flags: HW
TeX: 750 0
HStem: -0 215<237.797 436.399> 536 215<108.046 310.507>
VStem: 102 215<541.775 744.694> 232 214<5.61033 197.482> 232 205<5.15284 209.125>
DStem2: 68 68 146 37 0.459835 0.888004<-26.3095 761.465>
LayerCount: 2
Fore
SplineSet
60 42 m 0
 60 53 64 61 68 68 c 2
 400 711 l 2
 405 721 417 750 446 750 c 0xd0
 467 750 487 732 487 709 c 0
 487 699 484 690 480 682 c 2
 146 37 l 2
 139 24 129 0 102 0 c 0
 77 0 60 21 60 42 c 0
102 587 m 2
 102 701 l 2
 102 754 144 751 160 751 c 2
 264 751 l 2
 307 751 317 729 317 696 c 2
 317 587 l 2xe0
 317 533 277 536 262 536 c 2
 148 536 l 2
 105 536 102 567 102 587 c 2
232 51 m 2
 232 165 l 2xd0
 232 217 270 214 286 215 c 1
 388 215 l 2
 422 215 424 211 437 198 c 1xc8
 446 187 446 173 446 160 c 2
 446 51 l 2
 446 27 440 0 397 -0 c 2
 279 -0 l 2xd0
 241 0 232 23 232 51 c 2
EndSplineSet
EndChar

StartChar: estimated
Encoding: 8494 8494 343
Width: 761
Flags: HW
TeX: 694 0
HStem: -11 72<304.07 580.793> 361 54<176 592> 639 73<293.295 492.995>
VStem: 30 144<208.461 361 415 500.936>
LayerCount: 2
Fore
SplineSet
30 349 m 0
 30 537 103 712 394 712 c 0
 475 712 563 702 632 643 c 0
 710 577 729 471 729 361 c 1
 174 361 l 1
 174 346 l 2
 174 140 270 61 414 61 c 0
 555 61 656 104 715 129 c 1
 723 38 l 1
 605 1 499 -11 414 -11 c 0
 211 -11 30 60 30 349 c 0
176 415 m 1
 592 415 l 1
 586 518 553 639 395 639 c 0
 316 639 195 610 176 415 c 1
EndSplineSet
EndChar

StartChar: openbullet
Encoding: 9702 9702 344
Width: 550
Flags: HW
TeX: 475 -49
HStem: 50 83<188.002 360.946> 394 84<186.984 359.221>
VStem: 60 84<175.374 353.715> 404 84<176.45 350.012>
LayerCount: 2
Fore
SplineSet
60 263 m 0
 60 412 146 478 275 478 c 0
 374 478 488 435 488 264 c 0
 488 115 402 50 273 50 c 0
 126 50 60 136 60 263 c 0
144 271 m 0
 144 226 141 139 262 133 c 1
 284 133 l 1
 378 137 404 188 404 257 c 0
 404 302 406 388 286 394 c 1
 263 394 l 1
 169 390 144 341 144 271 c 0
EndSplineSet
EndChar

StartChar: uni2120
Encoding: 8480 8480 345
Width: 733
Flags: HW
TeX: 750 0
ItalicCorrection: 524
HStem: 375 73<-0.100239 231.942> 478 295<551 672> 545 73<132.252 228.417> 678 72<132.854 356.973>
VStem: -7 137<619.51 676.229> 359 137<363.619 431> 604 136<363.323 492>
LayerCount: 2
Fore
SplineSet
-7 648 m 0
 -7 730 54 750 156 750 c 2
 295 750 l 2xbe
 321 750 337 749 359 737 c 1
 366 761 393 773 427 773 c 0
 489 773 498 737 508 720 c 2
 550 644 l 1
 604 735 601 773 672 773 c 0
 697 773 740 766 740 727 c 2
 740 397 l 2
 740 359 694 353 672 353 c 0
 642 353 604 362 604 400 c 2
 604 492 l 1
 599 490 583 478 551 478 c 0xce
 525 478 510 484 496 492 c 1
 496 400 l 2
 496 362 458 353 428 353 c 0
 410 353 378 358 365 376 c 0
 359 384 359 392 359 401 c 2
 359 431 l 1
 332 387 284 375 208 375 c 2
 72 375 l 2
 9 375 -6 398 -6 411 c 0
 -6 426 8 448 75 448 c 2
 226 448 l 1
 232 464 233 465 233 491 c 2
 233 496 l 1
 234 501 232 538 226 545 c 1
 156 545 l 2
 23 545 -7 586 -7 648 c 0
130 648 m 0
 130 638 131 628 134 618 c 1xbe
 210 618 l 2
 313 618 338 591 359 562 c 1
 359 691 l 1
 358 691 l 1
 336 679 320 678 295 678 c 2
 187 678 l 1
 134 677 l 1
 131 667 130 658 130 648 c 0
EndSplineSet
EndChar

StartChar: uni2045
Encoding: 8261 8261 346
Width: 397
Flags: HW
TeX: 750 222
HStem: -295 73<223.688 341> 227 73<251.875 341> 678 72<201.411 341>
VStem: 53 137<-181.74 174.561 354.15 667.811>
LayerCount: 2
Fore
SplineSet
53 -101 m 2
 53 102 l 2
 53 119 54 136 59 152 c 0
 87 238 197 261 250 263 c 1
 250 264 l 1
 166 267 82 306 59 376 c 0
 54 392 53 408 53 425 c 2
 53 630 l 2
 53 702 93 750 302 750 c 2
 341 750 l 1
 341 678 l 1
 277 678 l 2
 193 678 190 653 190 625 c 2
 190 443 l 2
 190 437 189 430 189 424 c 0
 189 321 288 300 341 300 c 1
 341 227 l 1
 290 227 189 208 189 102 c 0
 189 94 190 87 190 79 c 2
 190 -80 l 2
 190 -87 189 -93 189 -100 c 0
 189 -158 207 -222 277 -222 c 2
 341 -222 l 1
 341 -295 l 1
 227 -295 53 -256 53 -101 c 2
EndSplineSet
EndChar

StartChar: uni2046
Encoding: 8262 8262 347
Width: 397
Flags: HW
TeX: 750 222
HStem: -222 72<55 194.589> 227 73<55 144.069> 678 72<55 195.125>
VStem: 206 137<-139.707 173.047 354.112 667.811>
LayerCount: 2
Fore
SplineSet
55 -150 m 1
 123 -150 l 2
 202 -150 206 -124 206 -99 c 2
 206 104 l 2
 206 208 107 227 55 227 c 1
 55 300 l 1
 115 300 206 325 206 424 c 2
 206 626 l 2
 206 662 191 678 120 678 c 2
 55 678 l 1
 55 750 l 1
 68 750 82 750 95 750 c 0
 303 750 343 702 343 630 c 2
 343 425 l 2
 343 408 342 392 337 376 c 0
 309 290 201 266 146 264 c 1
 146 263 l 1
 230 260 314 221 337 152 c 0
 342 136 343 120 343 103 c 2
 343 -102 l 2
 343 -174 303 -223 94 -223 c 0
 81 -223 70 -222 59 -222 c 2
 55 -222 l 1
 55 -150 l 1
EndSplineSet
EndChar

StartChar: cent
Encoding: 162 162 348
Width: 550
Flags: HW
TeX: 555 83
HStem: -10 80<220.008 269 341 434.945> 410 79<341 433.03>
VStem: 36 137<120.086 356.234> 269 72<-83 -7.9624 70 408 487.532 561>
LayerCount: 2
Fore
SplineSet
36 236 m 0
 36 499 265 484 269 488 c 1
 269 561 l 1
 341 561 l 1
 341 489 l 1
 410 485 441 477 513 446 c 1
 496 351 l 1
 431 393 408 406 341 410 c 1
 341 68 l 1
 411 77 444 90 510 133 c 1
 518 35 l 1
 436 -1 386 -6 341 -10 c 1
 341 -83 l 1
 269 -83 l 1
 269 -10 l 1
 168 -1 36 35 36 236 c 0
173 220 m 1
 174 154 187 87 269 70 c 1
 269 408 l 1
 173 388 174 299 173 242 c 1
 173 220 l 1
EndSplineSet
EndChar

StartChar: currency
Encoding: 164 164 349
Width: 808
Flags: HW
TeX: 607 0
HStem: -11 83<278.843 528.976> 535 84<278.912 527.341>
VStem: 89 83<183.78 423.952> 635 83<178.647 423.066>
DStem2: 67 26 201 42 0.706544 0.707669<-57.2793 110.743 757.157 926.201>
LayerCount: 2
Fore
SplineSet
34 -24 m 0
 34 -4 47 6 67 26 c 0
 92 51 116 77 142 101 c 1
 126 126 89 182 89 304 c 0
 89 425 126 481 142 506 c 1
 45 603 34 608 34 631 c 0
 34 656 55 673 76 673 c 0
 98 673 104 663 202 565 c 1
 267 611 345 619 406 619 c 0
 526 619 586 578 606 565 c 1
 695 655 l 2
 702 662 714 673 731 673 c 0
 752 673 773 656 773 631 c 0
 773 608 763 604 665 506 c 1
 681 480 718 425 718 303 c 0
 718 182 681 126 665 101 c 1
 765 2 773 -1 773 -24 c 0
 773 -49 752 -65 731 -65 c 0
 709 -65 705 -57 606 42 c 1
 542 -3 459 -11 404 -11 c 0
 282 -11 226 26 201 42 c 1
 106 -54 99 -65 76 -65 c 0
 51 -65 34 -45 34 -24 c 0
172 303 m 0
 172 80 328 72 402 72 c 2
 417 72 l 2
 535 72 635 119 635 304 c 0
 635 527 479 535 405 535 c 2
 390 535 l 2
 274 535 172 488 172 303 c 0
EndSplineSet
EndChar

StartChar: yen
Encoding: 165 165 350
Width: 733
Flags: HW
TeX: 694 0
ItalicCorrection: 27
HStem: 0 21G<294 439> 178 72<-29.9277 294 439 762.503> 414 73<-29.3443 148 370 380 585 762.659> 675 20G<4 193.75 556.25 729>
VStem: 294 145<0 178 250 278>
LayerCount: 2
Fore
SplineSet
-33 214 m 0
 -33 225 -28 250 14 250 c 2
 294 250 l 1
 294 264 l 2
 294 285 293 276 199 414 c 1
 15 414 l 2
 9 414 2 414 -4 415 c 0
 -25 420 -33 438 -33 450 c 0
 -33 466 -22 480 -6 485 c 0
 1 487 9 487 17 487 c 2
 148 487 l 1
 4 695 l 1
 180 695 l 1
 323 487 l 1
 427 487 l 1
 570 695 l 1
 729 695 l 1
 585 487 l 1
 716 487 l 2
 724 487 732 487 739 485 c 0
 755 481 766 466 766 450 c 0
 766 438 758 419 737 415 c 0
 731 414 724 414 718 414 c 2
 534 414 l 1
 439 278 l 1
 439 250 l 1
 724 250 l 2
 756 250 766 228 766 213 c 0
 766 199 759 178 720 178 c 2
 439 178 l 1
 439 0 l 1
 294 0 l 1
 294 178 l 1
 13 178 l 2
 11 178 9 177 7 177 c 0
 -22 177 -33 198 -33 214 c 0
370 414 m 1
 375 403 l 1
 380 414 l 1
 370 414 l 1
EndSplineSet
EndChar

StartChar: brokenbar
Encoding: 166 166 351
Width: 183
Flags: HW
TeX: 750 222
VStem: 49 83<-217.086 181.178 345.822 744.75>
LayerCount: 2
Fore
SplineSet
49 136 m 2
 49 181 79 186 91 186 c 0
 103 186 132 181 132 137 c 2
 132 -170 l 2
 132 -216 105 -222 91 -222 c 0
 81 -222 49 -218 49 -173 c 2
 49 136 l 2
49 391 m 2
 49 698 l 2
 49 744 78 750 91 750 c 0
 101 750 132 746 132 700 c 2
 132 393 l 2
 132 347 104 341 91 341 c 0
 78 341 49 346 49 391 c 2
EndSplineSet
EndChar

StartChar: dieresis.ts1
Encoding: 62030 62030 352
Width: 550
Flags: HW
TeX: 694 0
HStem: 595 100<96 238 310 453>
VStem: 96 142<595 695> 310 143<595 695>
LayerCount: 2
Fore
SplineSet
96 595 m 1
 96 695 l 1
 238 695 l 1
 238 595 l 1
 96 595 l 1
310 595 m 1
 310 695 l 1
 453 695 l 1
 453 595 l 1
 310 595 l 1
EndSplineSet
EndChar

StartChar: copyright
Encoding: 169 169 353
Width: 1143
Flags: HW
TeX: 750 222
HStem: -245 83<402.412 738.999> -23 101<511.551 762.641> 408 101<509.835 738.596> 689 84<395.561 740.248>
VStem: 60 83<97.4962 431.346> 264 148<160.448 324.72> 997 83<93.7213 433.415>
LayerCount: 2
Fore
SplineSet
264 243 m 0
 264 304 284 367 325 412 c 0
 401 497 545 509 644 509 c 0
 706 509 743 504 808 484 c 1
 785 353 l 1
 756 376 726 408 642 408 c 0
 443 408 412 309 412 243 c 0
 412 111 525 78 648 78 c 0
 734 78 761 97 811 128 c 1
 820 17 l 1
 771 -6 737 -23 649 -23 c 0
 486 -23 318 6 274 171 c 0
 268 194 264 218 264 243 c 0
EndSplineSet
Refer: 300 9675 S 1 0 0 1 0 0 3
EndChar

StartChar: ordfeminine
Encoding: 170 170 354
Width: 489
Flags: HW
TeX: 750 0
HStem: 219 73<27.6387 459.09> 364 73<103.5 215.526> 700 67<147.256 253.897>
VStem: 266 137<375 439 520 687.813>
LayerCount: 2
Fore
SplineSet
24 255 m 0
 24 271 36 286 51 290 c 0
 59 292 68 292 76 292 c 2
 419 292 l 2
 457 292 462 267 462 255 c 0
 462 242 457 220 419 219 c 1
 68 219 l 2
 29 219 24 246 24 255 c 0
30 460 m 0
 30 496 67 513 266 520 c 1
 266 594 l 2
 266 700 238 700 221 700 c 0
 135 700 93 623 90 619 c 1
 82 719 l 1
 127 751 166 767 231 767 c 0
 401 767 403 633 403 567 c 2
 403 375 l 1
 269 375 l 1
 269 439 l 1
 227 372 164 364 140 364 c 0
 67 364 30 421 30 460 c 0
162 463 m 0
 162 451 176 437 198 437 c 0
 234 437 252 468 258 480 c 1
 160 474 162 471 162 463 c 0
EndSplineSet
EndChar

StartChar: copyleft
Encoding: 61713 61713 355
Width: 1143
Flags: HW
TeX: 750 222
HStem: -245 83<402.412 738.999> -23 101<377.774 631.946> 408 101<401.064 630.81> 689 84<395.561 740.248>
VStem: 60 83<97.4962 431.346> 728 148<160.993 325.005> 997 83<93.7213 433.415>
LayerCount: 2
Fore
SplineSet
320 17 m 1
 329 128 l 1
 380 96 407 78 495 78 c 0
 597 78 696 98 722 200 c 0
 726 214 728 228 728 243 c 0
 728 309 697 408 498 408 c 0
 414 408 384 376 355 353 c 1
 332 484 l 1
 387 501 430 509 496 509 c 0
 598 509 739 497 815 412 c 0
 856 367 876 305 876 244 c 0
 876 145 827 88 819 79 c 0
 741 -12 594 -23 491 -23 c 0
 403 -23 369 -6 320 17 c 1
EndSplineSet
Refer: 300 9675 S 1 0 0 1 0 0 3
EndChar

StartChar: logicalnot
Encoding: 172 172 356
Width: 672
Flags: HW
TeX: 475 0
HStem: 320 83<65.2976 526>
VStem: 526 84<58.4478 320>
LayerCount: 2
Fore
SplineSet
60 361 m 0
 60 371 65 403 109 403 c 2
 560 403 l 2
 577 403 610 401 610 354 c 2
 610 105 l 2
 610 58 580 53 568 53 c 0
 548 53 530 67 527 91 c 0
 526 100 526 110 526 120 c 2
 526 320 l 1
 123 320 l 2
 119 320 114 319 110 319 c 0
 65 319 60 351 60 361 c 0
EndSplineSet
EndChar

StartChar: uni2117
Encoding: 8471 8471 357
Width: 1143
Flags: HW
TeX: 750 222
HStem: -245 83<402.412 738.999> 0 21G<325 470> 164 79<470 703.666> 400 86<471 710.485> 689 84<395.561 740.248>
VStem: 60 83<97.4962 431.346> 325 145<0 164 243 400> 736 139<269.094 375.461> 997 83<93.7213 433.415>
LayerCount: 2
Fore
SplineSet
325 0 m 1
 325 486 l 1
 632 486 l 1
 843 483 875 388 875 323 c 0
 875 260 841 169 645 164 c 1
 470 164 l 1
 470 0 l 1
 325 0 l 1
470 243 m 1
 593 243 l 2
 662 243 736 248 736 322 c 0
 736 398 662 400 582 400 c 2
 471 400 l 1
 470 341 l 1
 470 243 l 1
EndSplineSet
Refer: 300 9675 S 1 0 0 1 0 0 3
EndChar

StartChar: registered
Encoding: 174 174 358
Width: 1143
Flags: HW
TeX: 750 222
HStem: -245 83<402.412 738.999> 0 21G<325 470 741.768 906> 207 73<470 590> 400 86<471 718.859> 689 84<395.561 740.248>
VStem: 60 83<97.4962 431.346> 325 145<0 207 280 400> 736 139<298.756 381.651> 997 83<93.7213 433.415>
DStem2: 726 215 590 207 0.641937 -0.766758<0 185.395>
LayerCount: 2
Fore
SplineSet
325 0 m 1
 325 486 l 1
 586 486 l 2
 671 486 792 484 848 416 c 0
 865 395 875 367 875 340 c 0
 875 265 802 227 726 215 c 1
 906 0 l 1
 758 0 l 1
 590 207 l 1
 470 207 l 1
 470 0 l 1
 325 0 l 1
470 280 m 1
 580 280 l 2
 585 280 591 279 596 279 c 0
 686 279 736 290 736 340 c 0
 736 392 681 400 597 400 c 2
 471 400 l 1
 470 354 l 1
 470 280 l 1
EndSplineSet
Refer: 300 9675 S 1 0 0 1 0 0 3
EndChar

StartChar: degree
Encoding: 176 176 360
Width: 367
Flags: HW
TeX: 694 0
HStem: 450 84<146.544 217.899> 611 84<146.391 218.501>
VStem: 60 84<536.52 608.357> 221 83<536.964 608.201>
LayerCount: 2
Fore
SplineSet
60 572 m 0
 60 654 110 695 182 695 c 0
 256 695 304 651 304 573 c 0
 304 492 254 450 182 450 c 0
 102 450 60 501 60 572 c 0
144 572 m 0
 144 539 159 535 181 534 c 1
 198 535 221 534 221 573 c 0
 221 600 211 611 184 611 c 0
 159 611 144 606 144 572 c 0
EndSplineSet
EndChar

StartChar: plusminus
Encoding: 177 177 361
Width: 672
Flags: HW
TeX: 538 11
HStem: 80 83<65.8893 293 377 603.805> 314 83<65.5796 293 377 603.694>
VStem: 293 84<163 314 397 624.42>
LayerCount: 2
Fore
SplineSet
60 355 m 0
 60 376 77 396 100 397 c 1
 293 397 l 1
 293 566 l 1
 294 591 l 1
 296 614 314 630 335 630 c 2
 336 630 l 2
 357 630 375 613 376 590 c 2
 377 565 l 1
 377 397 l 1
 554 397 l 2
 568 397 577 397 586 392 c 0
 600 385 609 371 609 355 c 0
 609 334 593 314 570 314 c 2
 377 314 l 1
 377 163 l 1
 554 163 l 2
 561 163 609 162 609 122 c 0
 609 77 561 80 555 80 c 2
 112 80 l 2
 66 80 61 109 61 122 c 0
 61 144 76 158 92 162 c 0
 101 164 110 163 119 163 c 2
 293 163 l 1
 293 314 l 1
 100 314 l 1
 77 315 60 334 60 355 c 0
EndSplineSet
EndChar

StartChar: twosuperior
Encoding: 178 178 362
Width: 489
Flags: HW
TeX: 750 0
HStem: 347 107<146 432> 672 101<138.349 271.922>
VStem: 291 141<564.199 653.605>
LayerCount: 2
Fore
SplineSet
45 720 m 1
 101 755 151 773 226 773 c 0
 348 773 432 710 432 615 c 0
 432 535 335 534 263 507 c 0
 251 503 239 498 146 454 c 1
 280 454 l 1
 302 455 l 1
 432 455 l 1
 432 347 l 1
 54 347 l 1
 54 453 l 1
 153 506 l 1
 225 537 291 554 291 612 c 0
 291 647 259 672 211 672 c 0
 163 672 140 655 111 629 c 1
 45 720 l 1
EndSplineSet
EndChar

StartChar: threesuperior
Encoding: 179 179 363
Width: 489
Flags: HW
TeX: 750 0
HStem: 336 95<60 288.397> 523 73<182 249.016> 683 90<108.953 268.596>
VStem: 271 140<612.633 680.493> 294 147<437.918 515.645>
LayerCount: 2
Fore
SplineSet
45 335 m 1
 60 428 l 1
 171 431 l 1xe8
 226 431 l 2
 266 431 294 435 294 477 c 0xe8
 294 514 270 522 235 523 c 1
 182 523 l 1
 182 596 l 1
 209 599 229 597 250 612 c 1
 256 618 271 628 271 652 c 0
 271 679 254 683 232 683 c 0
 183 683 150 674 110 658 c 1
 60 736 l 1
 115 761 169 773 233 773 c 0
 361 773 411 723 411 650 c 0xf0
 411 596 372 572 352 560 c 1
 389 550 441 529 441 475 c 0
 441 453 434 396 376 364 c 0
 326 336 268 336 212 336 c 2
 108 336 l 1
 45 335 l 1
EndSplineSet
EndChar

StartChar: uni00B5
Encoding: 181 181 365
Width: 561
Flags: HW
TeX: 475 166
HStem: -167 21G<59 196> -11 61<201.257 295.234> 0 21G<367 500> 452 20G<59 196 364 500>
VStem: 59 137<-167 -11 55.8114 472> 364 136<0 80 94.5801 472>
LayerCount: 2
Fore
SplineSet
59 -167 m 1
 59 472 l 1
 196 472 l 1
 196 130 l 1
 197 70 193 50 259 50 c 0xdc
 306 50 364 82 364 175 c 2
 364 472 l 1
 500 472 l 1
 500 0 l 1
 367 0 l 1xbc
 367 46 l 1
 366 80 l 1
 317 -6 235 -11 204 -11 c 2xdc
 196 -11 l 1
 196 -167 l 1
 59 -167 l 1
EndSplineSet
EndChar

StartChar: paragraph
Encoding: 182 182 366
Width: 672
Flags: HW
TeX: 694 166
HStem: -166 21G<340 353 497 517> 611 84<388 465 548 634.01>
VStem: 60 328<365.606 549.134> 305 83<-161.086 226.218> 465 83<-160.568 611>
LayerCount: 2
Fore
SplineSet
60 458 m 0xe8
 60 574 157 695 347 695 c 2
 589 695 l 2
 633 695 640 665 640 653 c 0
 640 638 631 625 618 617 c 0
 608 611 597 611 586 611 c 2
 548 611 l 1
 548 -112 l 2
 548 -119 548 -126 547 -133 c 0
 543 -152 527 -166 507 -166 c 0
 487 -166 470 -152 466 -133 c 0
 465 -126 465 -119 465 -112 c 2
 465 611 l 1
 388 611 l 1
 388 -117 l 2
 388 -162 359 -166 347 -166 c 0
 333 -166 305 -158 305 -121 c 2
 305 224 l 1xd8
 142 245 60 352 60 458 c 0xe8
EndSplineSet
EndChar

StartChar: periodcentered
Encoding: 183 183 367
Width: 219
Flags: HW
TeX: 475 0
HStem: 194 112<53 165>
VStem: 53 112<194 306>
LayerCount: 2
Fore
SplineSet
53 194 m 1
 53 306 l 1
 165 306 l 1
 165 194 l 1
 53 194 l 1
EndSplineSet
EndChar

StartChar: uni203B
Encoding: 8251 8251 368
Width: 669
Flags: HW
TeX: 546 0
HStem: -0 137<270.718 395.319> 205 136<66.1847 191.085 475.185 600.16> 410 136<270.718 395.319>
VStem: 60 137<211.081 335.385> 265 136<5.76205 130.867 415.738 540.578> 469 137<211.272 335.385>
DStem2: 142 523 90 457 0.707107 -0.707107<-43.9506 269.408 353.553 666.879> 274 273 139 20 0.707896 0.706316<-313.344 0 84.2381 397.549>
CounterMasks: 1 1c
LayerCount: 2
Fore
SplineSet
60 257 m 0
 60 268 60 279 60 290 c 0
 60 310 61 342 112 342 c 0
 117 342 123 341 128 341 c 2
 147 341 l 2
 190 341 197 315 197 289 c 0
 197 278 197 267 197 256 c 0
 197 234 193 205 145 205 c 2
 108 205 l 2
 94 205 60 206 60 257 c 0
60 505 m 0
 60 525 77 546 102 546 c 0
 120 546 129 536 142 523 c 2
 333 332 l 1
 528 527 l 2
 537 536 547 546 564 546 c 0
 585 546 605 530 605 505 c 0
 605 487 595 476 585 466 c 2
 392 274 l 1
 392 273 l 1
 576 89 l 2
 595 70 605 61 605 42 c 0
 605 21 589 1 564 1 c 0
 546 1 537 10 524 23 c 2
 333 214 l 1
 139 20 l 2
 131 12 120 0 102 0 c 0
 82 0 61 17 61 42 c 0
 61 60 71 70 80 80 c 2
 274 273 l 1
 274 274 l 1
 90 457 l 2
 71 476 60 486 60 505 c 0
265 51 m 2
 265 86 l 2
 265 106 267 137 317 137 c 2
 354 137 l 2
 403 137 401 94 401 82 c 0
 401 72 401 62 401 52 c 0
 401 27 395 0 350 -0 c 0
 338 0 326 0 314 -0 c 0
 270 1 265 28 265 51 c 2
265 461 m 2
 265 496 l 2
 265 516 267 547 317 547 c 0
 322 547 328 546 333 546 c 2
 354 546 l 2
 403 546 401 504 401 492 c 2
 401 461 l 2
 401 436 395 410 350 410 c 0
 338 410 326 410 314 410 c 0
 270 411 265 438 265 461 c 2
469 257 m 0
 469 268 469 279 469 290 c 0
 469 310 471 342 522 342 c 0
 527 342 533 341 538 341 c 2
 557 341 l 2
 599 341 606 315 606 289 c 0
 606 278 606 267 606 256 c 0
 606 231 599 205 554 205 c 2
 517 205 l 2
 503 205 469 206 469 257 c 0
EndSplineSet
EndChar

StartChar: onesuperior
Encoding: 185 185 369
Width: 489
Flags: HW
TeX: 750 0
HStem: 347 73<92 187 325 412> 625 73<76 184.132>
VStem: 187 138<420 639>
LayerCount: 2
Fore
SplineSet
76 625 m 1
 76 698 l 1
 205 699 257 741 291 773 c 1
 325 773 l 1
 325 420 l 1
 412 420 l 1
 412 347 l 1
 92 347 l 1
 92 420 l 1
 187 420 l 1
 187 639 l 1
 154 631 126 625 76 625 c 1
EndSplineSet
EndChar

StartChar: ordmasculine
Encoding: 186 186 370
Width: 489
Flags: HW
TeX: 750 0
HStem: 219 73<27.6387 459.09> 364 78<186.81 301.125> 694 73<186.61 298.002>
VStem: 30 136<462.859 666.605> 320 137<461.502 668.887>
LayerCount: 2
Fore
SplineSet
24 255 m 0
 24 271 36 286 51 290 c 0
 59 292 68 292 76 292 c 2
 419 292 l 2
 457 292 462 267 462 255 c 0
 462 242 457 220 419 219 c 1
 68 219 l 2
 29 219 24 246 24 255 c 0
30 558 m 0
 30 726 133 767 245 767 c 0
 414 767 457 668 457 555 c 0
 457 405 358 368 260 364 c 1
 227 364 l 1
 132 368 30 403 30 558 c 0
166 560 m 2
 166 487 175 442 243 442 c 0
 317 442 320 491 320 580 c 0
 320 645 314 694 243 694 c 0
 172 694 166 645 166 581 c 2
 166 560 l 2
EndSplineSet
EndChar

StartChar: radical
Encoding: 8730 8730 371
Width: 519
Flags: HW
TeX: 750 138
HStem: 695 83<461 587.884>
DStem2: 210 152 243 -28 0.288684 0.957424<0 592.341>
LayerCount: 2
Fore
SplineSet
23 126 m 1
 175 354 l 1
 210 152 l 1
 384 730 l 2
 398 777 412 778 438 778 c 2
 544 778 l 2
 587 778 593 749 593 737 c 0
 593 725 587 694 543 694 c 0
 538 694 534 695 529 695 c 2
 461 695 l 1
 243 -28 l 2
 232 -66 216 -69 188 -69 c 2
 158 -69 l 1
 126 111 l 1
 120 143 l 1
 75 75 l 1
 23 126 l 1
EndSplineSet
EndChar

StartChar: onequarter
Encoding: 188 188 372
Width: 489
Flags: HW
TeX: 750 166
HStem: -167 21G<244 368> -141 95<149 244 368 458> 250 84<-4.65686 494.029> 417 73<92 188 326 413> 667 73<77 185.813>
VStem: 188 138<490 672> 249 119<-167 -141 -46 80>
DStem2: 31 -46 149 -46 0.6238 0.781584<73.6084 234.468>
LayerCount: 2
Fore
SplineSet
-10 292 m 0
 -10 315 8 331 30 333 c 1
 56 334 l 1
 442 334 l 2
 460 334 499 333 499 292 c 0
 499 281 495 250 450 250 c 2
 39 250 l 2
 -3 250 -10 280 -10 292 c 0
31 -46 m 1
 201 167 l 1
 368 167 l 1xfa
 368 -46 l 1
 458 -46 l 1
 458 -141 l 1
 368 -141 l 1
 368 -167 l 1
 244 -167 l 1
 244 -141 l 1
 31 -141 l 1
 31 -46 l 1
77 667 m 1
 77 740 l 1
 267 740 262 773 307 773 c 2
 326 773 l 1
 326 490 l 1
 413 490 l 1
 413 417 l 1
 92 417 l 1
 92 490 l 1
 188 490 l 1
 188 672 l 1xfc
 141 667 116 667 77 667 c 1
149 -46 m 1
 249 -46 l 1xfa
 249 80 l 1
 149 -46 l 1
EndSplineSet
EndChar

StartChar: onehalf
Encoding: 189 189 373
Width: 489
Flags: HW
TeX: 750 166
HStem: -167 80<156 434> 116 73<130.984 276.46> 250 84<-4.65686 494.029> 417 73<92 188 326 413> 667 73<77 185.813>
VStem: 188 138<490 672> 293 141<16.8055 101.588>
LayerCount: 2
Fore
SplineSet
-10 292 m 0
 -10 315 8 331 30 333 c 1
 56 334 l 1
 442 334 l 2
 460 334 499 333 499 292 c 0
 499 281 495 250 450 250 c 2
 39 250 l 2
 -3 250 -10 280 -10 292 c 0
47 173 m 1
 120 186 161 189 225 189 c 0
 396 189 434 117 434 65 c 0
 434 -15 331 -10 262 -38 c 0
 251 -42 240 -48 156 -88 c 1
 280 -88 l 1
 302 -87 l 1
 434 -87 l 1
 434 -167 l 1
 56 -167 l 1
 56 -94 l 1
 155 -39 l 1
 224 -8 293 5 293 63 c 0xfa
 293 84 278 116 212 116 c 2
 211 116 l 2
 161 116 137 99 112 82 c 1
 47 173 l 1
77 667 m 1
 77 740 l 1xfc
 267 740 262 773 307 773 c 2
 326 773 l 1
 326 490 l 1
 413 490 l 1
 413 417 l 1
 92 417 l 1
 92 490 l 1
 188 490 l 1
 188 672 l 1
 141 667 116 667 77 667 c 1
EndSplineSet
EndChar

StartChar: threequarters
Encoding: 190 190 374
Width: 489
Flags: HW
TeX: 750 166
HStem: -167 21G<244 368> -141 95<149 244 368 458> 250 84<-4.65686 494.029> 367 94<62 149.851> 550 73<184 265.569> 684 89<112 270.372> 684 77<112 227.375>
VStem: 249 119<-167 -141 -46 80>
DStem2: 31 -46 149 -46 0.6238 0.781584<73.6084 234.468>
LayerCount: 2
Fore
SplineSet
-10 292 m 0
 -10 315 8 331 30 333 c 1
 56 334 l 1
 442 334 l 2
 460 334 499 333 499 292 c 0
 499 281 495 250 450 250 c 2
 39 250 l 2
 -3 250 -10 280 -10 292 c 0
31 -46 m 1
 201 167 l 1
 368 167 l 1
 368 -46 l 1
 458 -46 l 1
 458 -141 l 1
 368 -141 l 1
 368 -167 l 1
 244 -167 l 1
 244 -141 l 1
 31 -141 l 1
 31 -46 l 1
47 367 m 1
 62 461 l 1
 210 512 295 466 295 520 c 0
 295 546 270 549 242 550 c 1
 184 550 l 1
 184 623 l 1
 204 625 272 624 272 661 c 0
 272 681 253 684 232 684 c 0
 227 684 222 683 217 683 c 2
 158 683 l 1
 112 684 l 1xfd
 62 761 l 1xfb
 118 768 174 773 230 773 c 0xfd
 291 773 357 766 392 722 c 0
 405 705 413 683 413 661 c 0
 413 616 383 597 367 586 c 1
 394 578 443 563 443 518 c 0
 443 481 422 443 386 423 c 0
 294 372 231 418 47 367 c 1
149 -46 m 1
 249 -46 l 1xf9
 249 80 l 1
 149 -46 l 1
EndSplineSet
EndChar

StartChar: Euro.old
Encoding: 62028 62028 375
Width: 856
Flags: HW
TeX: 694 0
HStem: -22 100<434.707 703.691> 218 93<78 122 295 603> 384 94<78 122 295 666> 617 100<441.436 688.25>
VStem: 122 148<311 384>
LayerCount: 2
Fore
SplineSet
42 218 m 1
 78 311 l 1
 122 311 l 1
 121 323 121 336 121 348 c 0
 121 360 121 372 122 384 c 1
 42 384 l 1
 78 478 l 1
 140 478 l 1
 162 548 230 717 569 717 c 2
 585 717 l 2
 664 717 712 709 793 682 c 1
 745 558 l 1
 699 592 669 617 582 617 c 0
 393 617 328 544 295 478 c 1
 702 478 l 1
 666 384 l 1
 270 384 l 1
 269 348 l 1
 270 311 l 1
 640 311 l 1
 603 218 l 1
 295 218 l 1
 357 82 520 78 588 78 c 0
 688 78 716 104 769 145 c 1
 769 33 l 1
 716 -2 683 -22 588 -22 c 0
 430 -22 205 3 140 218 c 1
 42 218 l 1
EndSplineSet
EndChar

StartChar: multiply
Encoding: 215 215 376
Width: 672
Flags: HW
TeX: 538 11
LayerCount: 2
Fore
SplineSet
129 100 m 1
 131 122 134 121 277 264 c 1
 130 410 129 406 129 429 c 0
 129 438 134 468 173 470 c 1
 194 468 187 472 336 323 c 1
 483 470 477 470 500 470 c 0
 509 470 540 467 542 427 c 1
 541 405 537 406 394 263 c 1
 541 116 542 122 542 99 c 0
 542 90 537 59 498 57 c 1
 477 59 484 55 335 204 c 1
 188 57 193 57 171 57 c 0
 162 57 131 61 129 100 c 1
EndSplineSet
EndChar

StartChar: divide
Encoding: 247 247 377
Width: 672
Flags: HW
TeX: 538 11
HStem: -103 214<234.188 436.594> 222 83<65.2226 591.53> 222 75<353.5 604.286> 416 214<233.797 436.729>
VStem: 228 214<-97.3635 105.453 421.398 624.364>
LayerCount: 2
Fore
SplineSet
60 263 m 0
 60 283 74 302 97 305 c 1
 553 305 l 2xd8
 570 305 582 304 592 297 c 0xb8
 603 289 609 276 609 263 c 0
 609 250 603 222 558 222 c 2
 109 222 l 1xd8
 65 223 60 252 60 263 c 0
228 -51 m 2
 228 61 l 2
 228 114 266 110 282 111 c 1
 384 111 l 2
 410 111 442 112 442 59 c 2
 442 -53 l 2
 442 -81 432 -103 393 -103 c 2
 276 -103 l 2
 238 -103 228 -80 228 -51 c 2
228 468 m 2
 228 580 l 2
 228 633 266 629 282 630 c 1
 391 630 l 2
 434 630 442 607 442 578 c 2
 442 466 l 2
 442 438 432 416 393 416 c 2
 275 416 l 2x98
 237 416 228 440 228 468 c 2
EndSplineSet
EndChar

StartChar: cyrflex
Encoding: 63189 63189 379
Width: 550
Flags: HW
TeX: 680 0
HStem: 598 94<177.197 370.539>
VStem: 85 73<542 577.73> 390 73<542 577.443>
LayerCount: 2
Fore
SplineSet
85 542 m 1
 88 644 188 692 274 692 c 0
 360 692 459 643 463 542 c 1
 390 542 l 1
 385 583 352 598 277 598 c 2
 274 598 l 2
 198 598 163 583 158 542 c 1
 85 542 l 1
EndSplineSet
EndChar

StartChar: cyrbreve
Encoding: 63188 63188 381
Width: 550
Flags: HW
TeX: 680 0
HStem: 535 94<173.468 375.588>
VStem: 85 73<644.659 680> 391 73<644.484 680>
LayerCount: 2
Fore
SplineSet
85 680 m 1
 158 680 l 1
 162 647 183 629 272 629 c 0
 356 629 386 641 391 680 c 1
 464 680 l 1
 460 578 359 535 274 535 c 0
 190 535 89 578 85 680 c 1
EndSplineSet
EndChar

StartChar: emdash.cyr
Encoding: 61715 61715 382
Width: 886
Flags: HW
TeX: 472 0
ItalicCorrection: 30
HStem: 256 72<15 871>
LayerCount: 2
Fore
SplineSet
15 256 m 1
 15 328 l 1
 871 328 l 1
 871 256 l 1
 15 256 l 1
EndSplineSet
EndChar

StartChar: afii10050
Encoding: 1168 1168 384
Width: 596
Flags: HW
TeX: 861 0
HStem: 0 21G<91 239> 594 101<239 440>
VStem: 91 148<0 594> 440 109<695 861>
LayerCount: 2
Fore
SplineSet
91 0 m 1
 91 695 l 1
 440 695 l 1
 440 861 l 1
 549 861 l 1
 549 594 l 1
 239 594 l 1
 239 0 l 1
 91 0 l 1
EndSplineSet
EndChar

StartChar: uni0492
Encoding: 1170 1170 385
Width: 581
Flags: HW
TeX: 694 0
HStem: 0 21G<91 239> 325 73<20 91 239 365> 590 105<239 534>
VStem: 91 148<0 325 398 593>
LayerCount: 2
Fore
SplineSet
20 325 m 1
 20 398 l 1
 91 398 l 1
 91 695 l 1
 534 695 l 1
 534 590 l 1
 239 593 l 1
 239 398 l 1
 365 398 l 1
 365 325 l 1
 239 325 l 1
 239 0 l 1
 91 0 l 1
 91 325 l 1
 20 325 l 1
EndSplineSet
EndChar

StartChar: afii10051
Encoding: 1026 1026 386
Width: 886
Flags: HW
TeX: 694 0
HStem: -22 72<575.36 688.462> -0 21G<292 440> 422 73<545.085 679.754> 593 102<39 292 440 693>
VStem: 292 148<0 355.216 378 593> 709 137<83.9183 390.754>
LayerCount: 2
Fore
SplineSet
39 590 m 1
 39 695 l 1
 693 695 l 1
 693 591 l 1
 655 592 l 1
 621 592 l 1
 547 593 l 1
 512 593 l 1
 440 594 l 1
 440 378 l 1
 485 459 566 495 648 495 c 0
 829 495 846 422 846 311 c 2x7c
 846 223 l 2
 846 94 817 -22 642 -22 c 0xbc
 588 -22 560 -15 517 -0 c 1x7c
 546 108 l 1
 563 81 582 50 643 50 c 0xbc
 707 50 709 113 709 200 c 2
 709 316 l 2
 709 384 691 422 585 422 c 0
 471 422 446 326 442 300 c 0
 440 287 440 275 440 262 c 2
 440 -0 l 1
 292 -0 l 1
 292 593 l 1
 39 590 l 1
EndSplineSet
EndChar

StartChar: afii10060
Encoding: 1035 1035 387
Width: 840
Flags: HW
TeX: 694 0
HStem: 0 21G<262 410 641 778> 411 73<501.21 615.662> 593 102<40 262 410 693>
VStem: 262 148<0 353.395 377 593> 641 137<0 388.51>
LayerCount: 2
Fore
SplineSet
40 590 m 1
 40 695 l 1
 693 695 l 1
 693 591 l 1
 474 593 l 1
 434 593 l 1
 410 594 l 1
 410 377 l 1
 444 436 508 484 599 484 c 0
 754 484 778 424 778 318 c 2
 778 0 l 1
 641 0 l 1
 641 316 l 2
 641 366 635 411 536 411 c 0
 493 411 410 391 410 261 c 2
 410 0 l 1
 262 0 l 1
 262 593 l 1
 40 590 l 1
EndSplineSet
EndChar

StartChar: uni04BA
Encoding: 1210 1210 388
Width: 764
Flags: HW
TeX: 694 0
HStem: 0 21G<91 239 523 671> 482 72<324.579 483.966> 675 20G<91 239>
VStem: 91 148<0 383.668 500 695> 523 148<0 443.537>
LayerCount: 2
Fore
SplineSet
91 0 m 1
 91 695 l 1
 239 695 l 1
 239 500 l 1
 303 535 375 554 460 554 c 0
 533 554 591 546 631 500 c 0
 666 460 671 407 671 356 c 2
 671 0 l 1
 523 0 l 1
 523 342 l 2
 523 418 514 482 401 482 c 0
 336 482 239 437 239 270 c 2
 239 0 l 1
 91 0 l 1
EndSplineSet
EndChar

StartChar: uni0496
Encoding: 1174 1174 389
Width: 1215
Flags: HW
TeX: 694 166
HStem: -167 21G<1065 1174> 0 21G<45 208.018 541 671> 675 20G<61 240.125 541 671 972.812 1152>
VStem: 541 130<0 218 376 695> 1065 109<-167 0>
DStem2: 45 0 194 0 0.573068 0.819507<85.3872 489.596> 220 695 61 695 0.70932 -0.704887<0 278.248 402.699 452.551> 671 376 786 331 0.710053 0.704148<0 49.9694 174.419 453.26> 874 419 786 331 0.57396 -0.818883<21.5532 389.217>
LayerCount: 2
Fore
SplineSet
45 0 m 1
 338 419 l 1
 61 695 l 1
 220 695 l 1
 541 376 l 1
 541 695 l 1
 671 695 l 1
 671 376 l 1
 993 695 l 1
 1152 695 l 1
 874 419 l 1
 1097 100 l 1
 1174 100 l 1
 1174 -167 l 1
 1065 -167 l 1
 1065 0 l 1
 1018 0 l 1
 786 331 l 1
 671 218 l 1
 671 0 l 1
 541 0 l 1
 541 218 l 1
 426 331 l 1
 194 0 l 1
 45 0 l 1
EndSplineSet
EndChar

StartChar: uni0498
Encoding: 1176 1176 390
Width: 672
Flags: HW
TeX: 694 166
HStem: -43 20G<275.916 360> -22 86<205.715 426.755> 325 73<214 405.5> 630 87<219.517 422.451>
VStem: 459 137<446.495 593.822> 486 140<116.964 271.566>
LayerCount: 2
Fore
SplineSet
195 -189 m 1
 287 -23 l 1
 360 -23 l 1xf0
 300 -189 l 1
 195 -189 l 1
EndSplineSet
Refer: 451 1047 S 1 0 0 1 0 0 3
EndChar

StartChar: afii10058
Encoding: 1033 1033 391
Width: 1158
Flags: HW
TeX: 694 0
HStem: -0 87<20 126.742 714 913.005> 314 95<715 910.608> 594 101<333 566>
VStem: 223 110<367.105 594> 566 148<87 314 409 594> 956 140<127.911 273.561>
LayerCount: 2
Fore
SplineSet
20 -0 m 1
 20 91 l 1
 59 91 l 2
 108 91 174 98 204 272 c 0
 216 345 223 420 223 642 c 2
 223 695 l 1
 714 695 l 1
 714 409 l 1
 837 409 l 2
 923 409 1019 400 1067 319 c 0
 1079 299 1096 261 1096 202 c 0
 1096 156 1086 69 996 26 c 0
 942 0 890 0 822 -0 c 2
 566 -0 l 1
 566 594 l 1
 333 594 l 1
 330 304 309 227 275 147 c 0
 216 7 125 0 79 -0 c 2
 20 -0 l 1
714 87 m 1
 809 87 l 2
 861 87 956 89 956 201 c 0
 956 312 859 314 812 314 c 2
 715 314 l 1
 714 280 l 1
 714 87 l 1
EndSplineSet
EndChar

StartChar: uni049A
Encoding: 1178 1178 393
Width: 764
Flags: HW
TeX: 694 166
HStem: -167 21G<614 723> 0 21G<91 221> 675 20G<91 221 521.875 701>
VStem: 91 130<0 218 376 695> 614 109<-167 0>
DStem2: 221 376 336 331 0.70932 0.704887<0 49.8519 174.302 452.551> 424 418 336 331 0.57396 -0.818883<20.7343 387.824>
LayerCount: 2
Fore
SplineSet
91 0 m 1
 91 695 l 1
 221 695 l 1
 221 376 l 1
 542 695 l 1
 701 695 l 1
 424 419 l 1
 424 418 l 1
 646 100 l 1
 723 100 l 1
 723 -167 l 1
 614 -167 l 1
 614 0 l 1
 568 0 l 1
 336 331 l 1
 221 218 l 1
 221 0 l 1
 91 0 l 1
EndSplineSet
EndChar

StartChar: uni04A0
Encoding: 1184 1184 394
Width: 965
Flags: HW
TeX: 694 0
HStem: -0 21G<293 423 755.982 919> 590 105<39 293>
VStem: 293 130<0 218 376 593>
DStem2: 423 376 538 331 0.70932 0.704887<0 49.8519 174.302 452.551> 626 418 538 331 0.573988 -0.818864<20.7302 424.939>
LayerCount: 2
Fore
SplineSet
39 590 m 1
 39 695 l 1
 423 695 l 1
 423 376 l 1
 744 695 l 1
 903 695 l 1
 626 419 l 1
 626 418 l 1
 919 -0 l 1
 770 -0 l 1
 538 331 l 1
 423 218 l 1
 423 -0 l 1
 293 -0 l 1
 293 593 l 1
 39 590 l 1
EndSplineSet
EndChar

StartChar: uni049C
Encoding: 1180 1180 395
Width: 886
Flags: HW
TeX: 694 0
HStem: 0 21G<91 221 668.216 839> 389 72<221 285 357 377> 675 20G<91 221 631.436 824>
VStem: 91 130<0 389 461 695> 285 72<244 389 461 592>
DStem2: 510 417 377 389 0.6194 -0.785075<0 435.152> 390 461 510 418 0.749908 0.661543<61.5426 352.777>
LayerCount: 2
Fore
SplineSet
91 0 m 1
 91 695 l 1
 221 695 l 1
 221 461 l 1
 285 461 l 1
 285 592 l 1
 357 592 l 1
 357 461 l 1
 390 461 l 1
 654 695 l 1
 824 695 l 1
 510 418 l 1
 510 417 l 1
 839 0 l 1
 684 0 l 1
 377 389 l 1
 357 389 l 1
 357 244 l 1
 285 244 l 1
 285 389 l 1
 221 389 l 1
 221 0 l 1
 91 0 l 1
EndSplineSet
EndChar

StartChar: uni04A2
Encoding: 1186 1186 397
Width: 807
Flags: HW
TeX: 694 166
HStem: -167 21G<657 767> 0 21G<91 239> 314 95<239 524> 675 20G<91 239 524 671>
VStem: 91 148<0 314 409 695> 524 147<95 314 409 695> 657 110<-167 0>
LayerCount: 2
Fore
SplineSet
91 0 m 1xfc
 91 695 l 1
 239 695 l 1
 239 409 l 1
 524 409 l 1
 524 695 l 1
 671 695 l 1
 671 95 l 1xfc
 767 95 l 1
 767 -167 l 1
 657 -167 l 1
 657 0 l 1xfa
 524 0 l 1
 524 314 l 1
 239 314 l 1
 239 0 l 1
 91 0 l 1xfc
EndSplineSet
EndChar

StartChar: uni04A4
Encoding: 1188 1188 398
Width: 971
Flags: HW
TeX: 694 0
HStem: 0 21G<91 239 524 671> 314 95<239 524> 590 105<671 931>
VStem: 91 148<0 314 409 695> 524 147<0 314 409 593>
LayerCount: 2
Fore
SplineSet
91 0 m 1
 91 695 l 1
 239 695 l 1
 239 409 l 1
 524 409 l 1
 524 695 l 1
 931 695 l 1
 931 590 l 1
 671 593 l 1
 671 0 l 1
 524 0 l 1
 524 314 l 1
 239 314 l 1
 239 0 l 1
 91 0 l 1
EndSplineSet
EndChar

StartChar: uni04E8
Encoding: 1256 1256 400
Width: 794
Flags: HW
TeX: 694 0
HStem: -22 81<311.762 480.509> 314 95<209 583> 639 78<308.057 486.37>
VStem: 60 149<182.623 314 409 504.793> 584 148<182.374 314 409 507.935>
AnchorPoint: "above" 395 717 basechar 0
LayerCount: 2
Fore
SplineSet
60 326 m 2
 60 341 l 2
 60 443 68 717 395 717 c 0
 597 717 732 617 732 343 c 0
 732 154 665 -22 397 -22 c 0
 127 -22 60 151 60 326 c 2
209 308 m 2
 209 270 217 173 263 117 c 0
 295 78 346 59 396 59 c 0
 441 59 491 75 525 112 c 0
 576 168 582 264 584 314 c 1
 209 314 l 1
 209 308 l 2
209 409 m 1
 583 409 l 1
 581 512 546 639 396 639 c 0
 321 639 213 605 209 409 c 1
EndSplineSet
EndChar

StartChar: uni04AA
Encoding: 1194 1194 401
Width: 703
Flags: HW
TeX: 694 166
HStem: -43 20G<378.916 463> -22 100<322.541 559.338> 616 101<323.655 540.48>
VStem: 60 148<201.719 490.525>
LayerCount: 2
Fore
SplineSet
60 346 m 0
 60 643 234 717 431 717 c 0
 512 717 566 705 634 682 c 1
 611 551 l 1
 573 577 529 616 429 616 c 0
 218 616 208 429 208 352 c 2
 208 332 l 2
 208 204 252 78 431 78 c 0
 545 78 583 109 637 144 c 1
 646 33 l 1
 565 -10 526 -22 445 -22 c 2
 431 -22 l 2
 329 -22 60 -14 60 346 c 0
298 -189 m 1
 390 -23 l 1
 463 -23 l 1
 402 -189 l 1
 298 -189 l 1
EndSplineSet
EndChar

StartChar: uni04B0
Encoding: 1200 1200 404
Width: 733
Flags: HW
TeX: 694 0
ItalicCorrection: 27
HStem: 0 21G<293 438> 205 73<167 292 438 564> 675 20G<2 248.5 509 728>
VStem: 293 145<0 205>
AnchorPoint: "above" 364 717 basechar 0
LayerCount: 2
Fore
SplineSet
2 695 m 1
 179 695 l 1
 318 494 359 434 374 403 c 1
 387 434 449 522 569 695 c 1
 728 695 l 1
 438 278 l 1
 564 278 l 1
 564 205 l 1
 438 205 l 1
 438 0 l 1
 293 0 l 1
 293 205 l 1
 167 205 l 1
 167 278 l 1
 292 278 l 1
 2 695 l 1
EndSplineSet
EndChar

StartChar: uni04B2
Encoding: 1202 1202 405
Width: 733
Flags: HW
TeX: 694 166
HStem: -167 21G<608 717> -0 21G<15 195.487> 675 20G<31 221.519 489.962 671>
VStem: 608 109<-167 0>
DStem2: 15 -0 182 -0 0.575435 0.817847<96.0977 410.832 595.666 849.792> 207 695 31 695 0.587845 -0.808974<0 0 440.447 728.083>
LayerCount: 2
Fore
SplineSet
15 -0 m 1
 283 369 l 1
 31 695 l 1
 207 695 l 1
 358 487 l 1
 504 695 l 1
 671 695 l 1
 434 368 l 1
 635 106 l 1
 717 106 l 1
 717 -167 l 1
 608 -167 l 1
 608 -0 l 1
 540 -0 l 1
 359 261 l 1
 358 261 l 1
 182 -0 l 1
 15 -0 l 1
EndSplineSet
EndChar

StartChar: afii10145
Encoding: 1039 1039 406
Width: 764
Flags: HW
TeX: 694 166
HStem: -167 21G<321 441> 0 106<239 321 441 523> 675 20G<91 239 523 671>
VStem: 91 148<106 695> 321 120<-167 0> 523 148<106 695>
CounterMasks: 1 1c
LayerCount: 2
Fore
SplineSet
91 0 m 1
 91 695 l 1
 239 695 l 1
 239 106 l 1
 523 106 l 1
 523 695 l 1
 671 695 l 1
 671 0 l 1
 441 0 l 1
 441 -167 l 1
 321 -167 l 1
 321 0 l 1
 91 0 l 1
EndSplineSet
EndChar

StartChar: uni04B8
Encoding: 1208 1208 407
Width: 764
Flags: HW
TeX: 694 0
HStem: -0 21G<523 671> 294 80<253.789 345 417 523> 675 20G<91 239 523 671>
VStem: 91 148<400.879 695> 345 72<160 294 374 507> 523 148<0 294 374 695>
CounterMasks: 1 1c
LayerCount: 2
Fore
SplineSet
91 449 m 2
 91 695 l 1
 239 695 l 1
 239 454 l 2
 239 422 240 419 249 400 c 1
 256 392 l 1
 270 380 278 374 320 374 c 2
 345 374 l 1
 345 507 l 1
 417 507 l 1
 417 374 l 1
 523 374 l 1
 523 695 l 1
 671 695 l 1
 671 -0 l 1
 523 -0 l 1
 523 294 l 1
 417 294 l 1
 417 160 l 1
 345 160 l 1
 345 294 l 1
 333 294 l 2
 299 294 265 294 232 301 c 0
 91 331 91 428 91 449 c 2
EndSplineSet
EndChar

StartChar: uni04B6
Encoding: 1206 1206 408
Width: 807
Flags: HW
TeX: 694 166
HStem: -167 21G<651 761> 294 80<252.823 524> 675 20G<91 239 524 671>
VStem: 91 148<389.723 695> 524 147<95 294 374 695> 651 110<-167 0>
LayerCount: 2
Fore
SplineSet
91 451 m 2
 91 695 l 1
 239 695 l 1
 239 455 l 2
 239 419 238 374 319 374 c 2
 524 374 l 1
 524 695 l 1
 671 695 l 1
 671 95 l 1xf8
 761 95 l 1
 761 -167 l 1
 651 -167 l 1
 651 0 l 1xf4
 524 0 l 1
 524 294 l 1
 316 294 l 2xf8
 214 294 91 325 91 451 c 2
EndSplineSet
EndChar

StartChar: afii10053
Encoding: 1028 1028 409
Width: 703
Flags: HW
TeX: 694 0
HStem: -22 100<326.712 560.556> 300 95<209 542> 617 100<324.912 537.966>
VStem: 60 149<200.314 300 395 490.525>
CounterMasks: 1 e0
AnchorPoint: "above" 431 717 basechar 0
LayerCount: 2
Fore
SplineSet
60 346 m 0
 60 643 234 717 431 717 c 0
 512 717 566 705 634 682 c 1
 611 551 l 1
 571 579 526 617 428 617 c 0
 224 617 215 439 209 395 c 1
 542 395 l 1
 542 300 l 1
 209 300 l 1
 217 233 234 78 431 78 c 0
 541 78 578 105 637 144 c 1
 646 33 l 1
 565 -10 526 -22 445 -22 c 0
 328 -22 60 -19 60 346 c 0
EndSplineSet
EndChar

StartChar: uni04D8
Encoding: 1240 1240 410
Width: 761
Flags: HW
TeX: 694 0
HStem: -22 78<268.863 462.536> 262 72<169 567> 617 100<203.194 459.109>
VStem: 30 139<166.562 262> 567 147<176.529 262 334 493.328>
AnchorPoint: "above" 364 717 basechar 0
LayerCount: 2
Fore
SplineSet
30 334 m 1
 570 334 l 1
 569 463 547 617 357 617 c 0
 223 617 195 594 114 551 c 1
 91 682 l 1
 219 715 245 717 350 717 c 2
 378 717 l 2
 655 717 714 525 714 340 c 0
 714 161 663 -6 406 -21 c 1
 361 -22 l 1
 265 -19 156 -7 88 91 c 0
 35 167 31 262 30 334 c 1
169 262 m 1
 169 222 186 145 231 102 c 0
 266 68 316 56 364 56 c 0
 543 56 559 206 567 262 c 1
 169 262 l 1
EndSplineSet
EndChar

StartChar: afii10059
Encoding: 1034 1034 411
Width: 1115
Flags: HW
TeX: 694 0
HStem: 0 87<671 867.996> 314 95<239 524 672 871.891> 675 20G<91 239 524 671>
VStem: 91 148<0 314 409 695> 524 147<87 314 409 695> 913 140<128.525 275.09>
LayerCount: 2
Fore
SplineSet
91 0 m 1
 91 695 l 1
 239 695 l 1
 239 409 l 1
 524 409 l 1
 524 695 l 1
 671 695 l 1
 671 409 l 1
 794 409 l 2
 880 409 977 400 1025 319 c 0
 1037 299 1053 261 1053 202 c 0
 1053 156 1043 69 953 26 c 0
 899 0 847 0 779 0 c 2
 524 0 l 1
 524 314 l 1
 239 314 l 1
 239 0 l 1
 91 0 l 1
671 87 m 1
 766 87 l 2
 820 87 913 91 913 202 c 0
 913 314 816 314 767 314 c 2
 672 314 l 1
 671 280 l 1
 671 87 l 1
EndSplineSet
EndChar

StartChar: afii10098
Encoding: 1169 1169 413
Width: 433
Flags: HW
TeX: 611 0
ItalicCorrection: 15
HStem: -0 21G<59 196> 400 139<304 405> 400 72<196 304>
VStem: 59 137<0 400> 304 101<472 539>
LayerCount: 2
Fore
SplineSet
59 -0 m 1xb8
 59 472 l 1
 304 472 l 1xb8
 304 539 l 1
 405 539 l 1
 405 400 l 1xd8
 196 400 l 1
 196 -0 l 1
 59 -0 l 1xb8
EndSplineSet
EndChar

StartChar: uni0493
Encoding: 1171 1171 414
Width: 433
Flags: HW
TeX: 472 0
ItalicCorrection: 15
HStem: 0 21G<59 196> 233 53<20 59 196 305> 403 69<196 405>
VStem: 59 137<0 233 286 404>
LayerCount: 2
Fore
SplineSet
20 233 m 1
 20 286 l 1
 59 286 l 1
 59 472 l 1
 405 472 l 1
 405 402 l 1
 280 403 l 1
 252 403 l 1
 196 404 l 1
 196 286 l 1
 305 286 l 1
 305 233 l 1
 196 233 l 1
 196 0 l 1
 59 0 l 1
 59 233 l 1
 20 233 l 1
EndSplineSet
EndChar

StartChar: afii10099
Encoding: 1106 1106 415
Width: 531
Flags: HW
TeX: 694 166
HStem: -167 54<196 261.292> -0 21G<59 196> 411 72<265.928 425> 501 73<20 59 193 494> 675 20G<59 193>
VStem: 59 134<0 359.508 380 501 574 695> 357 137<54.3697 397.648>
LayerCount: 2
Fore
SplineSet
20 501 m 1
 20 574 l 1
 59 574 l 1
 59 695 l 1
 193 695 l 1
 193 574 l 1
 494 574 l 1
 494 501 l 1
 193 501 l 1
 193 380 l 1
 210 418 256 483 350 483 c 0
 500 483 493 386 494 308 c 1
 494 251 l 1
 492 155 498 -164 196 -167 c 1
 196 -113 l 1
 355 -104 356 95 357 247 c 1
 357 328 l 2
 357 363 354 411 293 411 c 0
 254 411 196 379 196 269 c 2
 196 -0 l 1
 59 -0 l 1
 59 501 l 1
 20 501 l 1
EndSplineSet
EndChar

StartChar: afii10108
Encoding: 1115 1115 416
Width: 561
Flags: HW
TeX: 694 0
HStem: -0 21G<59 196 364 500> 411 72<269.099 424> 501 73<20 59 193 432> 675 20G<59 193>
VStem: 59 134<0 356.235 379 501 574 695> 364 136<0 396.638>
LayerCount: 2
Fore
SplineSet
20 501 m 1
 20 574 l 1
 59 574 l 1
 59 695 l 1
 193 695 l 1
 193 574 l 1
 432 574 l 1
 432 501 l 1
 193 501 l 1
 193 379 l 1
 211 417 258 483 354 483 c 0
 494 483 501 404 501 314 c 0
 501 300 500 287 500 273 c 2
 500 -0 l 1
 364 -0 l 1
 364 327 l 2
 364 368 358 411 296 411 c 0
 228 411 200 342 196 291 c 1
 196 -0 l 1
 59 -0 l 1
 59 501 l 1
 20 501 l 1
EndSplineSet
EndChar

StartChar: uni0497
Encoding: 1175 1175 418
Width: 806
Flags: HW
TeX: 472 138
HStem: -139 21G<677 786> 0 21G<18 167.333 342 459> 452 20G<42 213.346 342 459 590.764 762>
VStem: 342 117<0 158 319 472> 677 109<-139 0>
DStem2: 18 0 154 0 0.557964 0.829865<75.8831 328.27> 589 292 510 210 0.559928 -0.828542<23.7061 264.32>
LayerCount: 2
Fore
SplineSet
18 0 m 1
 215 293 l 1
 42 472 l 1
 194 472 l 1
 342 319 l 1
 342 472 l 1
 459 472 l 1
 459 315 l 1
 610 472 l 1
 762 472 l 1
 589 292 l 1
 737 73 l 1
 786 73 l 1
 786 -139 l 1
 677 -139 l 1
 677 0 l 1
 651 0 l 1
 510 210 l 1
 459 158 l 1
 459 0 l 1
 342 0 l 1
 342 160 l 1
 294 210 l 1
 154 0 l 1
 18 0 l 1
EndSplineSet
EndChar

StartChar: uni0499
Encoding: 1177 1177 419
Width: 489
Flags: HW
TeX: 472 166
ItalicCorrection: 6
HStem: -43 20G<164.916 249> -11 78<121.678 297.685> 233 53<151 292.089> 417 72<120.948 297.589>
VStem: 313 126<307.397 400.999> 323 128<91.4805 208.146>
LayerCount: 2
Fore
SplineSet
30 39 m 1
 71 128 l 1
 90 110 129 67 215 67 c 0
 273 67 323 83 323 149 c 0xf4
 323 225 263 233 208 233 c 2
 151 233 l 1
 151 286 l 1
 198 286 l 2
 236 286 313 287 313 354 c 0xf8
 313 413 262 417 215 417 c 0
 132 417 114 392 76 360 c 1
 36 446 l 1
 92 475 122 489 211 489 c 2
 234 489 l 2
 330 489 439 476 439 355 c 0xf8
 439 303 399 275 363 260 c 1
 428 235 451 192 451 147 c 0
 451 104 434 51 386 22 c 0
 336 -8 270 -11 220 -11 c 0
 142 -11 90 3 30 39 c 1
84 -189 m 1
 176 -23 l 1
 249 -23 l 1xf0
 189 -189 l 1
 84 -189 l 1
EndSplineSet
EndChar

